<svg xmlns="http://www.w3.org/2000/svg" xmlns:xlink="http://www.w3.org/1999/xlink" viewBox="0 0 499.1 451.1"><defs><linearGradient id="linear-gradient" x1="27.22" y1="385.76" x2="483.18" y2="385.76" gradientTransform="translate(0 -90)" gradientUnits="userSpaceOnUse"><stop offset="0" stop-color="#d21036"/><stop offset="0.53" stop-color="#d01135"/><stop offset="0.73" stop-color="#c81334"/><stop offset="0.86" stop-color="#bc1631"/><stop offset="0.97" stop-color="#ab182c"/><stop offset="1" stop-color="#a5182b"/></linearGradient></defs><g id="Layer_2" data-name="Layer 2"><g id="Layer_1-2" data-name="Layer 1"><g id="design"><path d="M286,42.5c-20.6,4.5-42.3,7.4-63.2,10.3l-2.3.3v6.4l1,.1c15,1.2,22,7.8,22,20.8v84.3c0,16.3-4.3,26.6-25.7,27.6h-1.1v6.6l48.7-1,48.7,1v-6.5H313c-21.4-.9-25.7-11.2-25.7-27.6V42.2Z" style="fill:#9d9d9c"/><path d="M476.9,292.5c8.6,3.4,8.5,9.3-1.1,13.8-9.8,4.6-26.8.4-39.4-1.7-47.5-8-105.1-12.8-180.8-9C172.5,299.7,109,307,41.3,319.2c-17.2,3.1-17.7-4-6.6-7.2,68.2-19.8,136.3-33.2,224.7-38.4C345.9,268.3,426.7,272.8,476.9,292.5Z" style="fill:url(#linear-gradient)"/><path d="M372.3,121.7c2.7,38.2-26.9,114-109,114-58,0-106.3-36.9-106.3-107.4S198.3,11.5,266.8,11.5c31.1,0,61.5,11.8,81,33.7C368,68.5,372.3,92.8,372.3,121.7ZM262.1,247.2c86.8,0,148.4-50.8,148.4-128.3C410.5,35.5,336.1,0,262.9,0,182.3,0,118.8,48,118.8,124.1,118.8,198.5,176,247.2,262.1,247.2Z"/><path d="M0,412.2c0-22.4,17.3-38.9,40.7-38.9s40.7,16.4,40.7,38.9-17.3,38.9-40.7,38.9S0,434.6,0,412.2Zm67.3,0c0-15.4-11.3-26.6-26.6-26.6s-26.6,11.1-26.6,26.6,11.3,26.6,26.6,26.6S67.3,427.7,67.3,412.2Zm96.2-37.8V450H151.9l-41.7-51.2V450H96.3V374.4h11.6l41.7,51.2V374.4Zm77,63.8V450H183.8V374.4H239v11.8H197.9v19.7h36.5v11.6H197.9v20.8h42.6Zm10-26c0-22.6,17.3-38.9,40.5-38.9,12.3,0,22.9,4.4,29.9,12.6l-9.1,8.5a26.69,26.69,0,0,0-20.2-8.9c-15.7,0-27,11-27,26.6s11.3,26.6,27,26.6a26.13,26.13,0,0,0,20.2-9l9.1,8.6c-7,8.2-17.6,12.6-30,12.6C267.7,451.1,250.5,434.8,250.5,412.2Zm82.6-42.3h13.5V450H333.1Zm87,22.4V450H407.2v-7.3c-4.3,5.3-11.1,8.1-18.6,8.1-14.8,0-24.8-8.1-24.8-25.5V392.4h13.5v31.1c0,10.5,5,15.4,13.5,15.4,9.4,0,15.8-5.8,15.8-17.4V392.3Zm79,28.9c0,17.9-12.4,29.6-29.3,29.6-7.9,0-14.6-2.7-19.1-8.2v7.5H437.8V370h13.5v29.5c4.6-5.2,11.1-7.7,18.5-7.7C486.6,391.7,499.1,403.2,499.1,421.2Zm-13.7,0c0-11-7.3-18-17.1-18s-17.2,7-17.2,18,7.5,18,17.2,18,17.1-7,17.1-18Z" style="fill:#3c3c3b"/></g></g></g></svg>