<?xml version="1.0" encoding="UTF-8"?>
<svg width="500px" height="452px" viewBox="0 0 500 452" version="1.1" xmlns="http://www.w3.org/2000/svg" xmlns:xlink="http://www.w3.org/1999/xlink">
    <title>oneclub-logo_white</title>
    <g id="Page-1" stroke="none" stroke-width="1" fill="none" fill-rule="evenodd">
        <g id="oneclub-logo_white" fill="#FFFFFF" fill-rule="nonzero">
            <path d="M286,42.5 C265.4,47 243.7,49.9 222.8,52.8 L220.5,53.1 L220.5,59.5 L221.5,59.6 C236.5,60.8 243.5,67.4 243.5,80.4 L243.5,164.7 C243.5,181 239.2,191.3 217.8,192.3 L216.7,192.3 L216.7,198.9 L265.4,197.9 L314.1,198.9 L314.1,192.4 L313,192.4 C291.6,191.5 287.3,181.2 287.3,164.8 L287.3,42.2 L286,42.5 Z" id="Path"></path>
            <path d="M476.9,292.5 C485.5,295.9 485.4,301.8 475.8,306.3 C466,310.9 449,306.7 436.4,304.6 C388.9,296.6 331.3,291.8 255.6,295.6 C172.5,299.7 109,307 41.3,319.2 C24.1,322.3 23.6,315.2 34.7,312 C102.9,292.2 171,278.8 259.4,273.6 C324.696175,269.599194 386.744335,271.182696 434.833868,280.673288 C450.450127,283.755197 464.594428,287.670921 476.9,292.5 Z" id="Path"></path>
            <path d="M372.3,121.7 C375,159.9 345.4,235.7 263.3,235.7 C205.3,235.7 157,198.8 157,128.3 C157,57.8 198.3,11.5 266.8,11.5 C297.9,11.5 328.3,23.3 347.8,45.2 C368,68.5 372.3,92.8 372.3,121.7 Z M262.1,247.2 C348.9,247.2 410.5,196.4 410.5,118.9 C410.5,35.5 336.1,0 262.9,0 C182.3,0 118.8,48 118.8,124.1 C118.8,198.5 176,247.2 262.1,247.2 Z" id="Shape"></path>
            <path d="M0,412.2 C0,389.8 17.3,373.3 40.7,373.3 C64.1,373.3 81.4,389.7 81.4,412.2 C81.4,434.7 64.1,451.1 40.7,451.1 C17.3,451.1 0,434.6 0,412.2 Z M67.3,412.2 C67.3,396.8 56,385.6 40.7,385.6 C25.4,385.6 14.1,396.7 14.1,412.2 C14.1,427.7 25.4,438.8 40.7,438.8 C56,438.8 67.3,427.7 67.3,412.2 Z M163.5,374.4 L163.5,450 L151.9,450 L110.2,398.8 L110.2,450 L96.3,450 L96.3,374.4 L107.9,374.4 L149.6,425.6 L149.6,374.4 L163.5,374.4 Z M240.5,438.2 L240.5,450 L183.8,450 L183.8,374.4 L239,374.4 L239,386.2 L197.9,386.2 L197.9,405.9 L234.4,405.9 L234.4,417.5 L197.9,417.5 L197.9,438.3 L240.5,438.3 L240.5,438.2 Z M250.5,412.2 C250.5,389.6 267.8,373.3 291,373.3 C303.3,373.3 313.9,377.7 320.9,385.9 L311.8,394.4 C306.666371,388.6575 299.302133,385.412861 291.6,385.5 C275.9,385.5 264.6,396.5 264.6,412.1 C264.6,427.7 275.9,438.7 291.6,438.7 C299.33351,438.837559 306.730578,435.541836 311.8,429.7 L320.9,438.3 C313.9,446.5 303.3,450.9 290.9,450.9 C267.7,451.1 250.5,434.8 250.5,412.2 Z M333.1,369.9 L346.6,369.9 L346.6,450 L333.1,450 L333.1,369.9 Z M420.1,392.3 L420.1,450 L407.2,450 L407.2,442.7 C402.9,448 396.1,450.8 388.6,450.8 C373.8,450.8 363.8,442.7 363.8,425.3 L363.8,392.4 L377.3,392.4 L377.3,423.5 C377.3,434 382.3,438.9 390.8,438.9 C400.2,438.9 406.6,433.1 406.6,421.5 L406.6,392.3 L420.1,392.3 Z M499.1,421.2 C499.1,439.1 486.7,450.8 469.8,450.8 C461.9,450.8 455.2,448.1 450.7,442.6 L450.7,450.1 L437.8,450.1 L437.8,370 L451.3,370 L451.3,399.5 C455.9,394.3 462.4,391.8 469.8,391.8 C486.6,391.7 499.1,403.2 499.1,421.2 L499.1,421.2 Z M485.4,421.2 C485.4,410.2 478.1,403.2 468.3,403.2 C458.5,403.2 451.1,410.2 451.1,421.2 C451.1,432.2 458.6,439.2 468.3,439.2 C478,439.2 485.4,432.2 485.4,421.2 Z" id="Shape"></path>
        </g>
    </g>
</svg>