<?xml version="1.0" encoding="UTF-8"?>
<svg width="249px" height="225px" viewBox="0 0 249 225" version="1.1" xmlns="http://www.w3.org/2000/svg" xmlns:xlink="http://www.w3.org/1999/xlink">
    <title>oneclub-logo-small</title>
    <defs>
        <linearGradient x1="0.000169849535%" y1="50.0075426%" x2="99.999469%" y2="50.0075426%" id="linearGradient-1">
            <stop stop-color="#D21036" offset="0%"></stop>
            <stop stop-color="#D01135" offset="53%"></stop>
            <stop stop-color="#C81334" offset="73%"></stop>
            <stop stop-color="#BC1631" offset="86%"></stop>
            <stop stop-color="#AB182C" offset="97%"></stop>
            <stop stop-color="#A5182B" offset="100%"></stop>
        </linearGradient>
    </defs>
    <g id="Page-1" stroke="none" stroke-width="1" fill="none" fill-rule="evenodd">
        <g id="Original_logo_small" transform="translate(0.000000, -226.000000)" fill-rule="nonzero">
            <g id="oneclub-logo-small" transform="translate(0.000000, 226.000000)">
                <path d="M142.86345,21.1493299 C132.5,23.3892789 121.583162,24.8328015 111.068789,26.2763242 L109.911704,26.4256541 L109.911704,29.6113593 L110.414784,29.6611359 C117.960986,30.2584556 121.482546,33.5437141 121.482546,40.0146777 L121.482546,81.976388 C121.482546,90.0899809 119.319302,95.2169751 108.553388,95.7147415 L108,95.7147415 L108,99 L132.5,98.5022336 L157,99 L157,95.7645182 L156.446612,95.7645182 C145.680698,95.3165284 143.517454,90.1895341 143.517454,82.0261646 L143.517454,21 L142.86345,21.1493299 Z" id="Path" fill="#9D9D9C"></path>
                <path d="M237.872314,146.385931 C242.1538,148.071204 242.104015,150.995647 237.324682,153.226155 C232.44578,155.506229 223.982377,153.424422 217.709503,152.383519 C194.061761,148.418172 165.385762,146.038964 127.698729,147.922503 C86.3276267,149.954744 54.7143295,153.573123 21.0100741,159.620277 C12.4471023,161.156849 12.1981787,157.637603 17.7242826,156.051464 C51.6774616,146.237231 85.5808559,139.595275 129.590548,137.017799 C172.654331,134.390757 212.880385,136.621265 237.872314,146.385931 Z" id="Path" fill="url(#linearGradient-1)"></path>
                <path d="M186.011313,60.5546117 C187.353445,79.5618932 172.639698,117.277913 131.828934,117.277913 C102.997943,117.277913 78.988687,98.9174757 78.988687,63.8385922 C78.988687,28.7597087 99.5183408,5.72208738 133.568735,5.72208738 C149.028111,5.72208738 164.139527,11.5934466 173.832705,22.4902913 C183.873843,34.0837379 186.011313,46.1747573 186.011313,60.5546117 Z M131.232431,123 C174.379499,123 205,97.723301 205,59.1614078 C205,17.663835 168.016798,0 131.630099,0 C91.564964,0 60,23.8834951 60,61.7487864 C60,98.7682039 88.4333219,123 131.232431,123 Z" id="Shape" fill="#000000"></path>
                <path d="M0,205.358374 C0,194.04803 8.63093568,185.716749 20.3051493,185.716749 C31.9793629,185.716749 40.6102985,193.997537 40.6102985,205.358374 C40.6102985,216.719212 31.9793629,225 20.3051493,225 C8.63093568,225 0,216.668719 0,205.358374 Z M33.5758365,205.358374 C33.5758365,197.582512 27.9382889,191.92734 20.3051493,191.92734 C12.6720096,191.92734 7.03446203,197.53202 7.03446203,205.358374 C7.03446203,213.184729 12.6720096,218.789409 20.3051493,218.789409 C27.9382889,218.789409 33.5758365,213.184729 33.5758365,205.358374 Z M81.5698257,186.272167 L81.5698257,224.444581 L75.7826087,224.444581 L54.9785614,198.592365 L54.9785614,224.444581 L48.043879,224.444581 L48.043879,186.272167 L53.831096,186.272167 L74.6351433,212.124384 L74.6351433,186.272167 L81.5698257,186.272167 Z M119.984973,218.486453 L119.984973,224.444581 L91.6974554,224.444581 L91.6974554,186.272167 L119.236626,186.272167 L119.236626,192.230296 L98.7319175,192.230296 L98.7319175,202.17734 L116.941695,202.17734 L116.941695,208.034483 L98.7319175,208.034483 L98.7319175,218.536946 L119.984973,218.536946 L119.984973,218.486453 Z M124.973953,205.358374 C124.973953,193.947044 133.604889,185.716749 145.179323,185.716749 C151.315768,185.716749 156.604087,187.938424 160.096373,192.078818 L155.556402,196.37069 C152.995244,193.471152 149.321241,191.832849 145.478662,191.876847 C137.645963,191.876847 132.008415,197.431034 132.008415,205.307882 C132.008415,213.184729 137.645963,218.738916 145.478662,218.738916 C149.336894,218.808374 153.027277,217.144277 155.556402,214.194581 L160.096373,218.536946 C156.604087,222.67734 151.315768,224.899015 145.129433,224.899015 C133.554999,225 124.973953,216.769704 124.973953,205.358374 Z M166.182929,184 L172.918052,184 L172.918052,224.444581 L166.182929,224.444581 L166.182929,184 Z M209.587057,195.310345 L209.587057,224.444581 L203.151272,224.444581 L203.151272,220.758621 C201.006011,223.434729 197.613504,224.848522 193.871769,224.848522 C186.488079,224.848522 181.499098,220.758621 181.499098,211.972906 L181.499098,195.360837 L188.234222,195.360837 L188.234222,211.064039 C188.234222,216.365764 190.728712,218.839901 194.969345,218.839901 C199.658986,218.839901 202.851933,215.91133 202.851933,210.054187 L202.851933,195.310345 L209.587057,195.310345 Z M249,209.902709 C249,218.940887 242.813665,224.848522 234.382288,224.848522 C230.440994,224.848522 227.098377,223.485222 224.853336,220.708128 L224.853336,224.495074 L218.417552,224.495074 L218.417552,184.050493 L225.152675,184.050493 L225.152675,198.945813 C227.447606,196.320197 230.690443,195.057882 234.382288,195.057882 C242.763775,195.007389 249,200.814039 249,209.902709 L249,209.902709 Z M242.165097,209.902709 C242.165097,204.348522 238.523142,200.814039 233.633941,200.814039 C228.744741,200.814039 225.052895,204.348522 225.052895,209.902709 C225.052895,215.456897 228.79463,218.991379 233.633941,218.991379 C238.473252,218.991379 242.165097,215.456897 242.165097,209.902709 Z" id="Shape" fill="#3C3C3B"></path>
            </g>
        </g>
    </g>
</svg>