<?xml version="1.0" encoding="UTF-8"?>
<svg width="800px" height="520px" viewBox="0 0 800 520" version="1.1" xmlns="http://www.w3.org/2000/svg" xmlns:xlink="http://www.w3.org/1999/xlink">
    <title>personal_design_top</title>
    <g id="personal_design_top" stroke="none" stroke-width="1" fill="none" fill-rule="evenodd">
        <g id="Group-2" transform="translate(-162.000000, -43.369133)">
            <rect id="Rectangle" fill="#252424" x="0" y="43.3691333" width="962" height="519"></rect>
            <rect id="Rectangle-Copy-2" fill="#252424" x="1" y="42.3691333" width="962" height="519"></rect>
            <g id="ovals" opacity="0.401516869" transform="translate(724.378807, 142.193787) rotate(43.000000) translate(-724.378807, -142.193787) translate(661.886340, 111.603069)" fill="#FFFFFF">
                <g id="Group-4">
                    <g id="White-oval" transform="translate(0.000000, 0.000000)">
                        <ellipse id="Oval" cx="0.874020513" cy="0.769868326" rx="1" ry="1"></ellipse>
                    </g>
                    <g id="White-oval-Copy" transform="translate(0.000000, 11.928340)">
                        <ellipse id="Oval" cx="0.874020513" cy="0.769868326" rx="1" ry="1"></ellipse>
                    </g>
                    <g id="White-oval-Copy-2" transform="translate(0.000000, 23.856680)">
                        <ellipse id="Oval" cx="0.874020513" cy="0.769868326" rx="1" ry="1"></ellipse>
                    </g>
                    <g id="White-oval-Copy-3" transform="translate(0.000000, 35.785020)">
                        <ellipse id="Oval" cx="0.874020513" cy="0.769868326" rx="1" ry="1"></ellipse>
                    </g>
                    <g id="White-oval-Copy-4" transform="translate(0.000000, 47.713359)">
                        <ellipse id="Oval" cx="0.874020513" cy="0.769868326" rx="1" ry="1"></ellipse>
                    </g>
                    <g id="White-oval-Copy-5" transform="translate(0.000000, 59.641699)">
                        <ellipse id="Oval" cx="0.874020513" cy="0.769868326" rx="1" ry="1"></ellipse>
                    </g>
                </g>
                <g id="Group-4-Copy-2" transform="translate(8.740205, 0.000000)">
                    <g id="White-oval">
                        <ellipse id="Oval" cx="0.874020513" cy="0.76957781" rx="1" ry="1"></ellipse>
                    </g>
                    <g id="White-oval-Copy" transform="translate(0.000000, 11.928456)">
                        <ellipse id="Oval" cx="0.874020513" cy="0.76957781" rx="1" ry="1"></ellipse>
                    </g>
                    <g id="White-oval-Copy-2" transform="translate(0.000000, 23.856912)">
                        <ellipse id="Oval" cx="0.874020513" cy="0.76957781" rx="1" ry="1"></ellipse>
                    </g>
                    <g id="White-oval-Copy-3" transform="translate(0.000000, 35.785368)">
                        <ellipse id="Oval" cx="0.874020513" cy="0.76957781" rx="1" ry="1"></ellipse>
                    </g>
                    <g id="White-oval-Copy-4" transform="translate(0.000000, 47.713824)">
                        <ellipse id="Oval" cx="0.874020513" cy="0.76957781" rx="1" ry="1"></ellipse>
                    </g>
                    <g id="White-oval-Copy-5" transform="translate(0.000000, 59.642280)">
                        <ellipse id="Oval" cx="0.874020513" cy="0.76957781" rx="1" ry="1"></ellipse>
                    </g>
                </g>
                <g id="Group-4-Copy-3" transform="translate(17.480410, 0.000000)">
                    <g id="White-oval">
                        <ellipse id="Oval" cx="0.874020513" cy="0.76957781" rx="1" ry="1"></ellipse>
                    </g>
                    <g id="White-oval-Copy" transform="translate(0.000000, 11.928456)">
                        <ellipse id="Oval" cx="0.874020513" cy="0.76957781" rx="1" ry="1"></ellipse>
                    </g>
                    <g id="White-oval-Copy-2" transform="translate(0.000000, 23.856912)">
                        <ellipse id="Oval" cx="0.874020513" cy="0.76957781" rx="1" ry="1"></ellipse>
                    </g>
                    <g id="White-oval-Copy-3" transform="translate(0.000000, 35.785368)">
                        <ellipse id="Oval" cx="0.874020513" cy="0.76957781" rx="1" ry="1"></ellipse>
                    </g>
                    <g id="White-oval-Copy-4" transform="translate(0.000000, 47.713824)">
                        <ellipse id="Oval" cx="0.874020513" cy="0.76957781" rx="1" ry="1"></ellipse>
                    </g>
                    <g id="White-oval-Copy-5" transform="translate(0.000000, 59.642280)">
                        <ellipse id="Oval" cx="0.874020513" cy="0.76957781" rx="1" ry="1"></ellipse>
                    </g>
                </g>
                <g id="Group-4-Copy-4" transform="translate(26.220615, 0.000000)">
                    <g id="White-oval" transform="translate(0.000000, 0.000000)">
                        <ellipse id="Oval" cx="0.874020513" cy="0.769868326" rx="1" ry="1"></ellipse>
                    </g>
                    <g id="White-oval-Copy" transform="translate(0.000000, 11.928340)">
                        <ellipse id="Oval" cx="0.874020513" cy="0.769868326" rx="1" ry="1"></ellipse>
                    </g>
                    <g id="White-oval-Copy-2" transform="translate(0.000000, 23.856680)">
                        <ellipse id="Oval" cx="0.874020513" cy="0.769868326" rx="1" ry="1"></ellipse>
                    </g>
                    <g id="White-oval-Copy-3" transform="translate(0.000000, 35.785020)">
                        <ellipse id="Oval" cx="0.874020513" cy="0.769868326" rx="1" ry="1"></ellipse>
                    </g>
                    <g id="White-oval-Copy-4" transform="translate(0.000000, 47.713359)">
                        <ellipse id="Oval" cx="0.874020513" cy="0.769868326" rx="1" ry="1"></ellipse>
                    </g>
                    <g id="White-oval-Copy-5" transform="translate(0.000000, 59.641699)">
                        <ellipse id="Oval" cx="0.874020513" cy="0.769868326" rx="1" ry="1"></ellipse>
                    </g>
                </g>
                <g id="Group-4-Copy-5" transform="translate(35.834841, 0.000000)">
                    <g id="White-oval">
                        <ellipse id="Oval" cx="0.874020513" cy="0.769868326" rx="1" ry="1"></ellipse>
                    </g>
                    <g id="White-oval-Copy" transform="translate(0.000000, 11.928340)">
                        <ellipse id="Oval" cx="0.874020513" cy="0.769868326" rx="1" ry="1"></ellipse>
                    </g>
                    <g id="White-oval-Copy-2" transform="translate(0.000000, 23.856680)">
                        <ellipse id="Oval" cx="0.874020513" cy="0.769868326" rx="1" ry="1"></ellipse>
                    </g>
                    <g id="White-oval-Copy-3" transform="translate(0.000000, 35.785020)">
                        <ellipse id="Oval" cx="0.874020513" cy="0.769868326" rx="1" ry="1"></ellipse>
                    </g>
                    <g id="White-oval-Copy-4" transform="translate(0.000000, 47.713359)">
                        <ellipse id="Oval" cx="0.874020513" cy="0.769868326" rx="1" ry="1"></ellipse>
                    </g>
                    <g id="White-oval-Copy-5" transform="translate(0.000000, 59.641699)">
                        <ellipse id="Oval" cx="0.874020513" cy="0.769868326" rx="1" ry="1"></ellipse>
                    </g>
                </g>
                <g id="Group-4-Copy-6" transform="translate(44.575046, 0.000000)">
                    <g id="White-oval">
                        <ellipse id="Oval" cx="0.874020513" cy="0.769868326" rx="1" ry="1"></ellipse>
                    </g>
                    <g id="White-oval-Copy" transform="translate(-0.000000, 11.928340)">
                        <ellipse id="Oval" cx="0.874020513" cy="0.769868326" rx="1" ry="1"></ellipse>
                    </g>
                    <g id="White-oval-Copy-2" transform="translate(0.000000, 23.856680)">
                        <ellipse id="Oval" cx="0.874020513" cy="0.769868326" rx="1" ry="1"></ellipse>
                    </g>
                    <g id="White-oval-Copy-3" transform="translate(0.000000, 35.785020)">
                        <ellipse id="Oval" cx="0.874020513" cy="0.769868326" rx="1" ry="1"></ellipse>
                    </g>
                    <g id="White-oval-Copy-4" transform="translate(0.000000, 47.713359)">
                        <ellipse id="Oval" cx="0.874020513" cy="0.769868326" rx="1" ry="1"></ellipse>
                    </g>
                    <g id="White-oval-Copy-5" transform="translate(0.000000, 59.641699)">
                        <ellipse id="Oval" cx="0.874020513" cy="0.769868326" rx="1" ry="1"></ellipse>
                    </g>
                </g>
                <g id="Group-4-Copy-7" transform="translate(53.315251, 0.000000)">
                    <g id="White-oval">
                        <ellipse id="Oval" cx="0.874020513" cy="0.76957781" rx="1" ry="1"></ellipse>
                    </g>
                    <g id="White-oval-Copy" transform="translate(-0.000000, 11.928456)">
                        <ellipse id="Oval" cx="0.874020513" cy="0.76957781" rx="1" ry="1"></ellipse>
                    </g>
                    <g id="White-oval-Copy-2" transform="translate(-0.000000, 23.856912)">
                        <ellipse id="Oval" cx="0.874020513" cy="0.76957781" rx="1" ry="1"></ellipse>
                    </g>
                    <g id="White-oval-Copy-3" transform="translate(0.000000, 35.785368)">
                        <ellipse id="Oval" cx="0.874020513" cy="0.76957781" rx="1" ry="1"></ellipse>
                    </g>
                    <g id="White-oval-Copy-4" transform="translate(-0.000000, 47.713824)">
                        <ellipse id="Oval" cx="0.874020513" cy="0.76957781" rx="1" ry="1"></ellipse>
                    </g>
                    <g id="White-oval-Copy-5" transform="translate(0.000000, 59.642280)">
                        <ellipse id="Oval" cx="0.874020513" cy="0.76957781" rx="1" ry="1"></ellipse>
                    </g>
                </g>
                <g id="Group-4-Copy-8" transform="translate(62.929477, 0.000000)">
                    <g id="White-oval">
                        <ellipse id="Oval" cx="0.874020513" cy="0.769868326" rx="1" ry="1"></ellipse>
                    </g>
                    <g id="White-oval-Copy" transform="translate(0.000000, 11.928340)">
                        <ellipse id="Oval" cx="0.874020513" cy="0.769868326" rx="1" ry="1"></ellipse>
                    </g>
                    <g id="White-oval-Copy-2" transform="translate(0.000000, 23.856680)">
                        <ellipse id="Oval" cx="0.874020513" cy="0.769868326" rx="1" ry="1"></ellipse>
                    </g>
                    <g id="White-oval-Copy-3" transform="translate(0.000000, 35.785020)">
                        <ellipse id="Oval" cx="0.874020513" cy="0.769868326" rx="1" ry="1"></ellipse>
                    </g>
                    <g id="White-oval-Copy-4" transform="translate(0.000000, 47.713359)">
                        <ellipse id="Oval" cx="0.874020513" cy="0.769868326" rx="1" ry="1"></ellipse>
                    </g>
                    <g id="White-oval-Copy-5" transform="translate(0.000000, 59.641699)">
                        <ellipse id="Oval" cx="0.874020513" cy="0.769868326" rx="1" ry="1"></ellipse>
                    </g>
                </g>
                <g id="Group-4-Copy-9" transform="translate(70.795662, 0.000000)">
                    <g id="White-oval" transform="translate(0.000000, 0.000000)">
                        <ellipse id="Oval" cx="0.874020513" cy="0.769868326" rx="1" ry="1"></ellipse>
                    </g>
                    <g id="White-oval-Copy" transform="translate(0.000000, 11.928340)">
                        <ellipse id="Oval" cx="0.874020513" cy="0.769868326" rx="1" ry="1"></ellipse>
                    </g>
                    <g id="White-oval-Copy-2" transform="translate(0.000000, 23.856680)">
                        <ellipse id="Oval" cx="0.874020513" cy="0.769868326" rx="1" ry="1"></ellipse>
                    </g>
                    <g id="White-oval-Copy-3" transform="translate(0.000000, 35.785020)">
                        <ellipse id="Oval" cx="0.874020513" cy="0.769868326" rx="1" ry="1"></ellipse>
                    </g>
                    <g id="White-oval-Copy-4" transform="translate(0.000000, 47.713359)">
                        <ellipse id="Oval" cx="0.874020513" cy="0.769868326" rx="1" ry="1"></ellipse>
                    </g>
                    <g id="White-oval-Copy-5" transform="translate(0.000000, 59.641699)">
                        <ellipse id="Oval" cx="0.874020513" cy="0.769868326" rx="1" ry="1"></ellipse>
                    </g>
                </g>
                <g id="Group-4-Copy-10" transform="translate(80.409887, 0.000000)">
                    <g id="White-oval">
                        <ellipse id="Oval" cx="0.874020513" cy="0.769868326" rx="1" ry="1"></ellipse>
                    </g>
                    <g id="White-oval-Copy" transform="translate(0.000000, 11.928340)">
                        <ellipse id="Oval" cx="0.874020513" cy="0.769868326" rx="1" ry="1"></ellipse>
                    </g>
                    <g id="White-oval-Copy-2" transform="translate(0.000000, 23.856680)">
                        <ellipse id="Oval" cx="0.874020513" cy="0.769868326" rx="1" ry="1"></ellipse>
                    </g>
                    <g id="White-oval-Copy-3" transform="translate(0.000000, 35.785020)">
                        <ellipse id="Oval" cx="0.874020513" cy="0.769868326" rx="1" ry="1"></ellipse>
                    </g>
                    <g id="White-oval-Copy-4" transform="translate(0.000000, 47.713359)">
                        <ellipse id="Oval" cx="0.874020513" cy="0.769868326" rx="1" ry="1"></ellipse>
                    </g>
                    <g id="White-oval-Copy-5" transform="translate(0.000000, 59.641699)">
                        <ellipse id="Oval" cx="0.874020513" cy="0.769868326" rx="1" ry="1"></ellipse>
                    </g>
                </g>
                <g id="Group-4-Copy-11" transform="translate(87.402051, 0.000000)">
                    <g id="White-oval">
                        <ellipse id="Oval" cx="0.874020513" cy="0.76957781" rx="1" ry="1"></ellipse>
                    </g>
                    <g id="White-oval-Copy" transform="translate(0.000000, 11.928456)">
                        <ellipse id="Oval" cx="0.874020513" cy="0.76957781" rx="1" ry="1"></ellipse>
                    </g>
                    <g id="White-oval-Copy-2" transform="translate(0.000000, 23.856912)">
                        <ellipse id="Oval" cx="0.874020513" cy="0.76957781" rx="1" ry="1"></ellipse>
                    </g>
                    <g id="White-oval-Copy-3" transform="translate(0.000000, 35.785368)">
                        <ellipse id="Oval" cx="0.874020513" cy="0.76957781" rx="1" ry="1"></ellipse>
                    </g>
                    <g id="White-oval-Copy-4" transform="translate(0.000000, 47.713824)">
                        <ellipse id="Oval" cx="0.874020513" cy="0.76957781" rx="1" ry="1"></ellipse>
                    </g>
                    <g id="White-oval-Copy-5" transform="translate(0.000000, 59.642280)">
                        <ellipse id="Oval" cx="0.874020513" cy="0.76957781" rx="1" ry="1"></ellipse>
                    </g>
                </g>
                <g id="Group-4-Copy-12" transform="translate(97.016277, 0.000000)">
                    <g id="White-oval">
                        <ellipse id="Oval" cx="0.874020513" cy="0.76957781" rx="1" ry="1"></ellipse>
                    </g>
                    <g id="White-oval-Copy" transform="translate(0.000000, 11.928456)">
                        <ellipse id="Oval" cx="0.874020513" cy="0.76957781" rx="1" ry="1"></ellipse>
                    </g>
                    <g id="White-oval-Copy-2" transform="translate(0.000000, 23.856912)">
                        <ellipse id="Oval" cx="0.874020513" cy="0.76957781" rx="1" ry="1"></ellipse>
                    </g>
                    <g id="White-oval-Copy-3" transform="translate(0.000000, 35.785368)">
                        <ellipse id="Oval" cx="0.874020513" cy="0.76957781" rx="1" ry="1"></ellipse>
                    </g>
                    <g id="White-oval-Copy-4" transform="translate(0.000000, 47.713824)">
                        <ellipse id="Oval" cx="0.874020513" cy="0.76957781" rx="1" ry="1"></ellipse>
                    </g>
                    <g id="White-oval-Copy-5" transform="translate(0.000000, 59.642280)">
                        <ellipse id="Oval" cx="0.874020513" cy="0.76957781" rx="1" ry="1"></ellipse>
                    </g>
                </g>
                <g id="Group-4-Copy-13" transform="translate(105.756482, 0.000000)">
                    <g id="White-oval">
                        <ellipse id="Oval" cx="0.874020513" cy="0.76957781" rx="1" ry="1"></ellipse>
                    </g>
                    <g id="White-oval-Copy" transform="translate(0.000000, 11.928456)">
                        <ellipse id="Oval" cx="0.874020513" cy="0.76957781" rx="1" ry="1"></ellipse>
                    </g>
                    <g id="White-oval-Copy-2" transform="translate(0.000000, 23.856912)">
                        <ellipse id="Oval" cx="0.874020513" cy="0.76957781" rx="1" ry="1"></ellipse>
                    </g>
                    <g id="White-oval-Copy-3" transform="translate(0.000000, 35.785368)">
                        <ellipse id="Oval" cx="0.874020513" cy="0.76957781" rx="1" ry="1"></ellipse>
                    </g>
                    <g id="White-oval-Copy-4" transform="translate(0.000000, 47.713824)">
                        <ellipse id="Oval" cx="0.874020513" cy="0.76957781" rx="1" ry="1"></ellipse>
                    </g>
                    <g id="White-oval-Copy-5" transform="translate(0.000000, 59.642280)">
                        <ellipse id="Oval" cx="0.874020513" cy="0.76957781" rx="1" ry="1"></ellipse>
                    </g>
                </g>
                <g id="Group-4-Copy-14" transform="translate(115.370708, 0.000000)">
                    <g id="White-oval">
                        <ellipse id="Oval" cx="0.874020513" cy="0.76957781" rx="1" ry="1"></ellipse>
                    </g>
                    <g id="White-oval-Copy" transform="translate(0.000000, 11.928456)">
                        <ellipse id="Oval" cx="0.874020513" cy="0.76957781" rx="1" ry="1"></ellipse>
                    </g>
                    <g id="White-oval-Copy-2" transform="translate(0.000000, 23.856912)">
                        <ellipse id="Oval" cx="0.874020513" cy="0.76957781" rx="1" ry="1"></ellipse>
                    </g>
                    <g id="White-oval-Copy-3" transform="translate(0.000000, 35.785368)">
                        <ellipse id="Oval" cx="0.874020513" cy="0.76957781" rx="1" ry="1"></ellipse>
                    </g>
                    <g id="White-oval-Copy-4" transform="translate(0.000000, 47.713824)">
                        <ellipse id="Oval" cx="0.874020513" cy="0.76957781" rx="1" ry="1"></ellipse>
                    </g>
                    <g id="White-oval-Copy-5" transform="translate(0.000000, 59.642280)">
                        <ellipse id="Oval" cx="0.874020513" cy="0.76957781" rx="1" ry="1"></ellipse>
                    </g>
                </g>
                <g id="Group-4-Copy-15" transform="translate(123.236892, 0.000000)">
                    <g id="White-oval">
                        <ellipse id="Oval" cx="0.874020513" cy="0.76957781" rx="1" ry="1"></ellipse>
                    </g>
                    <g id="White-oval-Copy" transform="translate(0.000000, 11.928456)">
                        <ellipse id="Oval" cx="0.874020513" cy="0.76957781" rx="1" ry="1"></ellipse>
                    </g>
                    <g id="White-oval-Copy-2" transform="translate(0.000000, 23.856912)">
                        <ellipse id="Oval" cx="0.874020513" cy="0.76957781" rx="1" ry="1"></ellipse>
                    </g>
                    <g id="White-oval-Copy-3" transform="translate(0.000000, 35.785368)">
                        <ellipse id="Oval" cx="0.874020513" cy="0.76957781" rx="1" ry="1"></ellipse>
                    </g>
                    <g id="White-oval-Copy-4" transform="translate(0.000000, 47.713824)">
                        <ellipse id="Oval" cx="0.874020513" cy="0.76957781" rx="1" ry="1"></ellipse>
                    </g>
                    <g id="White-oval-Copy-5" transform="translate(0.000000, 59.642280)">
                        <ellipse id="Oval" cx="0.874020513" cy="0.76957781" rx="1" ry="1"></ellipse>
                    </g>
                </g>
            </g>
            <g id="ovals-copy" opacity="0.404170445" transform="translate(850.500000, 414.869133) rotate(90.000000) translate(-850.500000, -414.869133) translate(767.000000, 363.369133)" fill="#FFFFFF">
                <g id="Group-4" transform="translate(-0.000000, 0.434599)">
                    <g id="White-oval">
                        <ellipse id="Oval" cx="1.31151832" cy="1.29061785" rx="1.31151832" ry="1.29061785"></ellipse>
                    </g>
                    <g id="White-oval-Copy" transform="translate(0.000000, 19.996833)">
                        <ellipse id="Oval" cx="1.31151832" cy="1.29061785" rx="1.31151832" ry="1.29061785"></ellipse>
                    </g>
                    <g id="White-oval-Copy-2" transform="translate(0.000000, 39.993666)">
                        <ellipse id="Oval" cx="1.31151832" cy="1.29061785" rx="1.31151832" ry="1.29061785"></ellipse>
                    </g>
                    <g id="White-oval-Copy-3" transform="translate(0.000000, 59.990499)">
                        <ellipse id="Oval" cx="1.31151832" cy="1.29061785" rx="1.31151832" ry="1.29061785"></ellipse>
                    </g>
                    <g id="White-oval-Copy-4" transform="translate(0.000000, 79.987332)">
                        <ellipse id="Oval" cx="1.31151832" cy="1.29061785" rx="1.31151832" ry="1.29061785"></ellipse>
                    </g>
                    <g id="White-oval-Copy-5" transform="translate(0.000000, 99.984165)">
                        <ellipse id="Oval" cx="1.31151832" cy="1.29061785" rx="1.31151832" ry="1.29061785"></ellipse>
                    </g>
                </g>
                <g id="Group-4-Copy-2" transform="translate(12.678010, 0.000000)">
                    <g id="White-oval">
                        <ellipse id="Oval" cx="0.87434555" cy="1.29013083" rx="1" ry="1.29013083"></ellipse>
                    </g>
                    <g id="White-oval-Copy" transform="translate(0.000000, 19.997028)">
                        <ellipse id="Oval" cx="0.87434555" cy="1.29013083" rx="1" ry="1.29013083"></ellipse>
                    </g>
                    <g id="White-oval-Copy-2" transform="translate(0.000000, 39.994056)">
                        <ellipse id="Oval" cx="0.87434555" cy="1.29013083" rx="1" ry="1.29013083"></ellipse>
                    </g>
                    <g id="White-oval-Copy-3" transform="translate(0.000000, 59.991084)">
                        <ellipse id="Oval" cx="0.87434555" cy="1.29013083" rx="1" ry="1.29013083"></ellipse>
                    </g>
                    <g id="White-oval-Copy-4" transform="translate(0.000000, 79.988111)">
                        <ellipse id="Oval" cx="0.87434555" cy="1.29013083" rx="1" ry="1.29013083"></ellipse>
                    </g>
                    <g id="White-oval-Copy-5" transform="translate(0.000000, 99.985139)">
                        <ellipse id="Oval" cx="0.87434555" cy="1.29013083" rx="1" ry="1.29013083"></ellipse>
                    </g>
                </g>
                <g id="Group-4-Copy-3" transform="translate(23.607330, 0.434599)">
                    <g id="White-oval">
                        <ellipse id="Oval" cx="1.31151832" cy="1.29013083" rx="1.31151832" ry="1.29013083"></ellipse>
                    </g>
                    <g id="White-oval-Copy" transform="translate(0.000000, 19.997028)">
                        <ellipse id="Oval" cx="1.31151832" cy="1.29013083" rx="1.31151832" ry="1.29013083"></ellipse>
                    </g>
                    <g id="White-oval-Copy-2" transform="translate(0.000000, 39.994056)">
                        <ellipse id="Oval" cx="1.31151832" cy="1.29013083" rx="1.31151832" ry="1.29013083"></ellipse>
                    </g>
                    <g id="White-oval-Copy-3" transform="translate(0.000000, 59.991084)">
                        <ellipse id="Oval" cx="1.31151832" cy="1.29013083" rx="1.31151832" ry="1.29013083"></ellipse>
                    </g>
                    <g id="White-oval-Copy-4" transform="translate(0.000000, 79.988111)">
                        <ellipse id="Oval" cx="1.31151832" cy="1.29013083" rx="1.31151832" ry="1.29013083"></ellipse>
                    </g>
                    <g id="White-oval-Copy-5" transform="translate(0.000000, 99.985139)">
                        <ellipse id="Oval" cx="1.31151832" cy="1.29013083" rx="1.31151832" ry="1.29013083"></ellipse>
                    </g>
                </g>
                <g id="Group-4-Copy-4" transform="translate(34.099476, 0.434599)">
                    <g id="White-oval">
                        <ellipse id="Oval" cx="1.31151832" cy="1.29061785" rx="1.31151832" ry="1.29061785"></ellipse>
                    </g>
                    <g id="White-oval-Copy" transform="translate(0.000000, 19.996833)">
                        <ellipse id="Oval" cx="1.31151832" cy="1.29061785" rx="1.31151832" ry="1.29061785"></ellipse>
                    </g>
                    <g id="White-oval-Copy-2" transform="translate(0.000000, 39.993666)">
                        <ellipse id="Oval" cx="1.31151832" cy="1.29061785" rx="1.31151832" ry="1.29061785"></ellipse>
                    </g>
                    <g id="White-oval-Copy-3" transform="translate(0.000000, 59.990499)">
                        <ellipse id="Oval" cx="1.31151832" cy="1.29061785" rx="1.31151832" ry="1.29061785"></ellipse>
                    </g>
                    <g id="White-oval-Copy-4" transform="translate(0.000000, 79.987332)">
                        <ellipse id="Oval" cx="1.31151832" cy="1.29061785" rx="1.31151832" ry="1.29061785"></ellipse>
                    </g>
                    <g id="White-oval-Copy-5" transform="translate(0.000000, 99.984165)">
                        <ellipse id="Oval" cx="1.31151832" cy="1.29061785" rx="1.31151832" ry="1.29061785"></ellipse>
                    </g>
                </g>
                <g id="Group-4-Copy-5" transform="translate(47.214660, 0.434599)">
                    <g id="White-oval">
                        <ellipse id="Oval" cx="1.31151832" cy="1.29061785" rx="1.31151832" ry="1.29061785"></ellipse>
                    </g>
                    <g id="White-oval-Copy" transform="translate(0.000000, 19.996833)">
                        <ellipse id="Oval" cx="1.31151832" cy="1.29061785" rx="1.31151832" ry="1.29061785"></ellipse>
                    </g>
                    <g id="White-oval-Copy-2" transform="translate(0.000000, 39.993666)">
                        <ellipse id="Oval" cx="1.31151832" cy="1.29061785" rx="1.31151832" ry="1.29061785"></ellipse>
                    </g>
                    <g id="White-oval-Copy-3" transform="translate(0.000000, 59.990499)">
                        <ellipse id="Oval" cx="1.31151832" cy="1.29061785" rx="1.31151832" ry="1.29061785"></ellipse>
                    </g>
                    <g id="White-oval-Copy-4" transform="translate(0.000000, 79.987332)">
                        <ellipse id="Oval" cx="1.31151832" cy="1.29061785" rx="1.31151832" ry="1.29061785"></ellipse>
                    </g>
                    <g id="White-oval-Copy-5" transform="translate(0.000000, 99.984165)">
                        <ellipse id="Oval" cx="1.31151832" cy="1.29061785" rx="1.31151832" ry="1.29061785"></ellipse>
                    </g>
                </g>
                <g id="Group-4-Copy-6" transform="translate(60.329843, 0.434599)">
                    <g id="White-oval">
                        <ellipse id="Oval" cx="1.31151832" cy="1.29061785" rx="1.31151832" ry="1.29061785"></ellipse>
                    </g>
                    <g id="White-oval-Copy" transform="translate(0.000000, 19.996833)">
                        <ellipse id="Oval" cx="1.31151832" cy="1.29061785" rx="1.31151832" ry="1.29061785"></ellipse>
                    </g>
                    <g id="White-oval-Copy-2" transform="translate(0.000000, 39.993666)">
                        <ellipse id="Oval" cx="1.31151832" cy="1.29061785" rx="1.31151832" ry="1.29061785"></ellipse>
                    </g>
                    <g id="White-oval-Copy-3" transform="translate(0.000000, 59.990499)">
                        <ellipse id="Oval" cx="1.31151832" cy="1.29061785" rx="1.31151832" ry="1.29061785"></ellipse>
                    </g>
                    <g id="White-oval-Copy-4" transform="translate(0.000000, 79.987332)">
                        <ellipse id="Oval" cx="1.31151832" cy="1.29061785" rx="1.31151832" ry="1.29061785"></ellipse>
                    </g>
                    <g id="White-oval-Copy-5" transform="translate(0.000000, 99.984165)">
                        <ellipse id="Oval" cx="1.31151832" cy="1.29061785" rx="1.31151832" ry="1.29061785"></ellipse>
                    </g>
                </g>
                <g id="Group-4-Copy-7" transform="translate(71.259162, 0.000000)">
                    <g id="White-oval">
                        <ellipse id="Oval" cx="0.87434555" cy="1.29013083" rx="1" ry="1.29013083"></ellipse>
                    </g>
                    <g id="White-oval-Copy" transform="translate(0.000000, 19.997028)">
                        <ellipse id="Oval" cx="0.87434555" cy="1.29013083" rx="1" ry="1.29013083"></ellipse>
                    </g>
                    <g id="White-oval-Copy-2" transform="translate(0.000000, 39.994056)">
                        <ellipse id="Oval" cx="0.87434555" cy="1.29013083" rx="1" ry="1.29013083"></ellipse>
                    </g>
                    <g id="White-oval-Copy-3" transform="translate(0.000000, 59.991084)">
                        <ellipse id="Oval" cx="0.87434555" cy="1.29013083" rx="1" ry="1.29013083"></ellipse>
                    </g>
                    <g id="White-oval-Copy-4" transform="translate(0.000000, 79.988111)">
                        <ellipse id="Oval" cx="0.87434555" cy="1.29013083" rx="1" ry="1.29013083"></ellipse>
                    </g>
                    <g id="White-oval-Copy-5" transform="translate(0.000000, 99.985139)">
                        <ellipse id="Oval" cx="0.87434555" cy="1.29013083" rx="1" ry="1.29013083"></ellipse>
                    </g>
                </g>
                <g id="Group-4-Copy-8" transform="translate(83.937173, 0.434599)">
                    <g id="White-oval">
                        <ellipse id="Oval" cx="1.31151832" cy="1.29061785" rx="1.31151832" ry="1.29061785"></ellipse>
                    </g>
                    <g id="White-oval-Copy" transform="translate(0.000000, 19.996833)">
                        <ellipse id="Oval" cx="1.31151832" cy="1.29061785" rx="1.31151832" ry="1.29061785"></ellipse>
                    </g>
                    <g id="White-oval-Copy-2" transform="translate(0.000000, 39.993666)">
                        <ellipse id="Oval" cx="1.31151832" cy="1.29061785" rx="1.31151832" ry="1.29061785"></ellipse>
                    </g>
                    <g id="White-oval-Copy-3" transform="translate(0.000000, 59.990499)">
                        <ellipse id="Oval" cx="1.31151832" cy="1.29061785" rx="1.31151832" ry="1.29061785"></ellipse>
                    </g>
                    <g id="White-oval-Copy-4" transform="translate(0.000000, 79.987332)">
                        <ellipse id="Oval" cx="1.31151832" cy="1.29061785" rx="1.31151832" ry="1.29061785"></ellipse>
                    </g>
                    <g id="White-oval-Copy-5" transform="translate(0.000000, 99.984165)">
                        <ellipse id="Oval" cx="1.31151832" cy="1.29061785" rx="1.31151832" ry="1.29061785"></ellipse>
                    </g>
                </g>
                <g id="Group-4-Copy-9" transform="translate(94.429319, 0.434599)">
                    <g id="White-oval">
                        <ellipse id="Oval" cx="1.31151832" cy="1.29061785" rx="1.31151832" ry="1.29061785"></ellipse>
                    </g>
                    <g id="White-oval-Copy" transform="translate(0.000000, 19.996833)">
                        <ellipse id="Oval" cx="1.31151832" cy="1.29061785" rx="1.31151832" ry="1.29061785"></ellipse>
                    </g>
                    <g id="White-oval-Copy-2" transform="translate(0.000000, 39.993666)">
                        <ellipse id="Oval" cx="1.31151832" cy="1.29061785" rx="1.31151832" ry="1.29061785"></ellipse>
                    </g>
                    <g id="White-oval-Copy-3" transform="translate(0.000000, 59.990499)">
                        <ellipse id="Oval" cx="1.31151832" cy="1.29061785" rx="1.31151832" ry="1.29061785"></ellipse>
                    </g>
                    <g id="White-oval-Copy-4" transform="translate(0.000000, 79.987332)">
                        <ellipse id="Oval" cx="1.31151832" cy="1.29061785" rx="1.31151832" ry="1.29061785"></ellipse>
                    </g>
                    <g id="White-oval-Copy-5" transform="translate(0.000000, 99.984165)">
                        <ellipse id="Oval" cx="1.31151832" cy="1.29061785" rx="1.31151832" ry="1.29061785"></ellipse>
                    </g>
                </g>
                <g id="Group-4-Copy-10" transform="translate(107.544503, 0.434599)">
                    <g id="White-oval">
                        <ellipse id="Oval" cx="1.31151832" cy="1.29061785" rx="1.31151832" ry="1.29061785"></ellipse>
                    </g>
                    <g id="White-oval-Copy" transform="translate(0.000000, 19.996833)">
                        <ellipse id="Oval" cx="1.31151832" cy="1.29061785" rx="1.31151832" ry="1.29061785"></ellipse>
                    </g>
                    <g id="White-oval-Copy-2" transform="translate(0.000000, 39.993666)">
                        <ellipse id="Oval" cx="1.31151832" cy="1.29061785" rx="1.31151832" ry="1.29061785"></ellipse>
                    </g>
                    <g id="White-oval-Copy-3" transform="translate(0.000000, 59.990499)">
                        <ellipse id="Oval" cx="1.31151832" cy="1.29061785" rx="1.31151832" ry="1.29061785"></ellipse>
                    </g>
                    <g id="White-oval-Copy-4" transform="translate(0.000000, 79.987332)">
                        <ellipse id="Oval" cx="1.31151832" cy="1.29061785" rx="1.31151832" ry="1.29061785"></ellipse>
                    </g>
                    <g id="White-oval-Copy-5" transform="translate(0.000000, 99.984165)">
                        <ellipse id="Oval" cx="1.31151832" cy="1.29061785" rx="1.31151832" ry="1.29061785"></ellipse>
                    </g>
                </g>
                <g id="Group-4-Copy-11" transform="translate(117.162304, 0.434599)">
                    <g id="White-oval">
                        <ellipse id="Oval" cx="1.31151832" cy="1.29013083" rx="1.31151832" ry="1.29013083"></ellipse>
                    </g>
                    <g id="White-oval-Copy" transform="translate(0.000000, 19.997028)">
                        <ellipse id="Oval" cx="1.31151832" cy="1.29013083" rx="1.31151832" ry="1.29013083"></ellipse>
                    </g>
                    <g id="White-oval-Copy-2" transform="translate(0.000000, 39.994056)">
                        <ellipse id="Oval" cx="1.31151832" cy="1.29013083" rx="1.31151832" ry="1.29013083"></ellipse>
                    </g>
                    <g id="White-oval-Copy-3" transform="translate(0.000000, 59.991084)">
                        <ellipse id="Oval" cx="1.31151832" cy="1.29013083" rx="1.31151832" ry="1.29013083"></ellipse>
                    </g>
                    <g id="White-oval-Copy-4" transform="translate(0.000000, 79.988111)">
                        <ellipse id="Oval" cx="1.31151832" cy="1.29013083" rx="1.31151832" ry="1.29013083"></ellipse>
                    </g>
                    <g id="White-oval-Copy-5" transform="translate(0.000000, 99.985139)">
                        <ellipse id="Oval" cx="1.31151832" cy="1.29013083" rx="1.31151832" ry="1.29013083"></ellipse>
                    </g>
                </g>
                <g id="Group-4-Copy-12" transform="translate(129.403141, 0.434599)">
                    <g id="White-oval">
                        <ellipse id="Oval" cx="1.31151832" cy="1.29013083" rx="1.31151832" ry="1.29013083"></ellipse>
                    </g>
                    <g id="White-oval-Copy" transform="translate(0.000000, 19.997028)">
                        <ellipse id="Oval" cx="1.31151832" cy="1.29013083" rx="1.31151832" ry="1.29013083"></ellipse>
                    </g>
                    <g id="White-oval-Copy-2" transform="translate(0.000000, 39.994056)">
                        <ellipse id="Oval" cx="1.31151832" cy="1.29013083" rx="1.31151832" ry="1.29013083"></ellipse>
                    </g>
                    <g id="White-oval-Copy-3" transform="translate(0.000000, 59.991084)">
                        <ellipse id="Oval" cx="1.31151832" cy="1.29013083" rx="1.31151832" ry="1.29013083"></ellipse>
                    </g>
                    <g id="White-oval-Copy-4" transform="translate(0.000000, 79.988111)">
                        <ellipse id="Oval" cx="1.31151832" cy="1.29013083" rx="1.31151832" ry="1.29013083"></ellipse>
                    </g>
                    <g id="White-oval-Copy-5" transform="translate(0.000000, 99.985139)">
                        <ellipse id="Oval" cx="1.31151832" cy="1.29013083" rx="1.31151832" ry="1.29013083"></ellipse>
                    </g>
                </g>
                <g id="Group-4-Copy-13" transform="translate(140.769634, 0.434599)">
                    <g id="White-oval">
                        <ellipse id="Oval" cx="1.31151832" cy="1.29013083" rx="1.31151832" ry="1.29013083"></ellipse>
                    </g>
                    <g id="White-oval-Copy" transform="translate(0.000000, 19.997028)">
                        <ellipse id="Oval" cx="1.31151832" cy="1.29013083" rx="1.31151832" ry="1.29013083"></ellipse>
                    </g>
                    <g id="White-oval-Copy-2" transform="translate(0.000000, 39.994056)">
                        <ellipse id="Oval" cx="1.31151832" cy="1.29013083" rx="1.31151832" ry="1.29013083"></ellipse>
                    </g>
                    <g id="White-oval-Copy-3" transform="translate(0.000000, 59.991084)">
                        <ellipse id="Oval" cx="1.31151832" cy="1.29013083" rx="1.31151832" ry="1.29013083"></ellipse>
                    </g>
                    <g id="White-oval-Copy-4" transform="translate(0.000000, 79.988111)">
                        <ellipse id="Oval" cx="1.31151832" cy="1.29013083" rx="1.31151832" ry="1.29013083"></ellipse>
                    </g>
                    <g id="White-oval-Copy-5" transform="translate(0.000000, 99.985139)">
                        <ellipse id="Oval" cx="1.31151832" cy="1.29013083" rx="1.31151832" ry="1.29013083"></ellipse>
                    </g>
                </g>
                <g id="Group-4-Copy-14" transform="translate(153.010471, 0.434599)">
                    <g id="White-oval">
                        <ellipse id="Oval" cx="1.31151832" cy="1.29013083" rx="1.31151832" ry="1.29013083"></ellipse>
                    </g>
                    <g id="White-oval-Copy" transform="translate(0.000000, 19.997028)">
                        <ellipse id="Oval" cx="1.31151832" cy="1.29013083" rx="1.31151832" ry="1.29013083"></ellipse>
                    </g>
                    <g id="White-oval-Copy-2" transform="translate(0.000000, 39.994056)">
                        <ellipse id="Oval" cx="1.31151832" cy="1.29013083" rx="1.31151832" ry="1.29013083"></ellipse>
                    </g>
                    <g id="White-oval-Copy-3" transform="translate(0.000000, 59.991084)">
                        <ellipse id="Oval" cx="1.31151832" cy="1.29013083" rx="1.31151832" ry="1.29013083"></ellipse>
                    </g>
                    <g id="White-oval-Copy-4" transform="translate(0.000000, 79.988111)">
                        <ellipse id="Oval" cx="1.31151832" cy="1.29013083" rx="1.31151832" ry="1.29013083"></ellipse>
                    </g>
                    <g id="White-oval-Copy-5" transform="translate(0.000000, 99.985139)">
                        <ellipse id="Oval" cx="1.31151832" cy="1.29013083" rx="1.31151832" ry="1.29013083"></ellipse>
                    </g>
                </g>
                <g id="Group-4-Copy-15" transform="translate(164.376963, 0.434599)">
                    <g id="White-oval">
                        <ellipse id="Oval" cx="1.31151832" cy="1.29013083" rx="1.31151832" ry="1.29013083"></ellipse>
                    </g>
                    <g id="White-oval-Copy" transform="translate(0.000000, 19.997028)">
                        <ellipse id="Oval" cx="1.31151832" cy="1.29013083" rx="1.31151832" ry="1.29013083"></ellipse>
                    </g>
                    <g id="White-oval-Copy-2" transform="translate(0.000000, 39.994056)">
                        <ellipse id="Oval" cx="1.31151832" cy="1.29013083" rx="1.31151832" ry="1.29013083"></ellipse>
                    </g>
                    <g id="White-oval-Copy-3" transform="translate(0.000000, 59.991084)">
                        <ellipse id="Oval" cx="1.31151832" cy="1.29013083" rx="1.31151832" ry="1.29013083"></ellipse>
                    </g>
                    <g id="White-oval-Copy-4" transform="translate(0.000000, 79.988111)">
                        <ellipse id="Oval" cx="1.31151832" cy="1.29013083" rx="1.31151832" ry="1.29013083"></ellipse>
                    </g>
                    <g id="White-oval-Copy-5" transform="translate(0.000000, 99.985139)">
                        <ellipse id="Oval" cx="1.31151832" cy="1.29013083" rx="1.31151832" ry="1.29013083"></ellipse>
                    </g>
                </g>
            </g>
            <circle id="Oval" stroke="#FFFFFF" stroke-width="15" opacity="0.805052984" cx="746" cy="157.369133" r="16.5"></circle>
            <circle id="Oval" fill="#FFFFFF" opacity="0.682253883" cx="799.5" cy="168.869133" r="9.5"></circle>
            <path d="M845.539882,225.434794 L845.539882,333.175604 L736.925051,333.175604 L736.925051,225.434794 L845.539882,225.434794 Z" id="Rectangle-Copy" stroke="#D2E5F9" stroke-width="12" opacity="0.199747431" transform="translate(791.232466, 279.305199) rotate(45.000000) translate(-791.232466, -279.305199) "></path>
            <path d="M618.561316,340.916331 L618.561316,519.452803 L444.394947,519.452803 L444.394947,340.916331 L618.561316,340.916331 Z" id="Rectangle-Copy-4" stroke="#D2E5F9" stroke-width="12" opacity="0.2" transform="translate(531.478132, 430.184567) rotate(45.000000) translate(-531.478132, -430.184567) "></path>
            <path d="M1080.56132,43.9163308 L1080.56132,222.452803 L906.394947,222.452803 L906.394947,43.9163308 L1080.56132,43.9163308 Z" id="Rectangle-Copy-6" stroke="#D2E5F9" stroke-width="12" opacity="0.2" transform="translate(993.478132, 133.184567) rotate(45.000000) translate(-993.478132, -133.184567) "></path>
            <g id="Group-Copy" opacity="0.803420294" transform="translate(733.912400, 323.369133)" fill="#FFFFFF">
                <polygon id="Rectangle" transform="translate(8.103746, 8.000000) rotate(45.000000) translate(-8.103746, -8.000000) " points="-1.24019359 6.03023154 17.4056113 6.24060748 17.4476865 9.96976846 -1.1981184 9.75939252"></polygon>
                <polygon id="Rectangle-Copy-3" transform="translate(8.087600, 8.029400) rotate(-44.000000) translate(-8.087600, -8.029400) " points="-1.21060696 6.26920921 17.4278559 6.05896142 17.3858064 9.78959081 -1.25265652 9.99983859"></polygon>
            </g>
            <g id="Group-Copy-2" opacity="0.803420294" transform="translate(808.912400, 53.369133)" fill="#FFFFFF">
                <polygon id="Rectangle" transform="translate(8.103746, 8.000000) rotate(45.000000) translate(-8.103746, -8.000000) " points="-1.24019359 6.03023154 17.4056113 6.24060748 17.4476865 9.96976846 -1.1981184 9.75939252"></polygon>
                <polygon id="Rectangle-Copy-3" transform="translate(8.087600, 8.029400) rotate(-44.000000) translate(-8.087600, -8.029400) " points="-1.21060696 6.26920921 17.4278559 6.05896142 17.3858064 9.78959081 -1.25265652 9.99983859"></polygon>
            </g>
            <path d="M834.697492,390.435584 L834.697492,472.829799 L749.681215,472.829799 L749.681215,390.435584 L834.697492,390.435584 Z" id="Rectangle-Copy-5" stroke="#FFFFFF" stroke-width="12" opacity="0.208868118" transform="translate(792.189353, 431.632691) rotate(45.000000) translate(-792.189353, -431.632691) "></path>
        </g>
        <path d="M24,183.079464 C25.3070437,184.167754 33.1663107,180.475658 34.647743,181.848693 C37.3457916,184.349323 33.4357207,192.204666 36.1456876,194.647799 C38.1179223,196.42584 50.3071203,184.087901 48.0677275,203.446958 C47.5479603,207.940231 60.3896398,196.307365 60.3896398,204.471356 C60.3896398,206.457838 57.50876,212.10555 60.3896398,213.217435 C63.9206076,214.580223 70.5289993,211.662528 71.0594173,212.101175 C72.3113815,213.136529 72.4234278,217.28224 71.395556,224.538307" id="Line" stroke="#FFFFFF" stroke-width="3" opacity="0.28348069" stroke-linecap="square"></path>
        <g id="Group-Copy" opacity="0.5" transform="translate(88.000000, 492.000000)" stroke="#FFFFFF" stroke-width="2">
            <circle id="Oval-Copy-4" cx="63.5" cy="65.5" r="39.5"></circle>
            <circle id="Oval-Copy-5" cx="64.5" cy="65.5" r="46.5"></circle>
            <circle id="Oval-Copy-6" cx="64.5" cy="64.5" r="56.5"></circle>
            <circle id="Oval-Copy-7" cx="64.5" cy="64.5" r="63.5"></circle>
        </g>
        <g id="Group" transform="translate(252.000000, 343.232722)" fill="#FFFFFF">
            <polygon id="Rectangle" opacity="0.794874645" transform="translate(20.541840, 20.267278) rotate(45.000000) translate(-20.541840, -20.267278) " points="-3.34115395 15.4924576 44.4255747 15.4887532 44.4248338 25.042099 -3.34189482 25.0458033"></polygon>
            <polygon id="Rectangle-Copy-3" opacity="0.79860215" transform="translate(20.500000, 20.341749) rotate(-44.000000) translate(-20.500000, -20.341749) " points="-3.38379918 15.563238 44.3830588 15.5669401 44.3837992 25.12026 -3.38305876 25.1165579"></polygon>
        </g>
        <g id="Group-Copy-3" opacity="0.5" transform="translate(-65.000000, -14.000000)" stroke="#FFFFFF">
            <circle id="Oval" cx="64.5" cy="64.5" r="11"></circle>
            <circle id="Oval-Copy" stroke-width="2" cx="64" cy="64" r="18"></circle>
            <circle id="Oval-Copy-2" stroke-width="2" cx="65" cy="65" r="25"></circle>
            <circle id="Oval-Copy-3" stroke-width="2" cx="64" cy="65" r="31"></circle>
            <circle id="Oval-Copy-4" stroke-width="2" cx="63.5" cy="65.5" r="39.5"></circle>
            <circle id="Oval-Copy-5" stroke-width="2" cx="64.5" cy="65.5" r="46.5"></circle>
            <circle id="Oval-Copy-6" stroke-width="2" cx="64.5" cy="64.5" r="56.5"></circle>
            <circle id="Oval-Copy-7" stroke-width="2" cx="64.5" cy="64.5" r="63.5"></circle>
        </g>
    </g>
</svg>