<?xml version="1.0" encoding="UTF-8"?><svg version="1.1" width="800px" height="520px" viewBox="0 0 800.0 520.0" xmlns="http://www.w3.org/2000/svg" xmlns:xlink="http://www.w3.org/1999/xlink"><defs><clipPath id="i0"><path d="M800,0 L800,520 L0,520 L0,0 L800,0 Z"></path></clipPath><clipPath id="i1"><path d="M962,0 L962,519 L0,519 L0,0 L962,0 Z"></path></clipPath><clipPath id="i2"><path d="M0.874020513,0 C1.35672871,0 1.74804103,0.34468179 1.74804103,0.769868326 C1.74804103,1.19505486 1.35672871,1.53973665 0.874020513,1.53973665 C0.391312312,1.53973665 0,1.19505486 0,0.769868326 C0,0.34468179 0.391312312,0 0.874020513,0 Z"></path></clipPath><clipPath id="i3"><path d="M0.874020513,0 C1.35672871,0 1.74804103,0.34468179 1.74804103,0.769868326 C1.74804103,1.19505486 1.35672871,1.53973665 0.874020513,1.53973665 C0.391312312,1.53973665 0,1.19505486 0,0.769868326 C0,0.34468179 0.391312312,0 0.874020513,0 Z"></path></clipPath><clipPath id="i4"><path d="M0.874020513,0 C1.35672871,0 1.74804103,0.34468179 1.74804103,0.769868326 C1.74804103,1.19505486 1.35672871,1.53973665 0.874020513,1.53973665 C0.391312312,1.53973665 0,1.19505486 0,0.769868326 C0,0.34468179 0.391312312,0 0.874020513,0 Z"></path></clipPath><clipPath id="i5"><path d="M0.874020513,0 C1.35672871,0 1.74804103,0.34468179 1.74804103,0.769868326 C1.74804103,1.19505486 1.35672871,1.53973665 0.874020513,1.53973665 C0.391312312,1.53973665 0,1.19505486 0,0.769868326 C0,0.34468179 0.391312312,0 0.874020513,0 Z"></path></clipPath><clipPath id="i6"><path d="M0.874020513,0 C1.35672871,0 1.74804103,0.344551722 1.74804103,0.76957781 C1.74804103,1.1946039 1.35672871,1.53915562 0.874020513,1.53915562 C0.391312312,1.53915562 0,1.1946039 0,0.76957781 C0,0.344551722 0.391312312,0 0.874020513,0 Z"></path></clipPath><clipPath id="i7"><path d="M0.874020513,0 C1.35672871,0 1.74804103,0.344551722 1.74804103,0.76957781 C1.74804103,1.1946039 1.35672871,1.53915562 0.874020513,1.53915562 C0.391312312,1.53915562 0,1.1946039 0,0.76957781 C0,0.344551722 0.391312312,0 0.874020513,0 Z"></path></clipPath><clipPath id="i8"><path d="M0.874020513,0 C1.35672871,0 1.74804103,0.344551722 1.74804103,0.76957781 C1.74804103,1.1946039 1.35672871,1.53915562 0.874020513,1.53915562 C0.391312312,1.53915562 0,1.1946039 0,0.76957781 C0,0.344551722 0.391312312,0 0.874020513,0 Z"></path></clipPath><clipPath id="i9"><path d="M0.874020513,0 C1.35672871,0 1.74804103,0.344551722 1.74804103,0.76957781 C1.74804103,1.1946039 1.35672871,1.53915562 0.874020513,1.53915562 C0.391312312,1.53915562 0,1.1946039 0,0.76957781 C0,0.344551722 0.391312312,0 0.874020513,0 Z"></path></clipPath><clipPath id="i10"><path d="M0.874020513,0 C1.35672871,0 1.74804103,0.344551722 1.74804103,0.76957781 C1.74804103,1.1946039 1.35672871,1.53915562 0.874020513,1.53915562 C0.391312312,1.53915562 0,1.1946039 0,0.76957781 C0,0.344551722 0.391312312,0 0.874020513,0 Z"></path></clipPath><clipPath id="i11"><path d="M0.874020513,0 C1.35672871,0 1.74804103,0.344551722 1.74804103,0.76957781 C1.74804103,1.1946039 1.35672871,1.53915562 0.874020513,1.53915562 C0.391312312,1.53915562 0,1.1946039 0,0.76957781 C0,0.344551722 0.391312312,0 0.874020513,0 Z"></path></clipPath><clipPath id="i12"><path d="M0.874020513,0 C1.35672871,0 1.74804103,0.344551722 1.74804103,0.76957781 C1.74804103,1.1946039 1.35672871,1.53915562 0.874020513,1.53915562 C0.391312312,1.53915562 0,1.1946039 0,0.76957781 C0,0.344551722 0.391312312,0 0.874020513,0 Z"></path></clipPath><clipPath id="i13"><path d="M0.874020513,0 C1.35672871,0 1.74804103,0.344551722 1.74804103,0.76957781 C1.74804103,1.1946039 1.35672871,1.53915562 0.874020513,1.53915562 C0.391312312,1.53915562 0,1.1946039 0,0.76957781 C0,0.344551722 0.391312312,0 0.874020513,0 Z"></path></clipPath><clipPath id="i14"><path d="M0.874020513,0 C1.35672871,0 1.74804103,0.344551722 1.74804103,0.76957781 C1.74804103,1.1946039 1.35672871,1.53915562 0.874020513,1.53915562 C0.391312312,1.53915562 0,1.1946039 0,0.76957781 C0,0.344551722 0.391312312,0 0.874020513,0 Z"></path></clipPath><clipPath id="i15"><path d="M0.874020513,0 C1.35672871,0 1.74804103,0.344551722 1.74804103,0.76957781 C1.74804103,1.1946039 1.35672871,1.53915562 0.874020513,1.53915562 C0.391312312,1.53915562 0,1.1946039 0,0.76957781 C0,0.344551722 0.391312312,0 0.874020513,0 Z"></path></clipPath><clipPath id="i16"><path d="M0.874020513,0 C1.35672871,0 1.74804103,0.34468179 1.74804103,0.769868326 C1.74804103,1.19505486 1.35672871,1.53973665 0.874020513,1.53973665 C0.391312312,1.53973665 0,1.19505486 0,0.769868326 C0,0.34468179 0.391312312,0 0.874020513,0 Z"></path></clipPath><clipPath id="i17"><path d="M0.874020513,0 C1.35672871,0 1.74804103,0.34468179 1.74804103,0.769868326 C1.74804103,1.19505486 1.35672871,1.53973665 0.874020513,1.53973665 C0.391312312,1.53973665 0,1.19505486 0,0.769868326 C0,0.34468179 0.391312312,0 0.874020513,0 Z"></path></clipPath><clipPath id="i18"><path d="M0.874020513,0 C1.35672871,0 1.74804103,0.34468179 1.74804103,0.769868326 C1.74804103,1.19505486 1.35672871,1.53973665 0.874020513,1.53973665 C0.391312312,1.53973665 0,1.19505486 0,0.769868326 C0,0.34468179 0.391312312,0 0.874020513,0 Z"></path></clipPath><clipPath id="i19"><path d="M0.874020513,0 C1.35672871,0 1.74804103,0.34468179 1.74804103,0.769868326 C1.74804103,1.19505486 1.35672871,1.53973665 0.874020513,1.53973665 C0.391312312,1.53973665 0,1.19505486 0,0.769868326 C0,0.34468179 0.391312312,0 0.874020513,0 Z"></path></clipPath><clipPath id="i20"><path d="M0.874020513,0 C1.35672871,0 1.74804103,0.34468179 1.74804103,0.769868326 C1.74804103,1.19505486 1.35672871,1.53973665 0.874020513,1.53973665 C0.391312312,1.53973665 0,1.19505486 0,0.769868326 C0,0.34468179 0.391312312,0 0.874020513,0 Z"></path></clipPath><clipPath id="i21"><path d="M0.874020513,0 C1.35672871,0 1.74804103,0.34468179 1.74804103,0.769868326 C1.74804103,1.19505486 1.35672871,1.53973665 0.874020513,1.53973665 C0.391312312,1.53973665 0,1.19505486 0,0.769868326 C0,0.34468179 0.391312312,0 0.874020513,0 Z"></path></clipPath><clipPath id="i22"><path d="M0.874020513,0 C1.35672871,0 1.74804103,0.34468179 1.74804103,0.769868326 C1.74804103,1.19505486 1.35672871,1.53973665 0.874020513,1.53973665 C0.391312312,1.53973665 0,1.19505486 0,0.769868326 C0,0.34468179 0.391312312,0 0.874020513,0 Z"></path></clipPath><clipPath id="i23"><path d="M0.874020513,0 C1.35672871,0 1.74804103,0.34468179 1.74804103,0.769868326 C1.74804103,1.19505486 1.35672871,1.53973665 0.874020513,1.53973665 C0.391312312,1.53973665 0,1.19505486 0,0.769868326 C0,0.34468179 0.391312312,0 0.874020513,0 Z"></path></clipPath><clipPath id="i24"><path d="M0.874020513,0 C1.35672871,0 1.74804103,0.34468179 1.74804103,0.769868326 C1.74804103,1.19505486 1.35672871,1.53973665 0.874020513,1.53973665 C0.391312312,1.53973665 0,1.19505486 0,0.769868326 C0,0.34468179 0.391312312,0 0.874020513,0 Z"></path></clipPath><clipPath id="i25"><path d="M0.874020513,0 C1.35672871,0 1.74804103,0.34468179 1.74804103,0.769868326 C1.74804103,1.19505486 1.35672871,1.53973665 0.874020513,1.53973665 C0.391312312,1.53973665 0,1.19505486 0,0.769868326 C0,0.34468179 0.391312312,0 0.874020513,0 Z"></path></clipPath><clipPath id="i26"><path d="M0.874020513,0 C1.35672871,0 1.74804103,0.34468179 1.74804103,0.769868326 C1.74804103,1.19505486 1.35672871,1.53973665 0.874020513,1.53973665 C0.391312312,1.53973665 0,1.19505486 0,0.769868326 C0,0.34468179 0.391312312,0 0.874020513,0 Z"></path></clipPath><clipPath id="i27"><path d="M0.874020513,0 C1.35672871,0 1.74804103,0.344551722 1.74804103,0.76957781 C1.74804103,1.1946039 1.35672871,1.53915562 0.874020513,1.53915562 C0.391312312,1.53915562 0,1.1946039 0,0.76957781 C0,0.344551722 0.391312312,0 0.874020513,0 Z"></path></clipPath><clipPath id="i28"><path d="M0.874020513,0 C1.35672871,0 1.74804103,0.344551722 1.74804103,0.76957781 C1.74804103,1.1946039 1.35672871,1.53915562 0.874020513,1.53915562 C0.391312312,1.53915562 0,1.1946039 0,0.76957781 C0,0.344551722 0.391312312,0 0.874020513,0 Z"></path></clipPath><clipPath id="i29"><path d="M0.874020513,0 C1.35672871,0 1.74804103,0.344551722 1.74804103,0.76957781 C1.74804103,1.1946039 1.35672871,1.53915562 0.874020513,1.53915562 C0.391312312,1.53915562 0,1.1946039 0,0.76957781 C0,0.344551722 0.391312312,0 0.874020513,0 Z"></path></clipPath><clipPath id="i30"><path d="M0.874020513,0 C1.35672871,0 1.74804103,0.344551722 1.74804103,0.76957781 C1.74804103,1.1946039 1.35672871,1.53915562 0.874020513,1.53915562 C0.391312312,1.53915562 0,1.1946039 0,0.76957781 C0,0.344551722 0.391312312,0 0.874020513,0 Z"></path></clipPath><clipPath id="i31"><path d="M0.874020513,0 C1.35672871,0 1.74804103,0.344551722 1.74804103,0.76957781 C1.74804103,1.1946039 1.35672871,1.53915562 0.874020513,1.53915562 C0.391312312,1.53915562 0,1.1946039 0,0.76957781 C0,0.344551722 0.391312312,0 0.874020513,0 Z"></path></clipPath><clipPath id="i32"><path d="M0.874020513,0 C1.35672871,0 1.74804103,0.34468179 1.74804103,0.769868326 C1.74804103,1.19505486 1.35672871,1.53973665 0.874020513,1.53973665 C0.391312312,1.53973665 0,1.19505486 0,0.769868326 C0,0.34468179 0.391312312,0 0.874020513,0 Z"></path></clipPath><clipPath id="i33"><path d="M0.874020513,0 C1.35672871,0 1.74804103,0.34468179 1.74804103,0.769868326 C1.74804103,1.19505486 1.35672871,1.53973665 0.874020513,1.53973665 C0.391312312,1.53973665 0,1.19505486 0,0.769868326 C0,0.34468179 0.391312312,0 0.874020513,0 Z"></path></clipPath><clipPath id="i34"><path d="M0.874020513,0 C1.35672871,0 1.74804103,0.34468179 1.74804103,0.769868326 C1.74804103,1.19505486 1.35672871,1.53973665 0.874020513,1.53973665 C0.391312312,1.53973665 0,1.19505486 0,0.769868326 C0,0.34468179 0.391312312,0 0.874020513,0 Z"></path></clipPath><clipPath id="i35"><path d="M0.874020513,0 C1.35672871,0 1.74804103,0.34468179 1.74804103,0.769868326 C1.74804103,1.19505486 1.35672871,1.53973665 0.874020513,1.53973665 C0.391312312,1.53973665 0,1.19505486 0,0.769868326 C0,0.34468179 0.391312312,0 0.874020513,0 Z"></path></clipPath><clipPath id="i36"><path d="M0.874020513,0 C1.35672871,0 1.74804103,0.34468179 1.74804103,0.769868326 C1.74804103,1.19505486 1.35672871,1.53973665 0.874020513,1.53973665 C0.391312312,1.53973665 0,1.19505486 0,0.769868326 C0,0.34468179 0.391312312,0 0.874020513,0 Z"></path></clipPath><clipPath id="i37"><path d="M0.874020513,0 C1.35672871,0 1.74804103,0.34468179 1.74804103,0.769868326 C1.74804103,1.19505486 1.35672871,1.53973665 0.874020513,1.53973665 C0.391312312,1.53973665 0,1.19505486 0,0.769868326 C0,0.34468179 0.391312312,0 0.874020513,0 Z"></path></clipPath><clipPath id="i38"><path d="M0.874020513,0 C1.35672871,0 1.74804103,0.34468179 1.74804103,0.769868326 C1.74804103,1.19505486 1.35672871,1.53973665 0.874020513,1.53973665 C0.391312312,1.53973665 0,1.19505486 0,0.769868326 C0,0.34468179 0.391312312,0 0.874020513,0 Z"></path></clipPath><clipPath id="i39"><path d="M0.874020513,0 C1.35672871,0 1.74804103,0.34468179 1.74804103,0.769868326 C1.74804103,1.19505486 1.35672871,1.53973665 0.874020513,1.53973665 C0.391312312,1.53973665 0,1.19505486 0,0.769868326 C0,0.34468179 0.391312312,0 0.874020513,0 Z"></path></clipPath><clipPath id="i40"><path d="M0.874020513,0 C1.35672871,0 1.74804103,0.344551722 1.74804103,0.76957781 C1.74804103,1.1946039 1.35672871,1.53915562 0.874020513,1.53915562 C0.391312312,1.53915562 0,1.1946039 0,0.76957781 C0,0.344551722 0.391312312,0 0.874020513,0 Z"></path></clipPath><clipPath id="i41"><path d="M0.874020513,0 C1.35672871,0 1.74804103,0.344551722 1.74804103,0.76957781 C1.74804103,1.1946039 1.35672871,1.53915562 0.874020513,1.53915562 C0.391312312,1.53915562 0,1.1946039 0,0.76957781 C0,0.344551722 0.391312312,0 0.874020513,0 Z"></path></clipPath><clipPath id="i42"><path d="M0.874020513,0 C1.35672871,0 1.74804103,0.344551722 1.74804103,0.76957781 C1.74804103,1.1946039 1.35672871,1.53915562 0.874020513,1.53915562 C0.391312312,1.53915562 0,1.1946039 0,0.76957781 C0,0.344551722 0.391312312,0 0.874020513,0 Z"></path></clipPath><clipPath id="i43"><path d="M0.874020513,0 C1.35672871,0 1.74804103,0.344551722 1.74804103,0.76957781 C1.74804103,1.1946039 1.35672871,1.53915562 0.874020513,1.53915562 C0.391312312,1.53915562 0,1.1946039 0,0.76957781 C0,0.344551722 0.391312312,0 0.874020513,0 Z"></path></clipPath><clipPath id="i44"><path d="M0.874020513,0 C1.35672871,0 1.74804103,0.344551722 1.74804103,0.76957781 C1.74804103,1.1946039 1.35672871,1.53915562 0.874020513,1.53915562 C0.391312312,1.53915562 0,1.1946039 0,0.76957781 C0,0.344551722 0.391312312,0 0.874020513,0 Z"></path></clipPath><clipPath id="i45"><path d="M0.874020513,0 C1.35672871,0 1.74804103,0.344551722 1.74804103,0.76957781 C1.74804103,1.1946039 1.35672871,1.53915562 0.874020513,1.53915562 C0.391312312,1.53915562 0,1.1946039 0,0.76957781 C0,0.344551722 0.391312312,0 0.874020513,0 Z"></path></clipPath><clipPath id="i46"><path d="M1.31151832,0 C2.03584989,0 2.62303665,0.577829295 2.62303665,1.29061785 C2.62303665,2.00340641 2.03584989,2.58123571 1.31151832,2.58123571 C0.587186755,2.58123571 0,2.00340641 0,1.29061785 C0,0.577829295 0.587186755,0 1.31151832,0 Z"></path></clipPath><clipPath id="i47"><path d="M1.31151832,0 C2.03584989,0 2.62303665,0.577829295 2.62303665,1.29061785 C2.62303665,2.00340641 2.03584989,2.58123571 1.31151832,2.58123571 C0.587186755,2.58123571 0,2.00340641 0,1.29061785 C0,0.577829295 0.587186755,0 1.31151832,0 Z"></path></clipPath><clipPath id="i48"><path d="M1.31151832,0 C2.03584989,0 2.62303665,0.577829295 2.62303665,1.29061785 C2.62303665,2.00340641 2.03584989,2.58123571 1.31151832,2.58123571 C0.587186755,2.58123571 0,2.00340641 0,1.29061785 C0,0.577829295 0.587186755,0 1.31151832,0 Z"></path></clipPath><clipPath id="i49"><path d="M1.31151832,0 C2.03584989,0 2.62303665,0.577829295 2.62303665,1.29061785 C2.62303665,2.00340641 2.03584989,2.58123571 1.31151832,2.58123571 C0.587186755,2.58123571 0,2.00340641 0,1.29061785 C0,0.577829295 0.587186755,0 1.31151832,0 Z"></path></clipPath><clipPath id="i50"><path d="M1.31151832,0 C2.03584989,0 2.62303665,0.577829295 2.62303665,1.29061785 C2.62303665,2.00340641 2.03584989,2.58123571 1.31151832,2.58123571 C0.587186755,2.58123571 0,2.00340641 0,1.29061785 C0,0.577829295 0.587186755,0 1.31151832,0 Z"></path></clipPath><clipPath id="i51"><path d="M0.87434555,0 C1.35723326,0 1.7486911,0.577611247 1.7486911,1.29013083 C1.7486911,2.00265041 1.35723326,2.58026166 0.87434555,2.58026166 C0.391457837,2.58026166 0,2.00265041 0,1.29013083 C0,0.577611247 0.391457837,0 0.87434555,0 Z"></path></clipPath><clipPath id="i52"><path d="M0.87434555,0 C1.35723326,0 1.7486911,0.577611247 1.7486911,1.29013083 C1.7486911,2.00265041 1.35723326,2.58026166 0.87434555,2.58026166 C0.391457837,2.58026166 0,2.00265041 0,1.29013083 C0,0.577611247 0.391457837,0 0.87434555,0 Z"></path></clipPath><clipPath id="i53"><path d="M0.87434555,0 C1.35723326,0 1.7486911,0.577611247 1.7486911,1.29013083 C1.7486911,2.00265041 1.35723326,2.58026166 0.87434555,2.58026166 C0.391457837,2.58026166 0,2.00265041 0,1.29013083 C0,0.577611247 0.391457837,0 0.87434555,0 Z"></path></clipPath><clipPath id="i54"><path d="M0.87434555,0 C1.35723326,0 1.7486911,0.577611247 1.7486911,1.29013083 C1.7486911,2.00265041 1.35723326,2.58026166 0.87434555,2.58026166 C0.391457837,2.58026166 0,2.00265041 0,1.29013083 C0,0.577611247 0.391457837,0 0.87434555,0 Z"></path></clipPath><clipPath id="i55"><path d="M0.87434555,0 C1.35723326,0 1.7486911,0.577611247 1.7486911,1.29013083 C1.7486911,2.00265041 1.35723326,2.58026166 0.87434555,2.58026166 C0.391457837,2.58026166 0,2.00265041 0,1.29013083 C0,0.577611247 0.391457837,0 0.87434555,0 Z"></path></clipPath><clipPath id="i56"><path d="M1.31151832,0 C2.03584989,0 2.62303665,0.577611247 2.62303665,1.29013083 C2.62303665,2.00265041 2.03584989,2.58026166 1.31151832,2.58026166 C0.587186755,2.58026166 0,2.00265041 0,1.29013083 C0,0.577611247 0.587186755,0 1.31151832,0 Z"></path></clipPath><clipPath id="i57"><path d="M1.31151832,0 C2.03584989,0 2.62303665,0.577611247 2.62303665,1.29013083 C2.62303665,2.00265041 2.03584989,2.58026166 1.31151832,2.58026166 C0.587186755,2.58026166 0,2.00265041 0,1.29013083 C0,0.577611247 0.587186755,0 1.31151832,0 Z"></path></clipPath><clipPath id="i58"><path d="M1.31151832,0 C2.03584989,0 2.62303665,0.577611247 2.62303665,1.29013083 C2.62303665,2.00265041 2.03584989,2.58026166 1.31151832,2.58026166 C0.587186755,2.58026166 0,2.00265041 0,1.29013083 C0,0.577611247 0.587186755,0 1.31151832,0 Z"></path></clipPath><clipPath id="i59"><path d="M1.31151832,0 C2.03584989,0 2.62303665,0.577611247 2.62303665,1.29013083 C2.62303665,2.00265041 2.03584989,2.58026166 1.31151832,2.58026166 C0.587186755,2.58026166 0,2.00265041 0,1.29013083 C0,0.577611247 0.587186755,0 1.31151832,0 Z"></path></clipPath><clipPath id="i60"><path d="M1.31151832,0 C2.03584989,0 2.62303665,0.577611247 2.62303665,1.29013083 C2.62303665,2.00265041 2.03584989,2.58026166 1.31151832,2.58026166 C0.587186755,2.58026166 0,2.00265041 0,1.29013083 C0,0.577611247 0.587186755,0 1.31151832,0 Z"></path></clipPath><clipPath id="i61"><path d="M1.31151832,0 C2.03584989,0 2.62303665,0.577829295 2.62303665,1.29061785 C2.62303665,2.00340641 2.03584989,2.58123571 1.31151832,2.58123571 C0.587186755,2.58123571 0,2.00340641 0,1.29061785 C0,0.577829295 0.587186755,0 1.31151832,0 Z"></path></clipPath><clipPath id="i62"><path d="M1.31151832,0 C2.03584989,0 2.62303665,0.577829295 2.62303665,1.29061785 C2.62303665,2.00340641 2.03584989,2.58123571 1.31151832,2.58123571 C0.587186755,2.58123571 0,2.00340641 0,1.29061785 C0,0.577829295 0.587186755,0 1.31151832,0 Z"></path></clipPath><clipPath id="i63"><path d="M1.31151832,0 C2.03584989,0 2.62303665,0.577829295 2.62303665,1.29061785 C2.62303665,2.00340641 2.03584989,2.58123571 1.31151832,2.58123571 C0.587186755,2.58123571 0,2.00340641 0,1.29061785 C0,0.577829295 0.587186755,0 1.31151832,0 Z"></path></clipPath><clipPath id="i64"><path d="M1.31151832,0 C2.03584989,0 2.62303665,0.577829295 2.62303665,1.29061785 C2.62303665,2.00340641 2.03584989,2.58123571 1.31151832,2.58123571 C0.587186755,2.58123571 0,2.00340641 0,1.29061785 C0,0.577829295 0.587186755,0 1.31151832,0 Z"></path></clipPath><clipPath id="i65"><path d="M1.31151832,0 C2.03584989,0 2.62303665,0.577829295 2.62303665,1.29061785 C2.62303665,2.00340641 2.03584989,2.58123571 1.31151832,2.58123571 C0.587186755,2.58123571 0,2.00340641 0,1.29061785 C0,0.577829295 0.587186755,0 1.31151832,0 Z"></path></clipPath><clipPath id="i66"><path d="M1.31151832,0 C2.03584989,0 2.62303665,0.577829295 2.62303665,1.29061785 C2.62303665,2.00340641 2.03584989,2.58123571 1.31151832,2.58123571 C0.587186755,2.58123571 0,2.00340641 0,1.29061785 C0,0.577829295 0.587186755,0 1.31151832,0 Z"></path></clipPath><clipPath id="i67"><path d="M1.31151832,0 C2.03584989,0 2.62303665,0.577829295 2.62303665,1.29061785 C2.62303665,2.00340641 2.03584989,2.58123571 1.31151832,2.58123571 C0.587186755,2.58123571 0,2.00340641 0,1.29061785 C0,0.577829295 0.587186755,0 1.31151832,0 Z"></path></clipPath><clipPath id="i68"><path d="M1.31151832,0 C2.03584989,0 2.62303665,0.577829295 2.62303665,1.29061785 C2.62303665,2.00340641 2.03584989,2.58123571 1.31151832,2.58123571 C0.587186755,2.58123571 0,2.00340641 0,1.29061785 C0,0.577829295 0.587186755,0 1.31151832,0 Z"></path></clipPath><clipPath id="i69"><path d="M1.31151832,0 C2.03584989,0 2.62303665,0.577829295 2.62303665,1.29061785 C2.62303665,2.00340641 2.03584989,2.58123571 1.31151832,2.58123571 C0.587186755,2.58123571 0,2.00340641 0,1.29061785 C0,0.577829295 0.587186755,0 1.31151832,0 Z"></path></clipPath><clipPath id="i70"><path d="M1.31151832,0 C2.03584989,0 2.62303665,0.577829295 2.62303665,1.29061785 C2.62303665,2.00340641 2.03584989,2.58123571 1.31151832,2.58123571 C0.587186755,2.58123571 0,2.00340641 0,1.29061785 C0,0.577829295 0.587186755,0 1.31151832,0 Z"></path></clipPath><clipPath id="i71"><path d="M0.87434555,0 C1.35723326,0 1.7486911,0.577611247 1.7486911,1.29013083 C1.7486911,2.00265041 1.35723326,2.58026166 0.87434555,2.58026166 C0.391457837,2.58026166 0,2.00265041 0,1.29013083 C0,0.577611247 0.391457837,0 0.87434555,0 Z"></path></clipPath><clipPath id="i72"><path d="M0.87434555,0 C1.35723326,0 1.7486911,0.577611247 1.7486911,1.29013083 C1.7486911,2.00265041 1.35723326,2.58026166 0.87434555,2.58026166 C0.391457837,2.58026166 0,2.00265041 0,1.29013083 C0,0.577611247 0.391457837,0 0.87434555,0 Z"></path></clipPath><clipPath id="i73"><path d="M0.87434555,0 C1.35723326,0 1.7486911,0.577611247 1.7486911,1.29013083 C1.7486911,2.00265041 1.35723326,2.58026166 0.87434555,2.58026166 C0.391457837,2.58026166 0,2.00265041 0,1.29013083 C0,0.577611247 0.391457837,0 0.87434555,0 Z"></path></clipPath><clipPath id="i74"><path d="M0.87434555,0 C1.35723326,0 1.7486911,0.577611247 1.7486911,1.29013083 C1.7486911,2.00265041 1.35723326,2.58026166 0.87434555,2.58026166 C0.391457837,2.58026166 0,2.00265041 0,1.29013083 C0,0.577611247 0.391457837,0 0.87434555,0 Z"></path></clipPath><clipPath id="i75"><path d="M0.87434555,0 C1.35723326,0 1.7486911,0.577611247 1.7486911,1.29013083 C1.7486911,2.00265041 1.35723326,2.58026166 0.87434555,2.58026166 C0.391457837,2.58026166 0,2.00265041 0,1.29013083 C0,0.577611247 0.391457837,0 0.87434555,0 Z"></path></clipPath><clipPath id="i76"><path d="M1.31151832,0 C2.03584989,0 2.62303665,0.577829295 2.62303665,1.29061785 C2.62303665,2.00340641 2.03584989,2.58123571 1.31151832,2.58123571 C0.587186755,2.58123571 0,2.00340641 0,1.29061785 C0,0.577829295 0.587186755,0 1.31151832,0 Z"></path></clipPath><clipPath id="i77"><path d="M1.31151832,0 C2.03584989,0 2.62303665,0.577829295 2.62303665,1.29061785 C2.62303665,2.00340641 2.03584989,2.58123571 1.31151832,2.58123571 C0.587186755,2.58123571 0,2.00340641 0,1.29061785 C0,0.577829295 0.587186755,0 1.31151832,0 Z"></path></clipPath><clipPath id="i78"><path d="M1.31151832,0 C2.03584989,0 2.62303665,0.577829295 2.62303665,1.29061785 C2.62303665,2.00340641 2.03584989,2.58123571 1.31151832,2.58123571 C0.587186755,2.58123571 0,2.00340641 0,1.29061785 C0,0.577829295 0.587186755,0 1.31151832,0 Z"></path></clipPath><clipPath id="i79"><path d="M1.31151832,0 C2.03584989,0 2.62303665,0.577829295 2.62303665,1.29061785 C2.62303665,2.00340641 2.03584989,2.58123571 1.31151832,2.58123571 C0.587186755,2.58123571 0,2.00340641 0,1.29061785 C0,0.577829295 0.587186755,0 1.31151832,0 Z"></path></clipPath><clipPath id="i80"><path d="M1.31151832,0 C2.03584989,0 2.62303665,0.577829295 2.62303665,1.29061785 C2.62303665,2.00340641 2.03584989,2.58123571 1.31151832,2.58123571 C0.587186755,2.58123571 0,2.00340641 0,1.29061785 C0,0.577829295 0.587186755,0 1.31151832,0 Z"></path></clipPath><clipPath id="i81"><path d="M1.31151832,0 C2.03584989,0 2.62303665,0.577611247 2.62303665,1.29013083 C2.62303665,2.00265041 2.03584989,2.58026166 1.31151832,2.58026166 C0.587186755,2.58026166 0,2.00265041 0,1.29013083 C0,0.577611247 0.587186755,0 1.31151832,0 Z"></path></clipPath><clipPath id="i82"><path d="M1.31151832,0 C2.03584989,0 2.62303665,0.577611247 2.62303665,1.29013083 C2.62303665,2.00265041 2.03584989,2.58026166 1.31151832,2.58026166 C0.587186755,2.58026166 0,2.00265041 0,1.29013083 C0,0.577611247 0.587186755,0 1.31151832,0 Z"></path></clipPath><clipPath id="i83"><path d="M1.31151832,0 C2.03584989,0 2.62303665,0.577611247 2.62303665,1.29013083 C2.62303665,2.00265041 2.03584989,2.58026166 1.31151832,2.58026166 C0.587186755,2.58026166 0,2.00265041 0,1.29013083 C0,0.577611247 0.587186755,0 1.31151832,0 Z"></path></clipPath><clipPath id="i84"><path d="M1.31151832,0 C2.03584989,0 2.62303665,0.577611247 2.62303665,1.29013083 C2.62303665,2.00265041 2.03584989,2.58026166 1.31151832,2.58026166 C0.587186755,2.58026166 0,2.00265041 0,1.29013083 C0,0.577611247 0.587186755,0 1.31151832,0 Z"></path></clipPath><clipPath id="i85"><path d="M1.31151832,0 C2.03584989,0 2.62303665,0.577611247 2.62303665,1.29013083 C2.62303665,2.00265041 2.03584989,2.58026166 1.31151832,2.58026166 C0.587186755,2.58026166 0,2.00265041 0,1.29013083 C0,0.577611247 0.587186755,0 1.31151832,0 Z"></path></clipPath><clipPath id="i86"><path d="M1.31151832,0 C2.03584989,0 2.62303665,0.577611247 2.62303665,1.29013083 C2.62303665,2.00265041 2.03584989,2.58026166 1.31151832,2.58026166 C0.587186755,2.58026166 0,2.00265041 0,1.29013083 C0,0.577611247 0.587186755,0 1.31151832,0 Z"></path></clipPath><clipPath id="i87"><path d="M1.31151832,0 C2.03584989,0 2.62303665,0.577611247 2.62303665,1.29013083 C2.62303665,2.00265041 2.03584989,2.58026166 1.31151832,2.58026166 C0.587186755,2.58026166 0,2.00265041 0,1.29013083 C0,0.577611247 0.587186755,0 1.31151832,0 Z"></path></clipPath><clipPath id="i88"><path d="M1.31151832,0 C2.03584989,0 2.62303665,0.577611247 2.62303665,1.29013083 C2.62303665,2.00265041 2.03584989,2.58026166 1.31151832,2.58026166 C0.587186755,2.58026166 0,2.00265041 0,1.29013083 C0,0.577611247 0.587186755,0 1.31151832,0 Z"></path></clipPath><clipPath id="i89"><path d="M1.31151832,0 C2.03584989,0 2.62303665,0.577611247 2.62303665,1.29013083 C2.62303665,2.00265041 2.03584989,2.58026166 1.31151832,2.58026166 C0.587186755,2.58026166 0,2.00265041 0,1.29013083 C0,0.577611247 0.587186755,0 1.31151832,0 Z"></path></clipPath><clipPath id="i90"><path d="M1.31151832,0 C2.03584989,0 2.62303665,0.577611247 2.62303665,1.29013083 C2.62303665,2.00265041 2.03584989,2.58026166 1.31151832,2.58026166 C0.587186755,2.58026166 0,2.00265041 0,1.29013083 C0,0.577611247 0.587186755,0 1.31151832,0 Z"></path></clipPath><clipPath id="i91"><path d="M1.31151832,0 C2.03584989,0 2.62303665,0.577611247 2.62303665,1.29013083 C2.62303665,2.00265041 2.03584989,2.58026166 1.31151832,2.58026166 C0.587186755,2.58026166 0,2.00265041 0,1.29013083 C0,0.577611247 0.587186755,0 1.31151832,0 Z"></path></clipPath><clipPath id="i92"><path d="M1.31151832,0 C2.03584989,0 2.62303665,0.577611247 2.62303665,1.29013083 C2.62303665,2.00265041 2.03584989,2.58026166 1.31151832,2.58026166 C0.587186755,2.58026166 0,2.00265041 0,1.29013083 C0,0.577611247 0.587186755,0 1.31151832,0 Z"></path></clipPath><clipPath id="i93"><path d="M1.31151832,0 C2.03584989,0 2.62303665,0.577611247 2.62303665,1.29013083 C2.62303665,2.00265041 2.03584989,2.58026166 1.31151832,2.58026166 C0.587186755,2.58026166 0,2.00265041 0,1.29013083 C0,0.577611247 0.587186755,0 1.31151832,0 Z"></path></clipPath><clipPath id="i94"><path d="M1.31151832,0 C2.03584989,0 2.62303665,0.577611247 2.62303665,1.29013083 C2.62303665,2.00265041 2.03584989,2.58026166 1.31151832,2.58026166 C0.587186755,2.58026166 0,2.00265041 0,1.29013083 C0,0.577611247 0.587186755,0 1.31151832,0 Z"></path></clipPath><clipPath id="i95"><path d="M1.31151832,0 C2.03584989,0 2.62303665,0.577611247 2.62303665,1.29013083 C2.62303665,2.00265041 2.03584989,2.58026166 1.31151832,2.58026166 C0.587186755,2.58026166 0,2.00265041 0,1.29013083 C0,0.577611247 0.587186755,0 1.31151832,0 Z"></path></clipPath><clipPath id="i96"><path d="M1.31151832,0 C2.03584989,0 2.62303665,0.577611247 2.62303665,1.29013083 C2.62303665,2.00265041 2.03584989,2.58026166 1.31151832,2.58026166 C0.587186755,2.58026166 0,2.00265041 0,1.29013083 C0,0.577611247 0.587186755,0 1.31151832,0 Z"></path></clipPath><clipPath id="i97"><path d="M1.31151832,0 C2.03584989,0 2.62303665,0.577611247 2.62303665,1.29013083 C2.62303665,2.00265041 2.03584989,2.58026166 1.31151832,2.58026166 C0.587186755,2.58026166 0,2.00265041 0,1.29013083 C0,0.577611247 0.587186755,0 1.31151832,0 Z"></path></clipPath><clipPath id="i98"><path d="M1.31151832,0 C2.03584989,0 2.62303665,0.577611247 2.62303665,1.29013083 C2.62303665,2.00265041 2.03584989,2.58026166 1.31151832,2.58026166 C0.587186755,2.58026166 0,2.00265041 0,1.29013083 C0,0.577611247 0.587186755,0 1.31151832,0 Z"></path></clipPath><clipPath id="i99"><path d="M1.31151832,0 C2.03584989,0 2.62303665,0.577611247 2.62303665,1.29013083 C2.62303665,2.00265041 2.03584989,2.58026166 1.31151832,2.58026166 C0.587186755,2.58026166 0,2.00265041 0,1.29013083 C0,0.577611247 0.587186755,0 1.31151832,0 Z"></path></clipPath><clipPath id="i100"><path d="M1.31151832,0 C2.03584989,0 2.62303665,0.577611247 2.62303665,1.29013083 C2.62303665,2.00265041 2.03584989,2.58026166 1.31151832,2.58026166 C0.587186755,2.58026166 0,2.00265041 0,1.29013083 C0,0.577611247 0.587186755,0 1.31151832,0 Z"></path></clipPath><clipPath id="i101"><path d="M24,0 C37.254834,0 48,10.745166 48,24 C48,37.254834 37.254834,48 24,48 C10.745166,48 0,37.254834 0,24 C0,10.745166 10.745166,0 24,0 Z"></path></clipPath><clipPath id="i102"><path d="M9.5,0 C14.7467051,0 19,4.25329488 19,9.5 C19,14.7467051 14.7467051,19 9.5,19 C4.25329488,19 0,14.7467051 0,9.5 C0,4.25329488 4.25329488,0 9.5,0 Z"></path></clipPath><clipPath id="i103"><path d="M120.614831,0 L120.614831,119.74081 L0,119.74081 L0,0 L120.614831,0 Z"></path></clipPath><clipPath id="i104"><path d="M186.166369,0 L186.166369,190.536472 L0,190.536472 L0,0 L186.166369,0 Z"></path></clipPath><clipPath id="i105"><path d="M0,0 L18.6458049,0.210375939 L18.6878801,3.93953692 L0.0420751878,3.72916098 L0,0 Z"></path></clipPath><clipPath id="i106"><path d="M18.6805124,0 L18.6384629,3.73062938 L0,3.94087717 L0.0420495568,0.210247784 L18.6805124,0 Z"></path></clipPath><clipPath id="i107"><path d="M97.0162769,0 L97.0162769,94.3942154 L0,94.3942154 L0,0 L97.0162769,0 Z"></path></clipPath><clipPath id="i108"><path d="M40.5,0 C62.8675324,0 81,18.1324676 81,40.5 C81,62.8675324 62.8675324,81 40.5,81 C18.1324676,81 0,62.8675324 0,40.5 C0,18.1324676 18.1324676,0 40.5,0 Z"></path></clipPath><clipPath id="i109"><path d="M47.5,0 C73.7335256,0 95,21.2664744 95,47.5 C95,73.7335256 73.7335256,95 47.5,95 C21.2664744,95 0,73.7335256 0,47.5 C0,21.2664744 21.2664744,0 47.5,0 Z"></path></clipPath><clipPath id="i110"><path d="M57.5,0 C89.2563731,0 115,25.7436269 115,57.5 C115,89.2563731 89.2563731,115 57.5,115 C25.7436269,115 0,89.2563731 0,57.5 C0,25.7436269 25.7436269,0 57.5,0 Z"></path></clipPath><clipPath id="i111"><path d="M64.5,0 C100.122366,0 129,28.8776336 129,64.5 C129,100.122366 100.122366,129 64.5,129 C28.8776336,129 0,100.122366 0,64.5 C0,28.8776336 28.8776336,0 64.5,0 Z"></path></clipPath><clipPath id="i112"><path d="M47.7674695,0 L47.7667287,9.55334573 L0,9.55705011 L0.00074087534,0.0037043767 L47.7674695,0 Z"></path></clipPath><clipPath id="i113"><path d="M0,0 L47.7668579,0.00370212009 L47.7675984,9.557022 L0.000740424019,9.55331988 L0,0 Z"></path></clipPath></defs><g clip-path="url(#i0)"><g transform="translate(-162.0 -43.369133303264164)"><g transform="translate(0.0 43.369133303264164)"><g clip-path="url(#i1)"><polygon points="162,0 962,0 962,519 162,519 162,0" stroke="none" fill="#252424"></polygon></g></g><g transform="translate(1.0 42.369133303264164)"><g clip-path="url(#i1)"><polygon points="161,1 961,1 961,519 161,519 161,1" stroke="none" fill="#3A7AE6"></polygon></g></g><g transform="translate(699.5375296722669 77.2013924540309) rotate(43.00000000000001)"><g opacity="40.1516869%"><g transform=""><g clip-path="url(#i2)"><polygon points="0,0 1.74804103,0 1.74804103,1.53973665 0,1.53973665 0,0" stroke="none" fill="#FFFFFF"></polygon></g></g><g transform="translate(0.0 11.92833984543358)"><g clip-path="url(#i3)"><polygon points="9.09494702e-13,0 1.74804103,0 1.74804103,1.53973665 9.09494702e-13,1.53973665 9.09494702e-13,0" stroke="none" fill="#FFFFFF"></polygon></g></g><g transform="translate(9.094947017729282e-13 23.85667969086489)"><g clip-path="url(#i3)"><polygon points="0,9.09494702e-13 1.74804103,9.09494702e-13 1.74804103,1.53973665 0,1.53973665 0,9.09494702e-13" stroke="none" fill="#FFFFFF"></polygon></g></g><g transform="translate(9.094947017729282e-13 35.78501953629848)"><g clip-path="url(#i4)"><polygon points="9.09494702e-13,9.09494702e-13 1.74804103,9.09494702e-13 1.74804103,1.53973665 9.09494702e-13,1.53973665 9.09494702e-13,9.09494702e-13" stroke="none" fill="#FFFFFF"></polygon></g></g><g transform="translate(0.0 47.71335938173161)"><g clip-path="url(#i2)"><polygon points="0,9.09494702e-13 1.74804103,9.09494702e-13 1.74804103,1.53973665 0,1.53973665 0,9.09494702e-13" stroke="none" fill="#FFFFFF"></polygon></g></g><g transform="translate(0.0 59.64169922716565)"><g clip-path="url(#i5)"><polygon points="1.8189894e-12,0 1.74804103,0 1.74804103,1.53973665 1.8189894e-12,1.53973665 1.8189894e-12,0" stroke="none" fill="#FFFFFF"></polygon></g></g><g transform="translate(8.740205125642206 9.094947017729282e-13)"><g clip-path="url(#i6)"><polygon points="0,9.09494702e-13 1.74804103,9.09494702e-13 1.74804103,1.53915562 0,1.53915562 0,9.09494702e-13" stroke="none" fill="#FFFFFF"></polygon></g><g transform="translate(0.0 11.92845605197317)"><g clip-path="url(#i6)"><polygon points="9.09494702e-13,9.09494702e-13 1.74804103,9.09494702e-13 1.74804103,1.53915562 9.09494702e-13,1.53915562 9.09494702e-13,9.09494702e-13" stroke="none" fill="#FFFFFF"></polygon></g></g><g transform="translate(0.0 23.85691210394543)"><g clip-path="url(#i7)"><polygon points="9.09494702e-13,9.09494702e-13 1.74804103,9.09494702e-13 1.74804103,1.53915562 9.09494702e-13,1.53915562 9.09494702e-13,9.09494702e-13" stroke="none" fill="#FFFFFF"></polygon></g></g><g transform="translate(4.547473508864641e-13 35.78536815591815)"><g clip-path="url(#i8)"><polygon points="0,9.09494702e-13 1.74804103,9.09494702e-13 1.74804103,1.53915562 0,1.53915562 0,9.09494702e-13" stroke="none" fill="#FFFFFF"></polygon></g></g><g transform="translate(0.0 47.71382420789087)"><g clip-path="url(#i9)"><polygon points="0,9.09494702e-13 1.74804103,9.09494702e-13 1.74804103,1.53915562 0,1.53915562 0,9.09494702e-13" stroke="none" fill="#FFFFFF"></polygon></g></g><g transform="translate(4.547473508864641e-13 59.64228025986358)"><g clip-path="url(#i10)"><polygon points="9.09494702e-13,9.09494702e-13 1.74804103,9.09494702e-13 1.74804103,1.53915562 9.09494702e-13,1.53915562 9.09494702e-13,9.09494702e-13" stroke="none" fill="#FFFFFF"></polygon></g></g></g><g transform="translate(17.480410251279864 9.094947017729282e-13)"><g clip-path="url(#i11)"><polygon points="0,0 1.74804103,0 1.74804103,1.53915562 0,1.53915562 0,0" stroke="none" fill="#FFFFFF"></polygon></g><g transform="translate(4.547473508864641e-13 11.92845605197272)"><g clip-path="url(#i11)"><polygon points="9.09494702e-13,9.09494702e-13 1.74804103,9.09494702e-13 1.74804103,1.53915562 9.09494702e-13,1.53915562 9.09494702e-13,9.09494702e-13" stroke="none" fill="#FFFFFF"></polygon></g></g><g transform="translate(4.547473508864641e-13 23.85691210394543)"><g clip-path="url(#i12)"><polygon points="0,9.09494702e-13 1.74804103,9.09494702e-13 1.74804103,1.53915562 0,1.53915562 0,9.09494702e-13" stroke="none" fill="#FFFFFF"></polygon></g></g><g transform="translate(4.547473508864641e-13 35.78536815591815)"><g clip-path="url(#i13)"><polygon points="0,9.09494702e-13 1.74804103,9.09494702e-13 1.74804103,1.53915562 0,1.53915562 0,9.09494702e-13" stroke="none" fill="#FFFFFF"></polygon></g></g><g transform="translate(4.547473508864641e-13 47.71382420789087)"><g clip-path="url(#i14)"><polygon points="9.09494702e-13,9.09494702e-13 1.74804103,9.09494702e-13 1.74804103,1.53915562 9.09494702e-13,1.53915562 9.09494702e-13,9.09494702e-13" stroke="none" fill="#FFFFFF"></polygon></g></g><g transform="translate(4.547473508864641e-13 59.64228025986358)"><g clip-path="url(#i15)"><polygon points="9.09494702e-13,9.09494702e-13 1.74804103,9.09494702e-13 1.74804103,1.53915562 9.09494702e-13,1.53915562 9.09494702e-13,9.09494702e-13" stroke="none" fill="#FFFFFF"></polygon></g></g></g><g transform="translate(26.22061537691843 0.0)"><g transform=""><g clip-path="url(#i16)"><polygon points="0,0 1.74804103,0 1.74804103,1.53973665 0,1.53973665 0,0" stroke="none" fill="#FFFFFF"></polygon></g></g><g transform="translate(4.547473508864641e-13 11.92833984543358)"><g clip-path="url(#i17)"><polygon points="9.09494702e-13,0 1.74804103,0 1.74804103,1.53973665 9.09494702e-13,1.53973665 9.09494702e-13,0" stroke="none" fill="#FFFFFF"></polygon></g></g><g transform="translate(0.0 23.8566796908658)"><g clip-path="url(#i16)"><polygon points="1.8189894e-12,9.09494702e-13 1.74804103,9.09494702e-13 1.74804103,1.53973665 1.8189894e-12,1.53973665 1.8189894e-12,9.09494702e-13" stroke="none" fill="#FFFFFF"></polygon></g></g><g transform="translate(4.547473508864641e-13 35.78501953629848)"><g clip-path="url(#i18)"><polygon points="0,0 1.74804103,0 1.74804103,1.53973665 0,1.53973665 0,0" stroke="none" fill="#FFFFFF"></polygon></g></g><g transform="translate(4.547473508864641e-13 47.71335938173252)"><g clip-path="url(#i16)"><polygon points="0,9.09494702e-13 1.74804103,9.09494702e-13 1.74804103,1.53973665 0,1.53973665 0,9.09494702e-13" stroke="none" fill="#FFFFFF"></polygon></g></g><g transform="translate(9.094947017729282e-13 59.64169922716519)"><g clip-path="url(#i19)"><polygon points="0,9.09494702e-13 1.74804103,9.09494702e-13 1.74804103,1.53973665 0,1.53973665 0,9.09494702e-13" stroke="none" fill="#FFFFFF"></polygon></g></g></g><g transform="translate(35.83484101512113 0.0)"><g clip-path="url(#i20)"><polygon points="9.09494702e-13,0 1.74804103,0 1.74804103,1.53973665 9.09494702e-13,1.53973665 9.09494702e-13,0" stroke="none" fill="#FFFFFF"></polygon></g><g transform="translate(0.0 11.92833984543267)"><g clip-path="url(#i21)"><polygon points="9.09494702e-13,0 1.74804103,0 1.74804103,1.53973665 9.09494702e-13,1.53973665 9.09494702e-13,0" stroke="none" fill="#FFFFFF"></polygon></g></g><g transform="translate(4.547473508864641e-13 23.85667969086535)"><g clip-path="url(#i21)"><polygon points="0,9.09494702e-13 1.74804103,9.09494702e-13 1.74804103,1.53973665 0,1.53973665 0,9.09494702e-13" stroke="none" fill="#FFFFFF"></polygon></g></g><g transform="translate(4.547473508864641e-13 35.78501953629802)"><g clip-path="url(#i20)"><polygon points="9.09494702e-13,0 1.74804103,0 1.74804103,1.53973665 9.09494702e-13,1.53973665 9.09494702e-13,0" stroke="none" fill="#FFFFFF"></polygon></g></g><g transform="translate(0.0 47.71335938173206)"><g clip-path="url(#i20)"><polygon points="9.09494702e-13,9.09494702e-13 1.74804103,9.09494702e-13 1.74804103,1.53973665 9.09494702e-13,1.53973665 9.09494702e-13,9.09494702e-13" stroke="none" fill="#FFFFFF"></polygon></g></g><g transform="translate(0.0 59.64169922716474)"><g clip-path="url(#i22)"><polygon points="9.09494702e-13,0 1.74804103,0 1.74804103,1.53973665 9.09494702e-13,1.53973665 9.09494702e-13,0" stroke="none" fill="#FFFFFF"></polygon></g></g></g><g transform="translate(44.57504614076061 3.637978807091713e-12)"><g clip-path="url(#i23)"><polygon points="9.09494702e-13,9.09494702e-13 1.74804103,9.09494702e-13 1.74804103,1.53973665 9.09494702e-13,1.53973665 9.09494702e-13,9.09494702e-13" stroke="none" fill="#FFFFFF"></polygon></g><g transform="translate(-4.547473508864641e-13 11.92833984543358)"><g clip-path="url(#i24)"><polygon points="0,9.09494702e-13 1.74804103,9.09494702e-13 1.74804103,1.53973665 0,1.53973665 0,9.09494702e-13" stroke="none" fill="#FFFFFF"></polygon></g></g><g transform="translate(4.547473508864641e-13 23.85667969086535)"><g clip-path="url(#i23)"><polygon points="0,0 1.74804103,0 1.74804103,1.53973665 0,1.53973665 0,0" stroke="none" fill="#FFFFFF"></polygon></g></g><g transform="translate(0.0 35.78501953629893)"><g clip-path="url(#i25)"><polygon points="0,9.09494702e-13 1.74804103,9.09494702e-13 1.74804103,1.53973665 0,1.53973665 0,9.09494702e-13" stroke="none" fill="#FFFFFF"></polygon></g></g><g transform="translate(4.547473508864641e-13 47.71335938173161)"><g clip-path="url(#i23)"><polygon points="-9.09494702e-13,1.8189894e-12 1.74804103,1.8189894e-12 1.74804103,1.53973665 -9.09494702e-13,1.53973665 -9.09494702e-13,1.8189894e-12" stroke="none" fill="#FFFFFF"></polygon></g></g><g transform="translate(4.547473508864641e-13 59.64169922716519)"><g clip-path="url(#i26)"><polygon points="0,0 1.74804103,0 1.74804103,1.53973665 0,1.53973665 0,0" stroke="none" fill="#FFFFFF"></polygon></g></g></g><g transform="translate(53.31525126639917 1.8189894035458565e-12)"><g clip-path="url(#i27)"><polygon points="0,9.09494702e-13 1.74804103,9.09494702e-13 1.74804103,1.53915562 0,1.53915562 0,9.09494702e-13" stroke="none" fill="#FFFFFF"></polygon></g><g transform="translate(-4.547473508864641e-13 11.92845605197317)"><g clip-path="url(#i27)"><polygon points="0,9.09494702e-13 1.74804103,9.09494702e-13 1.74804103,1.53915562 0,1.53915562 0,9.09494702e-13" stroke="none" fill="#FFFFFF"></polygon></g></g><g transform="translate(-4.547473508864641e-13 23.85691210394543)"><g clip-path="url(#i28)"><polygon points="0,9.09494702e-13 1.74804103,9.09494702e-13 1.74804103,1.53915562 0,1.53915562 0,9.09494702e-13" stroke="none" fill="#FFFFFF"></polygon></g></g><g transform="translate(0.0 35.78536815591815)"><g clip-path="url(#i29)"><polygon points="9.09494702e-13,9.09494702e-13 1.74804103,9.09494702e-13 1.74804103,1.53915562 9.09494702e-13,1.53915562 9.09494702e-13,9.09494702e-13" stroke="none" fill="#FFFFFF"></polygon></g></g><g transform="translate(-4.547473508864641e-13 47.71382420789041)"><g clip-path="url(#i30)"><polygon points="0,9.09494702e-13 1.74804103,9.09494702e-13 1.74804103,1.53915562 0,1.53915562 0,9.09494702e-13" stroke="none" fill="#FFFFFF"></polygon></g></g><g transform="translate(0.0 59.64228025986313)"><g clip-path="url(#i31)"><polygon points="0,9.09494702e-13 1.74804103,9.09494702e-13 1.74804103,1.53915562 0,1.53915562 0,9.09494702e-13" stroke="none" fill="#FFFFFF"></polygon></g></g></g><g transform="translate(62.92947690460096 9.094947017729282e-13)"><g clip-path="url(#i20)"><polygon points="9.09494702e-13,0 1.74804103,0 1.74804103,1.53973665 9.09494702e-13,1.53973665 9.09494702e-13,0" stroke="none" fill="#FFFFFF"></polygon></g><g transform="translate(4.547473508864641e-13 11.92833984543313)"><g clip-path="url(#i21)"><polygon points="0,0 1.74804103,0 1.74804103,1.53973665 0,1.53973665 0,0" stroke="none" fill="#FFFFFF"></polygon></g></g><g transform="translate(9.094947017729282e-13 23.8566796908658)"><g clip-path="url(#i20)"><polygon points="9.09494702e-13,9.09494702e-13 1.74804103,9.09494702e-13 1.74804103,1.53973665 9.09494702e-13,1.53973665 9.09494702e-13,9.09494702e-13" stroke="none" fill="#FFFFFF"></polygon></g></g><g transform="translate(0.0 35.78501953629848)"><g clip-path="url(#i32)"><polygon points="1.8189894e-12,0 1.74804103,0 1.74804103,1.53973665 1.8189894e-12,1.53973665 1.8189894e-12,0" stroke="none" fill="#FFFFFF"></polygon></g></g><g transform="translate(0.0 47.71335938173252)"><g clip-path="url(#i20)"><polygon points="9.09494702e-13,9.09494702e-13 1.74804103,9.09494702e-13 1.74804103,1.53973665 9.09494702e-13,1.53973665 9.09494702e-13,9.09494702e-13" stroke="none" fill="#FFFFFF"></polygon></g></g><g transform="translate(4.547473508864641e-13 59.64169922716519)"><g clip-path="url(#i22)"><polygon points="0,0 1.74804103,0 1.74804103,1.53973665 0,1.53973665 0,0" stroke="none" fill="#FFFFFF"></polygon></g></g></g><g transform="translate(70.79566151767449 1.8189894035458565e-12)"><g transform=""><g clip-path="url(#i33)"><polygon points="9.09494702e-13,9.09494702e-13 1.74804103,9.09494702e-13 1.74804103,1.53973665 9.09494702e-13,1.53973665 9.09494702e-13,9.09494702e-13" stroke="none" fill="#FFFFFF"></polygon></g></g><g transform="translate(4.547473508864641e-13 11.92833984543313)"><g clip-path="url(#i34)"><polygon points="1.8189894e-12,0 1.74804103,0 1.74804103,1.53973665 1.8189894e-12,1.53973665 1.8189894e-12,0" stroke="none" fill="#FFFFFF"></polygon></g></g><g transform="translate(9.094947017729282e-13 23.8566796908658)"><g clip-path="url(#i33)"><polygon points="0,9.09494702e-13 1.74804103,9.09494702e-13 1.74804103,1.53973665 0,1.53973665 0,9.09494702e-13" stroke="none" fill="#FFFFFF"></polygon></g></g><g transform="translate(4.547473508864641e-13 35.78501953629893)"><g clip-path="url(#i35)"><polygon points="1.8189894e-12,0 1.74804103,0 1.74804103,1.53973665 1.8189894e-12,1.53973665 1.8189894e-12,0" stroke="none" fill="#FFFFFF"></polygon></g></g><g transform="translate(0.0 47.71335938173252)"><g clip-path="url(#i33)"><polygon points="0,0 1.74804103,0 1.74804103,1.53973665 0,1.53973665 0,0" stroke="none" fill="#FFFFFF"></polygon></g></g><g transform="translate(0.0 59.64169922716519)"><g clip-path="url(#i36)"><polygon points="9.09494702e-13,9.09494702e-13 1.74804103,9.09494702e-13 1.74804103,1.53973665 9.09494702e-13,1.53973665 9.09494702e-13,9.09494702e-13" stroke="none" fill="#FFFFFF"></polygon></g></g></g><g transform="translate(80.40988715587719 1.8189894035458565e-12)"><g clip-path="url(#i37)"><polygon points="0,9.09494702e-13 1.74804103,9.09494702e-13 1.74804103,1.53973665 0,1.53973665 0,9.09494702e-13" stroke="none" fill="#FFFFFF"></polygon></g><g transform="translate(4.547473508864641e-13 11.92833984543267)"><g clip-path="url(#i38)"><polygon points="9.09494702e-13,0 1.74804103,0 1.74804103,1.53973665 9.09494702e-13,1.53973665 9.09494702e-13,0" stroke="none" fill="#FFFFFF"></polygon></g></g><g transform="translate(0.0 23.8566796908658)"><g clip-path="url(#i37)"><polygon points="1.8189894e-12,9.09494702e-13 1.74804103,9.09494702e-13 1.74804103,1.53973665 1.8189894e-12,1.53973665 1.8189894e-12,9.09494702e-13" stroke="none" fill="#FFFFFF"></polygon></g></g><g transform="translate(4.547473508864641e-13 35.78501953629893)"><g clip-path="url(#i25)"><polygon points="1.8189894e-12,-9.09494702e-13 1.74804103,-9.09494702e-13 1.74804103,1.53973665 1.8189894e-12,1.53973665 1.8189894e-12,-9.09494702e-13" stroke="none" fill="#FFFFFF"></polygon></g></g><g transform="translate(0.0 47.71335938173206)"><g clip-path="url(#i37)"><polygon points="9.09494702e-13,9.09494702e-13 1.74804103,9.09494702e-13 1.74804103,1.53973665 9.09494702e-13,1.53973665 9.09494702e-13,9.09494702e-13" stroke="none" fill="#FFFFFF"></polygon></g></g><g transform="translate(4.547473508864641e-13 59.64169922716474)"><g clip-path="url(#i39)"><polygon points="9.09494702e-13,0 1.74804103,0 1.74804103,1.53973665 9.09494702e-13,1.53973665 9.09494702e-13,0" stroke="none" fill="#FFFFFF"></polygon></g></g></g><g transform="translate(87.40205125639386 0.0)"><g clip-path="url(#i40)"><polygon points="0,9.09494702e-13 1.74804103,9.09494702e-13 1.74804103,1.53915562 0,1.53915562 0,9.09494702e-13" stroke="none" fill="#FFFFFF"></polygon></g><g transform="translate(0.0 11.92845605197272)"><g clip-path="url(#i40)"><polygon points="0,9.09494702e-13 1.74804103,9.09494702e-13 1.74804103,1.53915562 0,1.53915562 0,9.09494702e-13" stroke="none" fill="#FFFFFF"></polygon></g></g><g transform="translate(0.0 23.85691210394543)"><g clip-path="url(#i41)"><polygon points="9.09494702e-13,9.09494702e-13 1.74804103,9.09494702e-13 1.74804103,1.53915562 9.09494702e-13,1.53915562 9.09494702e-13,9.09494702e-13" stroke="none" fill="#FFFFFF"></polygon></g></g><g transform="translate(4.547473508864641e-13 35.78536815591769)"><g clip-path="url(#i42)"><polygon points="0,1.8189894e-12 1.74804103,1.8189894e-12 1.74804103,1.53915562 0,1.53915562 0,1.8189894e-12" stroke="none" fill="#FFFFFF"></polygon></g></g><g transform="translate(0.0 47.71382420789041)"><g clip-path="url(#i43)"><polygon points="0,9.09494702e-13 1.74804103,9.09494702e-13 1.74804103,1.53915562 0,1.53915562 0,9.09494702e-13" stroke="none" fill="#FFFFFF"></polygon></g></g><g transform="translate(0.0 59.64228025986313)"><g clip-path="url(#i44)"><polygon points="0,0 1.74804103,0 1.74804103,1.53915562 0,1.53915562 0,0" stroke="none" fill="#FFFFFF"></polygon></g></g></g><g transform="translate(97.01627689459565 1.8189894035458565e-12)"><g clip-path="url(#i27)"><polygon points="9.09494702e-13,9.09494702e-13 1.74804103,9.09494702e-13 1.74804103,1.53915562 9.09494702e-13,1.53915562 9.09494702e-13,9.09494702e-13" stroke="none" fill="#FFFFFF"></polygon></g><g transform="translate(4.547473508864641e-13 11.92845605197272)"><g clip-path="url(#i27)"><polygon points="0,9.09494702e-13 1.74804103,9.09494702e-13 1.74804103,1.53915562 0,1.53915562 0,9.09494702e-13" stroke="none" fill="#FFFFFF"></polygon></g></g><g transform="translate(4.547473508864641e-13 23.85691210394543)"><g clip-path="url(#i28)"><polygon points="-9.09494702e-13,9.09494702e-13 1.74804103,9.09494702e-13 1.74804103,1.53915562 -9.09494702e-13,1.53915562 -9.09494702e-13,9.09494702e-13" stroke="none" fill="#FFFFFF"></polygon></g></g><g transform="translate(0.0 35.78536815591815)"><g clip-path="url(#i29)"><polygon points="0,9.09494702e-13 1.74804103,9.09494702e-13 1.74804103,1.53915562 0,1.53915562 0,9.09494702e-13" stroke="none" fill="#FFFFFF"></polygon></g></g><g transform="translate(4.547473508864641e-13 47.71382420789041)"><g clip-path="url(#i30)"><polygon points="-9.09494702e-13,1.8189894e-12 1.74804103,1.8189894e-12 1.74804103,1.53915562 -9.09494702e-13,1.53915562 -9.09494702e-13,1.8189894e-12" stroke="none" fill="#FFFFFF"></polygon></g></g><g transform="translate(4.547473508864641e-13 59.64228025986313)"><g clip-path="url(#i31)"><polygon points="0,9.09494702e-13 1.74804103,9.09494702e-13 1.74804103,1.53915562 0,1.53915562 0,9.09494702e-13" stroke="none" fill="#FFFFFF"></polygon></g></g></g><g transform="translate(105.7564820202324 9.094947017729282e-13)"><g clip-path="url(#i40)"><polygon points="9.09494702e-13,0 1.74804103,0 1.74804103,1.53915562 9.09494702e-13,1.53915562 9.09494702e-13,0" stroke="none" fill="#FFFFFF"></polygon></g><g transform="translate(4.547473508864641e-13 11.92845605197226)"><g clip-path="url(#i41)"><polygon points="9.09494702e-13,9.09494702e-13 1.74804103,9.09494702e-13 1.74804103,1.53915562 9.09494702e-13,1.53915562 9.09494702e-13,9.09494702e-13" stroke="none" fill="#FFFFFF"></polygon></g></g><g transform="translate(0.0 23.85691210394498)"><g clip-path="url(#i41)"><polygon points="0,0 1.74804103,0 1.74804103,1.53915562 0,1.53915562 0,0" stroke="none" fill="#FFFFFF"></polygon></g></g><g transform="translate(4.547473508864641e-13 35.78536815591769)"><g clip-path="url(#i45)"><polygon points="0,9.09494702e-13 1.74804103,9.09494702e-13 1.74804103,1.53915562 0,1.53915562 0,9.09494702e-13" stroke="none" fill="#FFFFFF"></polygon></g></g><g transform="translate(4.547473508864641e-13 47.71382420789041)"><g clip-path="url(#i43)"><polygon points="9.09494702e-13,0 1.74804103,0 1.74804103,1.53915562 9.09494702e-13,1.53915562 9.09494702e-13,0" stroke="none" fill="#FFFFFF"></polygon></g></g><g transform="translate(4.547473508864641e-13 59.64228025986313)"><g clip-path="url(#i44)"><polygon points="9.09494702e-13,9.09494702e-13 1.74804103,9.09494702e-13 1.74804103,1.53915562 9.09494702e-13,1.53915562 9.09494702e-13,9.09494702e-13" stroke="none" fill="#FFFFFF"></polygon></g></g></g><g transform="translate(115.3707076584351 4.547473508864641e-12)"><g clip-path="url(#i40)"><polygon points="1.8189894e-12,0 1.74804103,0 1.74804103,1.53915562 1.8189894e-12,1.53915562 1.8189894e-12,0" stroke="none" fill="#FFFFFF"></polygon></g><g transform="translate(0.0 11.92845605197317)"><g clip-path="url(#i40)"><polygon points="9.09494702e-13,0 1.74804103,0 1.74804103,1.53915562 9.09494702e-13,1.53915562 9.09494702e-13,0" stroke="none" fill="#FFFFFF"></polygon></g></g><g transform="translate(0.0 23.85691210394543)"><g clip-path="url(#i41)"><polygon points="9.09494702e-13,0 1.74804103,0 1.74804103,1.53915562 9.09494702e-13,1.53915562 9.09494702e-13,0" stroke="none" fill="#FFFFFF"></polygon></g></g><g transform="translate(0.0 35.7853681559186)"><g clip-path="url(#i42)"><polygon points="1.8189894e-12,0 1.74804103,0 1.74804103,1.53915562 1.8189894e-12,1.53915562 1.8189894e-12,0" stroke="none" fill="#FFFFFF"></polygon></g></g><g transform="translate(0.0 47.71382420789087)"><g clip-path="url(#i43)"><polygon points="1.8189894e-12,0 1.74804103,0 1.74804103,1.53915562 1.8189894e-12,1.53915562 1.8189894e-12,0" stroke="none" fill="#FFFFFF"></polygon></g></g><g transform="translate(4.547473508864641e-13 59.64228025986358)"><g clip-path="url(#i44)"><polygon points="1.8189894e-12,0 1.74804103,0 1.74804103,1.53915562 1.8189894e-12,1.53915562 1.8189894e-12,0" stroke="none" fill="#FFFFFF"></polygon></g></g></g><g transform="translate(123.2368922715086 2.7284841053187847e-12)"><g clip-path="url(#i27)"><polygon points="9.09494702e-13,0 1.74804103,0 1.74804103,1.53915562 9.09494702e-13,1.53915562 9.09494702e-13,0" stroke="none" fill="#FFFFFF"></polygon></g><g transform="translate(4.547473508864641e-13 11.92845605197272)"><g clip-path="url(#i27)"><polygon points="0,0 1.74804103,0 1.74804103,1.53915562 0,1.53915562 0,0" stroke="none" fill="#FFFFFF"></polygon></g></g><g transform="translate(4.547473508864641e-13 23.85691210394543)"><g clip-path="url(#i28)"><polygon points="0,0 1.74804103,0 1.74804103,1.53915562 0,1.53915562 0,0" stroke="none" fill="#FFFFFF"></polygon></g></g><g transform="translate(4.547473508864641e-13 35.78536815591815)"><g clip-path="url(#i29)"><polygon points="9.09494702e-13,0 1.74804103,0 1.74804103,1.53915562 9.09494702e-13,1.53915562 9.09494702e-13,0" stroke="none" fill="#FFFFFF"></polygon></g></g><g transform="translate(4.547473508864641e-13 47.71382420789041)"><g clip-path="url(#i30)"><polygon points="9.09494702e-13,0 1.74804103,0 1.74804103,1.53915562 9.09494702e-13,1.53915562 9.09494702e-13,0" stroke="none" fill="#FFFFFF"></polygon></g></g><g transform="translate(4.547473508864641e-13 59.64228025986313)"><g clip-path="url(#i31)"><polygon points="0,9.09494702e-13 1.74804103,9.09494702e-13 1.74804103,1.53915562 0,1.53915562 0,9.09494702e-13" stroke="none" fill="#FFFFFF"></polygon></g></g></g></g></g><g transform="translate(901.9999999999999 331.36913330326416) rotate(90.0)"><g opacity="40.4170445%"><g transform="translate(-5.684341886080802e-14 0.4345991561176561)"><g clip-path="url(#i46)"><polygon points="-7.10542736e-15,0 2.62303665,0 2.62303665,2.58123571 -7.10542736e-15,2.58123571 -7.10542736e-15,0" stroke="none" fill="#FFFFFF"></polygon></g><g transform="translate(0.0 19.99683302724497)"><g clip-path="url(#i47)"><polygon points="-7.10542736e-15,0 2.62303665,0 2.62303665,2.58123571 -7.10542736e-15,2.58123571 -7.10542736e-15,0" stroke="none" fill="#FFFFFF"></polygon></g></g><g transform="translate(0.0 39.99366605448813)"><g clip-path="url(#i48)"><polygon points="-7.10542736e-15,0 2.62303665,0 2.62303665,2.58123571 -7.10542736e-15,2.58123571 -7.10542736e-15,0" stroke="none" fill="#FFFFFF"></polygon></g></g><g transform="translate(0.0 59.99049908173311)"><g clip-path="url(#i47)"><polygon points="0,0 2.62303665,0 2.62303665,2.58123571 0,2.58123571 0,0" stroke="none" fill="#FFFFFF"></polygon></g></g><g transform="translate(0.0 79.98733210897626)"><g clip-path="url(#i49)"><polygon points="0,0 2.62303665,0 2.62303665,2.58123571 0,2.58123571 0,0" stroke="none" fill="#FFFFFF"></polygon></g></g><g transform="translate(0.0 99.98416513622215)"><g clip-path="url(#i50)"><polygon points="0,0 2.62303665,0 2.62303665,2.58123571 0,2.58123571 0,0" stroke="none" fill="#FFFFFF"></polygon></g></g></g><g transform="translate(12.67801047120412 0.0)"><g clip-path="url(#i51)"><polygon points="-7.10542736e-15,0 1.7486911,0 1.7486911,2.58026166 -7.10542736e-15,2.58026166 -7.10542736e-15,0" stroke="none" fill="#FFFFFF"></polygon></g><g transform="translate(0.0 19.99702783748671)"><g clip-path="url(#i52)"><polygon points="-7.10542736e-15,0 1.7486911,0 1.7486911,2.58026166 -7.10542736e-15,2.58026166 -7.10542736e-15,0" stroke="none" fill="#FFFFFF"></polygon></g></g><g transform="translate(0.0 39.99405567497251)"><g clip-path="url(#i53)"><polygon points="-7.10542736e-15,0 1.7486911,0 1.7486911,2.58026166 -7.10542736e-15,2.58026166 -7.10542736e-15,0" stroke="none" fill="#FFFFFF"></polygon></g></g><g transform="translate(0.0 59.99108351246014)"><g clip-path="url(#i54)"><polygon points="0,0 1.7486911,0 1.7486911,2.58026166 0,2.58026166 0,0" stroke="none" fill="#FFFFFF"></polygon></g></g><g transform="translate(0.0 79.98811134994594)"><g clip-path="url(#i55)"><polygon points="0,0 1.7486911,0 1.7486911,2.58026166 0,2.58026166 0,0" stroke="none" fill="#FFFFFF"></polygon></g></g><g transform="translate(0.0 99.98513918743174)"><g clip-path="url(#i55)"><polygon points="0,0 1.7486911,0 1.7486911,2.58026166 0,2.58026166 0,0" stroke="none" fill="#FFFFFF"></polygon></g></g></g><g transform="translate(23.6073298429319 0.4345991561176561)"><g clip-path="url(#i56)"><polygon points="-7.10542736e-15,0 2.62303665,0 2.62303665,2.58026166 -7.10542736e-15,2.58026166 -7.10542736e-15,0" stroke="none" fill="#FFFFFF"></polygon></g><g transform="translate(0.0 19.99702783748671)"><g clip-path="url(#i57)"><polygon points="-7.10542736e-15,0 2.62303665,0 2.62303665,2.58026166 -7.10542736e-15,2.58026166 -7.10542736e-15,0" stroke="none" fill="#FFFFFF"></polygon></g></g><g transform="translate(0.0 39.99405567497251)"><g clip-path="url(#i58)"><polygon points="-7.10542736e-15,0 2.62303665,0 2.62303665,2.58026166 -7.10542736e-15,2.58026166 -7.10542736e-15,0" stroke="none" fill="#FFFFFF"></polygon></g></g><g transform="translate(0.0 59.99108351246014)"><g clip-path="url(#i59)"><polygon points="0,0 2.62303665,0 2.62303665,2.58026166 0,2.58026166 0,0" stroke="none" fill="#FFFFFF"></polygon></g></g><g transform="translate(0.0 79.98811134994594)"><g clip-path="url(#i60)"><polygon points="0,0 2.62303665,0 2.62303665,2.58026166 0,2.58026166 0,0" stroke="none" fill="#FFFFFF"></polygon></g></g><g transform="translate(0.0 99.98513918743174)"><g clip-path="url(#i60)"><polygon points="0,0 2.62303665,0 2.62303665,2.58026166 0,2.58026166 0,0" stroke="none" fill="#FFFFFF"></polygon></g></g></g><g transform="translate(34.09947643979052 0.4345991561176561)"><g clip-path="url(#i61)"><polygon points="0,0 2.62303665,0 2.62303665,2.58123571 0,2.58123571 0,0" stroke="none" fill="#FFFFFF"></polygon></g><g transform="translate(0.0 19.99683302724497)"><g clip-path="url(#i62)"><polygon points="0,0 2.62303665,0 2.62303665,2.58123571 0,2.58123571 0,0" stroke="none" fill="#FFFFFF"></polygon></g></g><g transform="translate(0.0 39.99366605448813)"><g clip-path="url(#i63)"><polygon points="0,0 2.62303665,0 2.62303665,2.58123571 0,2.58123571 0,0" stroke="none" fill="#FFFFFF"></polygon></g></g><g transform="translate(0.0 59.99049908173311)"><g clip-path="url(#i62)"><polygon points="-1.42108547e-14,0 2.62303665,0 2.62303665,2.58123571 -1.42108547e-14,2.58123571 -1.42108547e-14,0" stroke="none" fill="#FFFFFF"></polygon></g></g><g transform="translate(0.0 79.98733210897626)"><g clip-path="url(#i64)"><polygon points="-1.42108547e-14,0 2.62303665,0 2.62303665,2.58123571 -1.42108547e-14,2.58123571 -1.42108547e-14,0" stroke="none" fill="#FFFFFF"></polygon></g></g><g transform="translate(0.0 99.98416513622215)"><g clip-path="url(#i65)"><polygon points="-1.42108547e-14,0 2.62303665,0 2.62303665,2.58123571 -1.42108547e-14,2.58123571 -1.42108547e-14,0" stroke="none" fill="#FFFFFF"></polygon></g></g></g><g transform="translate(47.21465968586381 0.4345991561176561)"><g clip-path="url(#i66)"><polygon points="0,0 2.62303665,0 2.62303665,2.58123571 0,2.58123571 0,0" stroke="none" fill="#FFFFFF"></polygon></g><g transform="translate(0.0 19.99683302724497)"><g clip-path="url(#i67)"><polygon points="0,0 2.62303665,0 2.62303665,2.58123571 0,2.58123571 0,0" stroke="none" fill="#FFFFFF"></polygon></g></g><g transform="translate(0.0 39.99366605448813)"><g clip-path="url(#i68)"><polygon points="0,0 2.62303665,0 2.62303665,2.58123571 0,2.58123571 0,0" stroke="none" fill="#FFFFFF"></polygon></g></g><g transform="translate(0.0 59.99049908173311)"><g clip-path="url(#i67)"><polygon points="-1.42108547e-14,0 2.62303665,0 2.62303665,2.58123571 -1.42108547e-14,2.58123571 -1.42108547e-14,0" stroke="none" fill="#FFFFFF"></polygon></g></g><g transform="translate(0.0 79.98733210897626)"><g clip-path="url(#i69)"><polygon points="-1.42108547e-14,0 2.62303665,0 2.62303665,2.58123571 -1.42108547e-14,2.58123571 -1.42108547e-14,0" stroke="none" fill="#FFFFFF"></polygon></g></g><g transform="translate(0.0 99.98416513622215)"><g clip-path="url(#i70)"><polygon points="-1.42108547e-14,0 2.62303665,0 2.62303665,2.58123571 -1.42108547e-14,2.58123571 -1.42108547e-14,0" stroke="none" fill="#FFFFFF"></polygon></g></g></g><g transform="translate(60.32984293193709 0.4345991561176561)"><g clip-path="url(#i66)"><polygon points="0,0 2.62303665,0 2.62303665,2.58123571 0,2.58123571 0,0" stroke="none" fill="#FFFFFF"></polygon></g><g transform="translate(0.0 19.99683302724497)"><g clip-path="url(#i67)"><polygon points="0,0 2.62303665,0 2.62303665,2.58123571 0,2.58123571 0,0" stroke="none" fill="#FFFFFF"></polygon></g></g><g transform="translate(0.0 39.99366605448813)"><g clip-path="url(#i68)"><polygon points="0,0 2.62303665,0 2.62303665,2.58123571 0,2.58123571 0,0" stroke="none" fill="#FFFFFF"></polygon></g></g><g transform="translate(0.0 59.99049908173311)"><g clip-path="url(#i67)"><polygon points="-1.42108547e-14,0 2.62303665,0 2.62303665,2.58123571 -1.42108547e-14,2.58123571 -1.42108547e-14,0" stroke="none" fill="#FFFFFF"></polygon></g></g><g transform="translate(0.0 79.98733210897626)"><g clip-path="url(#i69)"><polygon points="-1.42108547e-14,0 2.62303665,0 2.62303665,2.58123571 -1.42108547e-14,2.58123571 -1.42108547e-14,0" stroke="none" fill="#FFFFFF"></polygon></g></g><g transform="translate(0.0 99.98416513622215)"><g clip-path="url(#i70)"><polygon points="-1.42108547e-14,0 2.62303665,0 2.62303665,2.58123571 -1.42108547e-14,2.58123571 -1.42108547e-14,0" stroke="none" fill="#FFFFFF"></polygon></g></g></g><g transform="translate(71.25916230366488 0.0)"><g clip-path="url(#i71)"><polygon points="0,0 1.7486911,0 1.7486911,2.58026166 0,2.58026166 0,0" stroke="none" fill="#FFFFFF"></polygon></g><g transform="translate(0.0 19.99702783748671)"><g clip-path="url(#i72)"><polygon points="0,0 1.7486911,0 1.7486911,2.58026166 0,2.58026166 0,0" stroke="none" fill="#FFFFFF"></polygon></g></g><g transform="translate(0.0 39.99405567497251)"><g clip-path="url(#i73)"><polygon points="0,0 1.7486911,0 1.7486911,2.58026166 0,2.58026166 0,0" stroke="none" fill="#FFFFFF"></polygon></g></g><g transform="translate(0.0 59.99108351246014)"><g clip-path="url(#i74)"><polygon points="-1.42108547e-14,0 1.7486911,0 1.7486911,2.58026166 -1.42108547e-14,2.58026166 -1.42108547e-14,0" stroke="none" fill="#FFFFFF"></polygon></g></g><g transform="translate(0.0 79.98811134994594)"><g clip-path="url(#i75)"><polygon points="-1.42108547e-14,0 1.7486911,0 1.7486911,2.58026166 -1.42108547e-14,2.58026166 -1.42108547e-14,0" stroke="none" fill="#FFFFFF"></polygon></g></g><g transform="translate(0.0 99.98513918743174)"><g clip-path="url(#i75)"><polygon points="-1.42108547e-14,0 1.7486911,0 1.7486911,2.58026166 -1.42108547e-14,2.58026166 -1.42108547e-14,0" stroke="none" fill="#FFFFFF"></polygon></g></g></g><g transform="translate(83.93717277486905 0.4345991561176561)"><g clip-path="url(#i66)"><polygon points="0,0 2.62303665,0 2.62303665,2.58123571 0,2.58123571 0,0" stroke="none" fill="#FFFFFF"></polygon></g><g transform="translate(0.0 19.99683302724497)"><g clip-path="url(#i67)"><polygon points="0,0 2.62303665,0 2.62303665,2.58123571 0,2.58123571 0,0" stroke="none" fill="#FFFFFF"></polygon></g></g><g transform="translate(0.0 39.99366605448813)"><g clip-path="url(#i68)"><polygon points="0,0 2.62303665,0 2.62303665,2.58123571 0,2.58123571 0,0" stroke="none" fill="#FFFFFF"></polygon></g></g><g transform="translate(0.0 59.99049908173311)"><g clip-path="url(#i67)"><polygon points="-1.42108547e-14,0 2.62303665,0 2.62303665,2.58123571 -1.42108547e-14,2.58123571 -1.42108547e-14,0" stroke="none" fill="#FFFFFF"></polygon></g></g><g transform="translate(0.0 79.98733210897626)"><g clip-path="url(#i69)"><polygon points="-1.42108547e-14,0 2.62303665,0 2.62303665,2.58123571 -1.42108547e-14,2.58123571 -1.42108547e-14,0" stroke="none" fill="#FFFFFF"></polygon></g></g><g transform="translate(0.0 99.98416513622215)"><g clip-path="url(#i70)"><polygon points="-1.42108547e-14,0 2.62303665,0 2.62303665,2.58123571 -1.42108547e-14,2.58123571 -1.42108547e-14,0" stroke="none" fill="#FFFFFF"></polygon></g></g></g><g transform="translate(94.42931937172773 0.4345991561176561)"><g clip-path="url(#i76)"><polygon points="0,0 2.62303665,0 2.62303665,2.58123571 0,2.58123571 0,0" stroke="none" fill="#FFFFFF"></polygon></g><g transform="translate(0.0 19.99683302724497)"><g clip-path="url(#i77)"><polygon points="0,0 2.62303665,0 2.62303665,2.58123571 0,2.58123571 0,0" stroke="none" fill="#FFFFFF"></polygon></g></g><g transform="translate(0.0 39.99366605448813)"><g clip-path="url(#i78)"><polygon points="0,0 2.62303665,0 2.62303665,2.58123571 0,2.58123571 0,0" stroke="none" fill="#FFFFFF"></polygon></g></g><g transform="translate(0.0 59.99049908173311)"><g clip-path="url(#i77)"><polygon points="0,0 2.62303665,0 2.62303665,2.58123571 0,2.58123571 0,0" stroke="none" fill="#FFFFFF"></polygon></g></g><g transform="translate(0.0 79.98733210897626)"><g clip-path="url(#i79)"><polygon points="0,0 2.62303665,0 2.62303665,2.58123571 0,2.58123571 0,0" stroke="none" fill="#FFFFFF"></polygon></g></g><g transform="translate(0.0 99.98416513622215)"><g clip-path="url(#i80)"><polygon points="0,0 2.62303665,0 2.62303665,2.58123571 0,2.58123571 0,0" stroke="none" fill="#FFFFFF"></polygon></g></g></g><g transform="translate(107.544502617801 0.4345991561176561)"><g clip-path="url(#i76)"><polygon points="0,0 2.62303665,0 2.62303665,2.58123571 0,2.58123571 0,0" stroke="none" fill="#FFFFFF"></polygon></g><g transform="translate(0.0 19.99683302724497)"><g clip-path="url(#i77)"><polygon points="0,0 2.62303665,0 2.62303665,2.58123571 0,2.58123571 0,0" stroke="none" fill="#FFFFFF"></polygon></g></g><g transform="translate(0.0 39.99366605448813)"><g clip-path="url(#i78)"><polygon points="0,0 2.62303665,0 2.62303665,2.58123571 0,2.58123571 0,0" stroke="none" fill="#FFFFFF"></polygon></g></g><g transform="translate(0.0 59.99049908173311)"><g clip-path="url(#i77)"><polygon points="0,0 2.62303665,0 2.62303665,2.58123571 0,2.58123571 0,0" stroke="none" fill="#FFFFFF"></polygon></g></g><g transform="translate(0.0 79.98733210897626)"><g clip-path="url(#i79)"><polygon points="0,0 2.62303665,0 2.62303665,2.58123571 0,2.58123571 0,0" stroke="none" fill="#FFFFFF"></polygon></g></g><g transform="translate(0.0 99.98416513622215)"><g clip-path="url(#i80)"><polygon points="0,0 2.62303665,0 2.62303665,2.58123571 0,2.58123571 0,0" stroke="none" fill="#FFFFFF"></polygon></g></g></g><g transform="translate(117.1623036649214 0.4345991561176561)"><g clip-path="url(#i81)"><polygon points="0,0 2.62303665,0 2.62303665,2.58026166 0,2.58026166 0,0" stroke="none" fill="#FFFFFF"></polygon></g><g transform="translate(0.0 19.99702783748671)"><g clip-path="url(#i82)"><polygon points="0,0 2.62303665,0 2.62303665,2.58026166 0,2.58026166 0,0" stroke="none" fill="#FFFFFF"></polygon></g></g><g transform="translate(0.0 39.99405567497251)"><g clip-path="url(#i83)"><polygon points="0,0 2.62303665,0 2.62303665,2.58026166 0,2.58026166 0,0" stroke="none" fill="#FFFFFF"></polygon></g></g><g transform="translate(0.0 59.99108351246014)"><g clip-path="url(#i84)"><polygon points="0,0 2.62303665,0 2.62303665,2.58026166 0,2.58026166 0,0" stroke="none" fill="#FFFFFF"></polygon></g></g><g transform="translate(0.0 79.98811134994594)"><g clip-path="url(#i85)"><polygon points="0,0 2.62303665,0 2.62303665,2.58026166 0,2.58026166 0,0" stroke="none" fill="#FFFFFF"></polygon></g></g><g transform="translate(0.0 99.98513918743174)"><g clip-path="url(#i85)"><polygon points="0,0 2.62303665,0 2.62303665,2.58026166 0,2.58026166 0,0" stroke="none" fill="#FFFFFF"></polygon></g></g></g><g transform="translate(129.40314136125647 0.4345991561176561)"><g clip-path="url(#i86)"><polygon points="0,0 2.62303665,0 2.62303665,2.58026166 0,2.58026166 0,0" stroke="none" fill="#FFFFFF"></polygon></g><g transform="translate(0.0 19.99702783748671)"><g clip-path="url(#i87)"><polygon points="0,0 2.62303665,0 2.62303665,2.58026166 0,2.58026166 0,0" stroke="none" fill="#FFFFFF"></polygon></g></g><g transform="translate(0.0 39.99405567497251)"><g clip-path="url(#i88)"><polygon points="0,0 2.62303665,0 2.62303665,2.58026166 0,2.58026166 0,0" stroke="none" fill="#FFFFFF"></polygon></g></g><g transform="translate(0.0 59.99108351246014)"><g clip-path="url(#i89)"><polygon points="0,0 2.62303665,0 2.62303665,2.58026166 0,2.58026166 0,0" stroke="none" fill="#FFFFFF"></polygon></g></g><g transform="translate(0.0 79.98811134994594)"><g clip-path="url(#i90)"><polygon points="0,0 2.62303665,0 2.62303665,2.58026166 0,2.58026166 0,0" stroke="none" fill="#FFFFFF"></polygon></g></g><g transform="translate(0.0 99.98513918743174)"><g clip-path="url(#i90)"><polygon points="0,0 2.62303665,0 2.62303665,2.58026166 0,2.58026166 0,0" stroke="none" fill="#FFFFFF"></polygon></g></g></g><g transform="translate(140.7696335078533 0.4345991561176561)"><g clip-path="url(#i91)"><polygon points="0,0 2.62303665,0 2.62303665,2.58026166 0,2.58026166 0,0" stroke="none" fill="#FFFFFF"></polygon></g><g transform="translate(0.0 19.99702783748671)"><g clip-path="url(#i92)"><polygon points="0,0 2.62303665,0 2.62303665,2.58026166 0,2.58026166 0,0" stroke="none" fill="#FFFFFF"></polygon></g></g><g transform="translate(0.0 39.99405567497251)"><g clip-path="url(#i93)"><polygon points="0,0 2.62303665,0 2.62303665,2.58026166 0,2.58026166 0,0" stroke="none" fill="#FFFFFF"></polygon></g></g><g transform="translate(0.0 59.99108351246014)"><g clip-path="url(#i94)"><polygon points="0,0 2.62303665,0 2.62303665,2.58026166 0,2.58026166 0,0" stroke="none" fill="#FFFFFF"></polygon></g></g><g transform="translate(0.0 79.98811134994594)"><g clip-path="url(#i95)"><polygon points="0,0 2.62303665,0 2.62303665,2.58026166 0,2.58026166 0,0" stroke="none" fill="#FFFFFF"></polygon></g></g><g transform="translate(0.0 99.98513918743174)"><g clip-path="url(#i95)"><polygon points="0,0 2.62303665,0 2.62303665,2.58026166 0,2.58026166 0,0" stroke="none" fill="#FFFFFF"></polygon></g></g></g><g transform="translate(153.0104712041884 0.4345991561176561)"><g clip-path="url(#i96)"><polygon points="0,0 2.62303665,0 2.62303665,2.58026166 0,2.58026166 0,0" stroke="none" fill="#FFFFFF"></polygon></g><g transform="translate(0.0 19.99702783748671)"><g clip-path="url(#i97)"><polygon points="0,0 2.62303665,0 2.62303665,2.58026166 0,2.58026166 0,0" stroke="none" fill="#FFFFFF"></polygon></g></g><g transform="translate(0.0 39.99405567497251)"><g clip-path="url(#i98)"><polygon points="0,0 2.62303665,0 2.62303665,2.58026166 0,2.58026166 0,0" stroke="none" fill="#FFFFFF"></polygon></g></g><g transform="translate(0.0 59.99108351246014)"><g clip-path="url(#i99)"><polygon points="0,0 2.62303665,0 2.62303665,2.58026166 0,2.58026166 0,0" stroke="none" fill="#FFFFFF"></polygon></g></g><g transform="translate(0.0 79.98811134994594)"><g clip-path="url(#i100)"><polygon points="0,0 2.62303665,0 2.62303665,2.58026166 0,2.58026166 0,0" stroke="none" fill="#FFFFFF"></polygon></g></g><g transform="translate(0.0 99.98513918743174)"><g clip-path="url(#i100)"><polygon points="0,0 2.62303665,0 2.62303665,2.58026166 0,2.58026166 0,0" stroke="none" fill="#FFFFFF"></polygon></g></g></g><g transform="translate(164.3769633507853 0.4345991561176561)"><g clip-path="url(#i91)"><polygon points="0,0 2.62303665,0 2.62303665,2.58026166 0,2.58026166 0,0" stroke="none" fill="#FFFFFF"></polygon></g><g transform="translate(0.0 19.99702783748671)"><g clip-path="url(#i92)"><polygon points="0,0 2.62303665,0 2.62303665,2.58026166 0,2.58026166 0,0" stroke="none" fill="#FFFFFF"></polygon></g></g><g transform="translate(0.0 39.99405567497251)"><g clip-path="url(#i93)"><polygon points="0,0 2.62303665,0 2.62303665,2.58026166 0,2.58026166 0,0" stroke="none" fill="#FFFFFF"></polygon></g></g><g transform="translate(0.0 59.99108351246014)"><g clip-path="url(#i94)"><polygon points="0,0 2.62303665,0 2.62303665,2.58026166 0,2.58026166 0,0" stroke="none" fill="#FFFFFF"></polygon></g></g><g transform="translate(0.0 79.98811134994594)"><g clip-path="url(#i95)"><polygon points="0,0 2.62303665,0 2.62303665,2.58026166 0,2.58026166 0,0" stroke="none" fill="#FFFFFF"></polygon></g></g><g transform="translate(0.0 99.98513918743174)"><g clip-path="url(#i95)"><polygon points="0,0 2.62303665,0 2.62303665,2.58026166 0,2.58026166 0,0" stroke="none" fill="#FFFFFF"></polygon></g></g></g></g></g><g transform="translate(722.0 133.3691333032642)"><g clip-path="url(#i101)"><path d="M24,48 C37.254834,48 48,37.254834 48,24 C48,10.745166 37.254834,0 24,0 C10.745166,0 0,10.745166 0,24 C0,37.254834 10.745166,48 24,48 Z" stroke="#FFFFFF" stroke-width="30" fill="none" stroke-miterlimit="5" opacity="49.4742257%"></path></g></g><g transform="translate(790.0 159.3691333032642)"><g clip-path="url(#i102)"><polygon points="0,0 19,0 19,19 0,19 0,0" stroke="none" fill="#FFFFFF" opacity="49.8507545%"></polygon></g></g><g transform="translate(790.9234533455085 194.3266469895013) rotate(44.99999999999999)"><g clip-path="url(#i103)"><polygon points="0,0 120.614831,0 120.614831,119.74081 0,119.74081 0,0 0,0" stroke="#D2E5F9" stroke-width="24" fill="none" stroke-miterlimit="5" opacity="19.9747431%"></polygon></g></g><g transform="translate(533.0231962071616 297.0000000000001) rotate(44.99999999999999)"><g clip-path="url(#i104)"><polygon points="0,0 186.166369,0 186.166369,190.536472 0,190.536472 0,0 0,0" stroke="#D2E5F9" stroke-width="24" fill="none" stroke-miterlimit="5" opacity="20%"></polygon></g></g><g transform="translate(995.0231962071616 2.842170943040401e-14) rotate(44.99999999999999)"><g clip-path="url(#i104)"><polygon points="0,0 186.166369,0 186.166369,190.536472 0,190.536472 0,0 0,0" stroke="#D2E5F9" stroke-width="24" fill="none" stroke-miterlimit="5" opacity="20%"></polygon></g></g><g transform="translate(733.9124003025681 323.3691333032633)"><g opacity="80.3420294%"><g transform="translate(2.889419719942053 5.1514348342607263e-14) rotate(44.99999999999999)"><g clip-path="url(#i105)"><polygon points="9.09494702e-13,0 18.6878801,0 18.6878801,3.93953692 9.09494702e-13,3.93953692 9.09494702e-13,0" stroke="none" fill="#FFFFFF"></polygon></g></g><g transform="translate(1.5631940186722204e-13 13.100272273775623) rotate(-43.99999999999999)"><g clip-path="url(#i106)"><polygon points="0,0 18.6805124,0 18.6805124,3.94087717 0,3.94087717 0,0" stroke="none" fill="#FFFFFF"></polygon></g></g></g></g><g transform="translate(808.9124003025681 53.369133303263254)"><g opacity="50.2421061%"><g transform="translate(2.889419719942053 5.1514348342607263e-14) rotate(44.99999999999999)"><g clip-path="url(#i105)"><polygon points="0,0 18.6878801,0 18.6878801,3.93953692 0,3.93953692 0,0" stroke="none" fill="#FFFFFF"></polygon></g></g><g transform="translate(1.5631940186722204e-13 13.100272273775623) rotate(-43.99999999999999)"><g clip-path="url(#i106)"><polygon points="0,0 18.6805124,0 18.6805124,3.94087717 0,3.94087717 0,0" stroke="none" fill="#FFFFFF"></polygon></g></g></g></g><g transform="translate(791.2623143981463 363.9588627213734) rotate(44.99999999999999)"><g clip-path="url(#i107)"><polygon points="0,0 97.0162769,0 97.0162769,94.3942154 0,94.3942154 0,0 0,0" stroke="#FFFFFF" stroke-width="24" fill="none" stroke-miterlimit="5" opacity="20.8868118%"></polygon></g></g></g><g transform="translate(24.00000000000069 181.5383070190546)"><path d="M0,1.54115726 C1.30704374,2.62944697 9.16631072,-1.06264904 10.647743,0.310385752 C13.3457916,2.81101618 9.43572073,10.666359 12.1456876,13.1094922 C14.1179223,14.887533 26.3071203,2.54959386 24.0677275,21.908651 C23.5479603,26.4019239 36.3896398,14.7690584 36.3896398,22.9330492 C36.3896398,24.9195309 33.50876,30.5672434 36.3896398,31.6791282 C39.9206076,33.0419165 46.5289993,30.1242214 47.0594173,30.5628683 C48.3113815,31.598222 48.4234278,35.7439326 47.395556,43" stroke="#FFFFFF" stroke-width="3" fill="none" stroke-linecap="square" stroke-miterlimit="10" opacity="28.348069%"></path></g><g transform="translate(88.0 492.0)"><g opacity="50%"><g transform="translate(23.0 25.0)"><g clip-path="url(#i108)"><path d="M40.5,81 C62.8675324,81 81,62.8675324 81,40.5 C81,18.1324676 62.8675324,0 40.5,0 C18.1324676,0 0,18.1324676 0,40.5 C0,62.8675324 18.1324676,81 40.5,81 Z" stroke="#FFFFFF" stroke-width="4" fill="none" stroke-miterlimit="5"></path></g></g><g transform="translate(17.0 18.0)"><g clip-path="url(#i109)"><path d="M47.5,95 C73.7335256,95 95,73.7335256 95,47.5 C95,21.2664744 73.7335256,0 47.5,0 C21.2664744,0 0,21.2664744 0,47.5 C0,73.7335256 21.2664744,95 47.5,95 Z" stroke="#FFFFFF" stroke-width="4" fill="none" stroke-miterlimit="5"></path></g></g><g transform="translate(7.0 7.0)"><g clip-path="url(#i110)"><path d="M57.5,115 C89.2563731,115 115,89.2563731 115,57.5 C115,25.7436269 89.2563731,0 57.5,0 C25.7436269,0 0,25.7436269 0,57.5 C0,89.2563731 25.7436269,115 57.5,115 Z" stroke="#FFFFFF" stroke-width="4" fill="none" stroke-miterlimit="5"></path></g></g><g clip-path="url(#i111)"><path d="M64.5,129 C100.122366,129 129,100.122366 129,64.5 C129,28.8776336 100.122366,0 64.5,0 C28.8776336,0 0,28.8776336 0,64.5 C0,100.122366 28.8776336,129 64.5,129 Z" stroke="#FFFFFF" stroke-width="4" fill="none" stroke-miterlimit="5"></path></g></g></g><g transform="translate(252.0 343.2327217140334)"><g transform="translate(7.032416602970674 -3.552713678800501e-15) rotate(44.99999999999999)"><g clip-path="url(#i112)"><polygon points="9.09494702e-13,-9.09494702e-13 47.7674695,-9.09494702e-13 47.7674695,9.55705011 9.09494702e-13,9.55705011 9.09494702e-13,-9.09494702e-13" stroke="none" fill="#FFFFFF" opacity="79.4874645%"></polygon></g></g><g transform="translate(3.339550858072471e-13 33.49545687357343) rotate(-43.99999999999999)"><g clip-path="url(#i113)"><polygon points="0,0 47.7675984,0 47.7675984,9.557022 0,9.557022 0,0" stroke="none" fill="#FFFFFF" opacity="79.860215%"></polygon></g></g></g></g></svg>