<?xml version="1.0" encoding="UTF-8"?>
<svg width="210px" height="60px" viewBox="0 0 210 60" version="1.1" xmlns="http://www.w3.org/2000/svg" xmlns:xlink="http://www.w3.org/1999/xlink">
    <title>Portfolio_Logo</title>
    <g id="Portfolio_Logo" stroke="none" stroke-width="1" fill="none" fill-rule="evenodd">
        <g id="Group-Copy" transform="translate(8.000000, 10.000000)">
            <g id="New_Logo" fill-rule="nonzero">
                <polygon id="Path" fill="#0049B4" points="8.5 25.3968254 6 24.1269841 6 36.4444444 34 19.6825397 0 0 0 40 2.75 38.2222222 2.75 18.1587302 12 23.4920635 14.75 21.968254 2.75 15.2380952 2.75 4.6984127 28.875 20.0634921 8.5 32"></polygon>
                <polygon id="Path" fill="#525252" points="8.5 32 6 36.4444444 34 19.6825397 0 0 0 40 2.75 38.2222222 2.75 18.1587302 12 23.4920635 14.75 21.968254 2.75 15.2380952 2.75 4.6984127 8.30700302 4.79890272 34 19.6825397 6 36.4444444"></polygon>
            </g>
            <rect id="Rectangle" fill="#E0E5E8" x="44" y="0" width="1" height="40"></rect>
            <g id="DES-FLAHERTY" transform="translate(57.000000, 16.000000)" fill-rule="nonzero">
                <path d="M3.42669929,0.139240506 C4.54377307,0.139240506 5.52247059,0.358415377 6.36279186,0.79676512 C7.20311312,1.23511486 7.85222356,1.86427567 8.31012317,2.68424754 C8.76802278,3.50421941 8.99697259,4.46085326 8.99697259,5.55414909 C8.99697259,6.64744491 8.76802278,7.59634318 8.31012317,8.40084388 C7.85222356,9.20534459 7.20311312,9.82161275 6.36279186,10.2496484 C5.52247059,10.677684 4.54377307,10.8917018 3.42669929,10.8917018 L0,10.8917018 L0,0.139240506 L3.42669929,0.139240506 Z M3.42669929,9.45288326 C4.65447407,9.45288326 5.59543262,9.11251758 6.24957492,8.43178622 C6.90371722,7.75105485 7.23078837,6.79184248 7.23078837,5.55414909 C7.23078837,4.30614158 6.90371722,3.33145804 6.24957492,2.63009845 C5.59543262,1.92873887 4.65447407,1.57805907 3.42669929,1.57805907 L1.72089744,1.57805907 L1.72089744,9.45288326 L3.42669929,9.45288326 Z" id="Shape" fill="#0049B4"></path>
                <polygon id="Path" fill="#0049B4" points="12.693236 1.5625879 12.693236 4.71870605 16.316178 4.71870605 16.316178 6.15752461 12.693236 6.15752461 12.693236 9.45288326 16.7690457 9.45288326 16.7690457 10.8917018 10.9723386 10.8917018 10.9723386 0.123769339 16.7690457 0.123769339 16.7690457 1.5625879"></polygon>
                <path d="M22.6088832,11 C21.9044222,11 21.2704074,10.8736521 20.7068386,10.6209564 C20.1432699,10.3682607 19.7004659,10.0098453 19.3784266,9.54571027 C19.0563873,9.08157525 18.8953676,8.54008439 18.8953676,7.92123769 L20.7370298,7.92123769 C20.7772847,8.38537271 20.9559159,8.76699484 21.2729233,9.06610408 C21.5899307,9.36521331 22.0352507,9.51476793 22.6088832,9.51476793 C23.2026431,9.51476793 23.6655746,9.36779184 23.9976776,9.07383966 C24.3297806,8.77988748 24.4958321,8.40084388 24.4958321,7.93670886 C24.4958321,7.57571496 24.3926789,7.28176278 24.1863725,7.05485232 C23.9800661,6.82794187 23.723441,6.65260197 23.4164973,6.52883263 C23.1095536,6.40506329 22.6843611,6.27097984 22.1409198,6.12658228 C21.4565864,5.94092827 20.9005654,5.75269573 20.472857,5.56188467 C20.0451485,5.37107361 19.6803384,5.0745429 19.3784266,4.67229255 C19.0765147,4.27004219 18.9255588,3.73370839 18.9255588,3.06329114 C18.9255588,2.44444444 19.0765147,1.90295359 19.3784266,1.43881857 C19.6803384,0.974683544 20.103015,0.618846695 20.6464563,0.371308017 C21.1898976,0.123769339 21.8188805,0 22.5334052,0 C23.5498417,0 24.3826152,0.260431317 25.0317256,0.781293952 C25.6808361,1.30215659 26.0406143,2.01640881 26.1110604,2.92405063 L24.2090159,2.92405063 C24.1788247,2.53211439 23.9976776,2.19690577 23.6655746,1.91842475 C23.3334716,1.63994374 22.8956994,1.50070323 22.3522581,1.50070323 C21.8591355,1.50070323 21.4565864,1.62962963 21.1446108,1.88748242 C20.8326352,2.14533521 20.6766475,2.51664323 20.6766475,3.00140647 C20.6766475,3.33145804 20.7747688,3.60220347 20.9710115,3.81364276 C21.1672542,4.02508204 21.4163314,4.19268636 21.7182433,4.3164557 C22.0201551,4.44022504 22.4327679,4.57430849 22.9560818,4.71870605 C23.650479,4.91467417 24.2165637,5.11064229 24.6543358,5.30661041 C25.092108,5.50257853 25.4644659,5.80426629 25.7714096,6.2116737 C26.0783533,6.61908111 26.2318252,7.16315049 26.2318252,7.84388186 C26.2318252,8.39052977 26.088417,8.90623535 25.8016008,9.39099859 C25.5147846,9.87576184 25.0971399,10.2651195 24.5486667,10.5590717 C24.0001935,10.8530239 23.353599,11 22.6088832,11 Z" id="Path" fill="#0049B4"></path>
                <polygon id="Path" fill="#525252" points="38.9078091 0.139240506 38.9078091 1.57805907 34.4546095 1.57805907 34.4546095 4.74964838 37.9265956 4.74964838 37.9265956 6.18846695 34.4546095 6.18846695 34.4546095 10.8917018 32.7337121 10.8917018 32.7337121 0.139240506"></polygon>
                <polygon id="Path" fill="#525252" points="42.4984034 9.46835443 46.0458674 9.46835443 46.0458674 10.8917018 40.7775059 10.8917018 40.7775059 0.139240506 42.4984034 0.139240506"></polygon>
                <path d="M54.0745656,8.69479606 L49.6817484,8.69479606 L48.9269689,10.8917018 L47.1305935,10.8917018 L50.8893958,0.123769339 L52.8820139,0.123769339 L56.6408162,10.8917018 L54.8293452,10.8917018 L54.0745656,8.69479606 Z M53.5915067,7.2559775 L51.8857048,2.25879044 L50.1648074,7.2559775 L53.5915067,7.2559775 Z" id="Shape" fill="#525252"></path>
                <polygon id="Path" fill="#525252" points="66.9187575 0.139240506 66.9187575 10.8917018 65.1978601 10.8917018 65.1978601 6.18846695 60.2616016 6.18846695 60.2616016 10.8917018 58.5407042 10.8917018 58.5407042 0.139240506 60.2616016 0.139240506 60.2616016 4.74964838 65.1978601 4.74964838 65.1978601 0.139240506"></polygon>
                <polygon id="Path" fill="#525252" points="71.1735578 1.5625879 71.1735578 4.71870605 74.7964998 4.71870605 74.7964998 6.15752461 71.1735578 6.15752461 71.1735578 9.45288326 75.2493676 9.45288326 75.2493676 10.8917018 69.4526604 10.8917018 69.4526604 0.123769339 75.2493676 0.123769339 75.2493676 1.5625879"></polygon>
                <path d="M83.0818231,10.8917018 L80.6665284,6.5907173 L79.353212,6.5907173 L79.353212,10.8917018 L77.6323145,10.8917018 L77.6323145,0.139240506 L81.2552565,0.139240506 C82.0603547,0.139240506 82.7421723,0.283638068 83.3007092,0.572433193 C83.859246,0.861228317 84.2768908,1.2480075 84.5536433,1.73277075 C84.8303958,2.21753399 84.968772,2.75902485 84.968772,3.35724332 C84.968772,4.05860291 84.7700134,4.6954993 84.3724962,5.26793249 C83.9749789,5.84036568 83.3636075,6.22972339 82.5383818,6.43600563 L85.1348235,10.8917018 L83.0818231,10.8917018 Z M79.353212,5.18284107 L81.2552565,5.18284107 C81.8993351,5.18284107 82.3849099,5.01781528 82.7119811,4.68776371 C83.0390522,4.35771214 83.2025878,3.91420534 83.2025878,3.35724332 C83.2025878,2.80028129 83.0415682,2.36451008 82.7195289,2.04992968 C82.3974896,1.73534927 81.9093988,1.57805907 81.2552565,1.57805907 L79.353212,1.57805907 L79.353212,5.18284107 Z" id="Shape" fill="#525252"></path>
                <polygon id="Path" fill="#525252" points="94.2202132 0.139240506 94.2202132 1.57805907 91.4275287 1.57805907 91.4275287 10.8917018 89.7066313 10.8917018 89.7066313 1.57805907 86.8988512 1.57805907 86.8988512 0.139240506"></polygon>
                <polygon id="Path" fill="#525252" points="104 0.139240506 100.528014 6.99296765 100.528014 10.8917018 98.8071165 10.8917018 98.8071165 6.99296765 95.3200348 0.139240506 97.237175 0.139240506 99.6675652 5.41490858 102.097955 0.139240506"></polygon>
            </g>
        </g>
    </g>
</svg>