<?xml version="1.0" encoding="UTF-8"?>
<svg width="800px" height="400px" viewBox="0 0 800 400" version="1.1" xmlns="http://www.w3.org/2000/svg" xmlns:xlink="http://www.w3.org/1999/xlink">
    <title>Teal_small</title>
    <g id="Teal_small" stroke="none" stroke-width="1" fill="none" fill-rule="evenodd">
        <g id="personal_design_card1" transform="translate(-77.000000, -299.000000)">
            <path d="M84,299 L868,299 C872.418278,299 876,302.581722 876,307 L876,699 L876,699 L76,699 L76,307 C76,302.581722 79.581722,299 84,299 Z" id="Rectangle-Copy-11" fill="#2FA8C1"></path>
            <path d="M658.847329,532.85967 L658.847329,560.85967 L630.847329,560.85967 L630.847329,532.85967 L658.847329,532.85967 Z" id="Rectangle" stroke="#FFFFFF" stroke-width="4" transform="translate(644.847329, 546.859670) rotate(46.000000) translate(-644.847329, -546.859670) "></path>
            <rect id="Rectangle-Copy-2" stroke="#FFFFFF" stroke-width="4" transform="translate(269.911734, 576.045727) rotate(46.000000) translate(-269.911734, -576.045727) " x="233.911734" y="540.045727" width="72" height="72"></rect>
            <rect id="Rectangle" fill="#FFFFFF" transform="translate(379.697201, 586.126645) rotate(45.000000) translate(-379.697201, -586.126645) " x="215.197201" y="583.126645" width="329" height="6" rx="3"></rect>
            <rect id="Rectangle-Copy-7" fill="#FFFFFF" transform="translate(845.844387, 630.273831) rotate(45.000000) translate(-845.844387, -630.273831) " x="801.344387" y="627.273831" width="89" height="6" rx="3"></rect>
            <g id="Group-2" transform="translate(376.000000, 288.000000)" fill="#FFFFFF">
                <circle id="Oval" cx="389" cy="38" r="3"></circle>
                <circle id="Oval-Copy-9" cx="396" cy="44" r="3"></circle>
                <circle id="Oval-Copy-10" cx="402" cy="50" r="3"></circle>
                <circle id="Oval-Copy-11" cx="408" cy="56" r="3"></circle>
                <circle id="Oval-Copy-12" cx="415" cy="62" r="3"></circle>
                <circle id="Oval-Copy-13" cx="421" cy="68" r="3"></circle>
                <circle id="Oval-Copy-14" cx="428" cy="74" r="3"></circle>
                <circle id="Oval-Copy-15" cx="434" cy="80" r="3"></circle>
                <circle id="Oval-Copy-16" cx="440" cy="86" r="3"></circle>
                <circle id="Oval-Copy-17" cx="446" cy="92" r="3"></circle>
                <circle id="Oval-Copy-18" cx="453" cy="98" r="3"></circle>
                <circle id="Oval-Copy-19" cx="459" cy="104" r="3"></circle>
                <circle id="Oval-Copy-20" cx="466" cy="110" r="3"></circle>
                <circle id="Oval-Copy-21" cx="472" cy="116" r="3"></circle>
                <g id="Group-5" transform="translate(27.000000, 0.000000)">
                    <g id="Group-3" transform="translate(86.000000, 87.000000)">
                        <circle id="Oval-Copy-22" cx="2" cy="2" r="2"></circle>
                        <circle id="Oval-Copy-23" cx="8" cy="9" r="2"></circle>
                        <circle id="Oval-Copy-24" cx="15" cy="16" r="2"></circle>
                        <circle id="Oval-Copy-25" cx="22" cy="22" r="2"></circle>
                        <circle id="Oval-Copy-26" cx="29" cy="29" r="2"></circle>
                        <circle id="Oval-Copy-27" cx="35" cy="35" r="2"></circle>
                        <circle id="Oval-Copy-28" cx="41" cy="42" r="2"></circle>
                        <circle id="Oval-Copy-29" cx="48" cy="49" r="2"></circle>
                        <circle id="Oval-Copy-30" cx="55" cy="55" r="2"></circle>
                        <circle id="Oval-Copy-31" cx="61" cy="62" r="2"></circle>
                        <circle id="Oval-Copy-32" cx="68" cy="68" r="2"></circle>
                        <circle id="Oval-Copy-33" cx="74" cy="75" r="2"></circle>
                        <circle id="Oval-Copy-34" cx="81" cy="82" r="2"></circle>
                    </g>
                    <g id="Group-3">
                        <circle id="Oval-Copy-24" cx="15" cy="16" r="2"></circle>
                        <circle id="Oval-Copy-25" cx="22" cy="22" r="2"></circle>
                        <circle id="Oval-Copy-26" cx="29" cy="29" r="2"></circle>
                        <circle id="Oval-Copy-27" cx="35" cy="35" r="2"></circle>
                        <circle id="Oval-Copy-28" cx="41" cy="42" r="2"></circle>
                        <circle id="Oval-Copy-29" cx="48" cy="49" r="2"></circle>
                        <circle id="Oval-Copy-30" cx="55" cy="55" r="2"></circle>
                        <circle id="Oval-Copy-31" cx="61" cy="62" r="2"></circle>
                        <circle id="Oval-Copy-32" cx="68" cy="68" r="2"></circle>
                        <circle id="Oval-Copy-33" cx="74" cy="75" r="2"></circle>
                        <circle id="Oval-Copy-34" cx="81" cy="82" r="2"></circle>
                    </g>
                </g>
                <g id="Group-5-Copy" transform="translate(0.000000, 256.000000)">
                    <g id="Group-3" transform="translate(86.000000, 87.000000)">
                        <circle id="Oval-Copy-22" cx="2" cy="2" r="2"></circle>
                        <circle id="Oval-Copy-23" cx="8" cy="9" r="2"></circle>
                        <circle id="Oval-Copy-24" cx="15" cy="16" r="2"></circle>
                        <circle id="Oval-Copy-25" cx="22" cy="22" r="2"></circle>
                        <circle id="Oval-Copy-26" cx="29" cy="29" r="2"></circle>
                        <circle id="Oval-Copy-27" cx="35" cy="35" r="2"></circle>
                        <circle id="Oval-Copy-28" cx="41" cy="42" r="2"></circle>
                        <circle id="Oval-Copy-29" cx="48" cy="49" r="2"></circle>
                        <circle id="Oval-Copy-30" cx="55" cy="55" r="2"></circle>
                        <circle id="Oval-Copy-31" cx="61" cy="62" r="2"></circle>
                        <circle id="Oval-Copy-32" cx="68" cy="68" r="2"></circle>
                    </g>
                    <g id="Group-3">
                        <circle id="Oval-Copy-22" cx="2" cy="2" r="2"></circle>
                        <circle id="Oval-Copy-23" cx="8" cy="9" r="2"></circle>
                        <circle id="Oval-Copy-24" cx="15" cy="16" r="2"></circle>
                        <circle id="Oval-Copy-25" cx="22" cy="22" r="2"></circle>
                        <circle id="Oval-Copy-26" cx="29" cy="29" r="2"></circle>
                        <circle id="Oval-Copy-27" cx="35" cy="35" r="2"></circle>
                        <circle id="Oval-Copy-28" cx="41" cy="42" r="2"></circle>
                        <circle id="Oval-Copy-29" cx="48" cy="49" r="2"></circle>
                        <circle id="Oval-Copy-30" cx="55" cy="55" r="2"></circle>
                        <circle id="Oval-Copy-31" cx="61" cy="62" r="2"></circle>
                        <circle id="Oval-Copy-32" cx="68" cy="68" r="2"></circle>
                        <circle id="Oval-Copy-33" cx="74" cy="75" r="2"></circle>
                        <circle id="Oval-Copy-34" cx="81" cy="82" r="2"></circle>
                    </g>
                </g>
                <g id="Group-4" transform="translate(452.000000, 165.000000)">
                    <circle id="Oval-Copy-35" cx="48" cy="48" r="2"></circle>
                    <circle id="Oval-Copy-36" cx="42" cy="42" r="2"></circle>
                    <circle id="Oval-Copy-37" cx="35" cy="35" r="2"></circle>
                    <circle id="Oval-Copy-38" cx="29" cy="29" r="2"></circle>
                    <circle id="Oval-Copy-39" cx="22" cy="22" r="2"></circle>
                    <circle id="Oval-Copy-40" cx="15" cy="15" r="2"></circle>
                    <circle id="Oval-Copy-41" cx="9" cy="9" r="2"></circle>
                    <circle id="Oval-Copy-42" cx="2" cy="2" r="2"></circle>
                </g>
            </g>
            <g id="Group-5-Copy" transform="translate(0.000000, 245.000000)" fill="#FFFFFF">
                <g id="Group-3" transform="translate(86.000000, 87.000000)">
                    <circle id="Oval-Copy-22" cx="2" cy="2" r="2"></circle>
                    <circle id="Oval-Copy-23" cx="8" cy="9" r="2"></circle>
                    <circle id="Oval-Copy-24" cx="15" cy="16" r="2"></circle>
                    <circle id="Oval-Copy-25" cx="22" cy="22" r="2"></circle>
                    <circle id="Oval-Copy-26" cx="29" cy="29" r="2"></circle>
                    <circle id="Oval-Copy-27" cx="35" cy="35" r="2"></circle>
                    <circle id="Oval-Copy-28" cx="41" cy="42" r="2"></circle>
                    <circle id="Oval-Copy-29" cx="48" cy="49" r="2"></circle>
                    <circle id="Oval-Copy-30" cx="55" cy="55" r="2"></circle>
                    <circle id="Oval-Copy-31" cx="61" cy="62" r="2"></circle>
                    <circle id="Oval-Copy-32" cx="68" cy="68" r="2"></circle>
                    <circle id="Oval-Copy-33" cx="74" cy="75" r="2"></circle>
                    <circle id="Oval-Copy-34" cx="81" cy="82" r="2"></circle>
                </g>
                <g id="Group-3">
                    <circle id="Oval-Copy-34" cx="81" cy="82" r="2"></circle>
                </g>
            </g>
            <g id="Group-5-Copy" transform="translate(37.000000, 256.000000)" fill="#FFFFFF">
                <g id="Group-3" transform="translate(86.000000, 87.000000)">
                    <circle id="Oval-Copy-22" cx="2" cy="2" r="2"></circle>
                    <circle id="Oval-Copy-23" cx="8" cy="9" r="2"></circle>
                    <circle id="Oval-Copy-24" cx="15" cy="16" r="2"></circle>
                    <circle id="Oval-Copy-25" cx="22" cy="22" r="2"></circle>
                    <circle id="Oval-Copy-26" cx="29" cy="29" r="2"></circle>
                    <circle id="Oval-Copy-27" cx="35" cy="35" r="2"></circle>
                    <circle id="Oval-Copy-28" cx="41" cy="42" r="2"></circle>
                    <circle id="Oval-Copy-29" cx="48" cy="49" r="2"></circle>
                    <circle id="Oval-Copy-30" cx="55" cy="55" r="2"></circle>
                    <circle id="Oval-Copy-31" cx="61" cy="62" r="2"></circle>
                    <circle id="Oval-Copy-32" cx="68" cy="68" r="2"></circle>
                    <circle id="Oval-Copy-33" cx="74" cy="75" r="2"></circle>
                    <circle id="Oval-Copy-34" cx="81" cy="82" r="2"></circle>
                </g>
                <g id="Group-3">
                    <circle id="Oval-Copy-28" cx="41" cy="42" r="2"></circle>
                    <circle id="Oval-Copy-29" cx="48" cy="49" r="2"></circle>
                    <circle id="Oval-Copy-30" cx="55" cy="55" r="2"></circle>
                    <circle id="Oval-Copy-31" cx="61" cy="62" r="2"></circle>
                    <circle id="Oval-Copy-32" cx="68" cy="68" r="2"></circle>
                    <circle id="Oval-Copy-33" cx="74" cy="75" r="2"></circle>
                    <circle id="Oval-Copy-34" cx="81" cy="82" r="2"></circle>
                </g>
            </g>
            <g id="Group-6" transform="translate(769.000000, 259.000000)" fill="#FFFFFF">
                <g id="Group-2-Copy" transform="translate(0.000000, 58.000000)">
                    <circle id="Oval" cx="3" cy="3" r="3"></circle>
                    <circle id="Oval-Copy-9" cx="10" cy="9" r="3"></circle>
                    <circle id="Oval-Copy-10" cx="16" cy="15" r="3"></circle>
                    <circle id="Oval-Copy-11" cx="22" cy="21" r="3"></circle>
                    <circle id="Oval-Copy-12" cx="29" cy="27" r="3"></circle>
                    <circle id="Oval-Copy-13" cx="35" cy="33" r="3"></circle>
                    <circle id="Oval-Copy-14" cx="42" cy="39" r="3"></circle>
                    <circle id="Oval-Copy-15" cx="48" cy="45" r="3"></circle>
                    <circle id="Oval-Copy-16" cx="54" cy="51" r="3"></circle>
                    <circle id="Oval-Copy-17" cx="60" cy="57" r="3"></circle>
                    <circle id="Oval-Copy-18" cx="67" cy="63" r="3"></circle>
                    <circle id="Oval-Copy-19" cx="73" cy="69" r="3"></circle>
                    <circle id="Oval-Copy-20" cx="80" cy="75" r="3"></circle>
                    <circle id="Oval-Copy-21" cx="86" cy="81" r="3"></circle>
                </g>
                <g id="Group-2-Copy-2" transform="translate(6.000000, 50.000000)">
                    <circle id="Oval" cx="3" cy="3" r="3"></circle>
                    <circle id="Oval-Copy-9" cx="10" cy="9" r="3"></circle>
                    <circle id="Oval-Copy-10" cx="16" cy="15" r="3"></circle>
                    <circle id="Oval-Copy-11" cx="22" cy="21" r="3"></circle>
                    <circle id="Oval-Copy-12" cx="29" cy="27" r="3"></circle>
                    <circle id="Oval-Copy-13" cx="35" cy="33" r="3"></circle>
                    <circle id="Oval-Copy-14" cx="42" cy="39" r="3"></circle>
                    <circle id="Oval-Copy-15" cx="48" cy="45" r="3"></circle>
                    <circle id="Oval-Copy-16" cx="54" cy="51" r="3"></circle>
                    <circle id="Oval-Copy-17" cx="60" cy="57" r="3"></circle>
                    <circle id="Oval-Copy-18" cx="67" cy="63" r="3"></circle>
                    <circle id="Oval-Copy-19" cx="73" cy="69" r="3"></circle>
                    <circle id="Oval-Copy-20" cx="80" cy="75" r="3"></circle>
                    <circle id="Oval-Copy-21" cx="86" cy="81" r="3"></circle>
                </g>
                <g id="Group-2-Copy-3" transform="translate(13.000000, 43.000000)">
                    <circle id="Oval" cx="3" cy="3" r="3"></circle>
                    <circle id="Oval-Copy-9" cx="10" cy="9" r="3"></circle>
                    <circle id="Oval-Copy-10" cx="16" cy="15" r="3"></circle>
                    <circle id="Oval-Copy-11" cx="22" cy="21" r="3"></circle>
                    <circle id="Oval-Copy-12" cx="29" cy="27" r="3"></circle>
                    <circle id="Oval-Copy-13" cx="35" cy="33" r="3"></circle>
                    <circle id="Oval-Copy-14" cx="42" cy="39" r="3"></circle>
                    <circle id="Oval-Copy-15" cx="48" cy="45" r="3"></circle>
                    <circle id="Oval-Copy-16" cx="54" cy="51" r="3"></circle>
                    <circle id="Oval-Copy-17" cx="60" cy="57" r="3"></circle>
                    <circle id="Oval-Copy-18" cx="67" cy="63" r="3"></circle>
                    <circle id="Oval-Copy-19" cx="73" cy="69" r="3"></circle>
                    <circle id="Oval-Copy-20" cx="80" cy="75" r="3"></circle>
                    <circle id="Oval-Copy-21" cx="86" cy="81" r="3"></circle>
                </g>
                <g id="Group-2-Copy-4" transform="translate(20.000000, 36.000000)">
                    <circle id="Oval" cx="3" cy="3" r="3"></circle>
                    <circle id="Oval-Copy-9" cx="10" cy="9" r="3"></circle>
                    <circle id="Oval-Copy-10" cx="16" cy="15" r="3"></circle>
                    <circle id="Oval-Copy-11" cx="22" cy="21" r="3"></circle>
                    <circle id="Oval-Copy-12" cx="29" cy="27" r="3"></circle>
                    <circle id="Oval-Copy-13" cx="35" cy="33" r="3"></circle>
                    <circle id="Oval-Copy-14" cx="42" cy="39" r="3"></circle>
                    <circle id="Oval-Copy-15" cx="48" cy="45" r="3"></circle>
                    <circle id="Oval-Copy-16" cx="54" cy="51" r="3"></circle>
                    <circle id="Oval-Copy-17" cx="60" cy="57" r="3"></circle>
                    <circle id="Oval-Copy-18" cx="67" cy="63" r="3"></circle>
                    <circle id="Oval-Copy-19" cx="73" cy="69" r="3"></circle>
                    <circle id="Oval-Copy-20" cx="80" cy="75" r="3"></circle>
                    <circle id="Oval-Copy-21" cx="86" cy="81" r="3"></circle>
                </g>
                <g id="Group-2-Copy-5" transform="translate(27.000000, 29.000000)">
                    <circle id="Oval-Copy-9" cx="10" cy="9" r="3"></circle>
                    <circle id="Oval-Copy-10" cx="16" cy="15" r="3"></circle>
                    <circle id="Oval-Copy-11" cx="22" cy="21" r="3"></circle>
                    <circle id="Oval-Copy-12" cx="29" cy="27" r="3"></circle>
                    <circle id="Oval-Copy-13" cx="35" cy="33" r="3"></circle>
                    <circle id="Oval-Copy-14" cx="42" cy="39" r="3"></circle>
                    <circle id="Oval-Copy-15" cx="48" cy="45" r="3"></circle>
                    <circle id="Oval-Copy-16" cx="54" cy="51" r="3"></circle>
                    <circle id="Oval-Copy-17" cx="60" cy="57" r="3"></circle>
                    <circle id="Oval-Copy-18" cx="67" cy="63" r="3"></circle>
                    <circle id="Oval-Copy-19" cx="73" cy="69" r="3"></circle>
                    <circle id="Oval-Copy-20" cx="80" cy="75" r="3"></circle>
                </g>
                <g id="Group-2-Copy-6" transform="translate(33.000000, 21.000000)">
                    <circle id="Oval-Copy-11" cx="22" cy="21" r="3"></circle>
                    <circle id="Oval-Copy-12" cx="29" cy="27" r="3"></circle>
                    <circle id="Oval-Copy-13" cx="35" cy="33" r="3"></circle>
                    <circle id="Oval-Copy-14" cx="42" cy="39" r="3"></circle>
                    <circle id="Oval-Copy-15" cx="48" cy="45" r="3"></circle>
                    <circle id="Oval-Copy-16" cx="54" cy="51" r="3"></circle>
                    <circle id="Oval-Copy-17" cx="60" cy="57" r="3"></circle>
                    <circle id="Oval-Copy-18" cx="67" cy="63" r="3"></circle>
                    <circle id="Oval-Copy-19" cx="73" cy="69" r="3"></circle>
                </g>
                <g id="Group-2-Copy-7" transform="translate(40.000000, 15.000000)">
                    <circle id="Oval-Copy-12" cx="29" cy="27" r="3"></circle>
                    <circle id="Oval-Copy-13" cx="35" cy="33" r="3"></circle>
                    <circle id="Oval-Copy-14" cx="42" cy="39" r="3"></circle>
                    <circle id="Oval-Copy-15" cx="48" cy="45" r="3"></circle>
                    <circle id="Oval-Copy-16" cx="54" cy="51" r="3"></circle>
                    <circle id="Oval-Copy-17" cx="60" cy="57" r="3"></circle>
                    <circle id="Oval-Copy-18" cx="67" cy="63" r="3"></circle>
                </g>
                <g id="Group-2-Copy-8" transform="translate(46.000000, 8.000000)">
                    <circle id="Oval-Copy-13" cx="35" cy="33" r="3"></circle>
                    <circle id="Oval-Copy-14" cx="42" cy="39" r="3"></circle>
                    <circle id="Oval-Copy-15" cx="48" cy="45" r="3"></circle>
                    <circle id="Oval-Copy-16" cx="54" cy="51" r="3"></circle>
                    <circle id="Oval-Copy-17" cx="60" cy="57" r="3"></circle>
                </g>
                <g id="Group-2-Copy-9" transform="translate(53.000000, 0.000000)">
                    <circle id="Oval-Copy-14" cx="42" cy="39" r="3"></circle>
                    <circle id="Oval-Copy-15" cx="48" cy="45" r="3"></circle>
                    <circle id="Oval-Copy-16" cx="54" cy="51" r="3"></circle>
                </g>
            </g>
            <g id="Group-6-Copy-2" opacity="0.5" transform="translate(409.000000, 427.000000)" fill="#FFFFFF">
                <g id="Group-2-Copy" transform="translate(0.000000, 58.000000)">
                    <circle id="Oval" cx="3" cy="3" r="3"></circle>
                    <circle id="Oval-Copy-9" cx="10" cy="9" r="3"></circle>
                    <circle id="Oval-Copy-10" cx="16" cy="15" r="3"></circle>
                    <circle id="Oval-Copy-11" cx="22" cy="21" r="3"></circle>
                    <circle id="Oval-Copy-12" cx="29" cy="27" r="3"></circle>
                    <circle id="Oval-Copy-13" cx="35" cy="33" r="3"></circle>
                    <circle id="Oval-Copy-14" cx="42" cy="39" r="3"></circle>
                    <circle id="Oval-Copy-15" cx="48" cy="45" r="3"></circle>
                    <circle id="Oval-Copy-16" cx="54" cy="51" r="3"></circle>
                    <circle id="Oval-Copy-17" cx="60" cy="57" r="3"></circle>
                    <circle id="Oval-Copy-18" cx="67" cy="63" r="3"></circle>
                    <circle id="Oval-Copy-19" cx="73" cy="69" r="3"></circle>
                    <circle id="Oval-Copy-20" cx="80" cy="75" r="3"></circle>
                    <circle id="Oval-Copy-21" cx="86" cy="81" r="3"></circle>
                </g>
                <g id="Group-2-Copy-2" transform="translate(6.000000, 50.000000)">
                    <circle id="Oval" cx="3" cy="3" r="3"></circle>
                    <circle id="Oval-Copy-9" cx="10" cy="9" r="3"></circle>
                    <circle id="Oval-Copy-10" cx="16" cy="15" r="3"></circle>
                    <circle id="Oval-Copy-11" cx="22" cy="21" r="3"></circle>
                    <circle id="Oval-Copy-12" cx="29" cy="27" r="3"></circle>
                    <circle id="Oval-Copy-13" cx="35" cy="33" r="3"></circle>
                    <circle id="Oval-Copy-14" cx="42" cy="39" r="3"></circle>
                    <circle id="Oval-Copy-15" cx="48" cy="45" r="3"></circle>
                    <circle id="Oval-Copy-16" cx="54" cy="51" r="3"></circle>
                    <circle id="Oval-Copy-17" cx="60" cy="57" r="3"></circle>
                    <circle id="Oval-Copy-18" cx="67" cy="63" r="3"></circle>
                    <circle id="Oval-Copy-19" cx="73" cy="69" r="3"></circle>
                    <circle id="Oval-Copy-20" cx="80" cy="75" r="3"></circle>
                    <circle id="Oval-Copy-21" cx="86" cy="81" r="3"></circle>
                </g>
                <g id="Group-2-Copy-3" transform="translate(13.000000, 43.000000)">
                    <circle id="Oval" cx="3" cy="3" r="3"></circle>
                    <circle id="Oval-Copy-9" cx="10" cy="9" r="3"></circle>
                    <circle id="Oval-Copy-10" cx="16" cy="15" r="3"></circle>
                    <circle id="Oval-Copy-11" cx="22" cy="21" r="3"></circle>
                    <circle id="Oval-Copy-12" cx="29" cy="27" r="3"></circle>
                    <circle id="Oval-Copy-13" cx="35" cy="33" r="3"></circle>
                    <circle id="Oval-Copy-14" cx="42" cy="39" r="3"></circle>
                    <circle id="Oval-Copy-15" cx="48" cy="45" r="3"></circle>
                    <circle id="Oval-Copy-16" cx="54" cy="51" r="3"></circle>
                    <circle id="Oval-Copy-17" cx="60" cy="57" r="3"></circle>
                    <circle id="Oval-Copy-18" cx="67" cy="63" r="3"></circle>
                    <circle id="Oval-Copy-19" cx="73" cy="69" r="3"></circle>
                    <circle id="Oval-Copy-20" cx="80" cy="75" r="3"></circle>
                    <circle id="Oval-Copy-21" cx="86" cy="81" r="3"></circle>
                </g>
                <g id="Group-2-Copy-4" transform="translate(20.000000, 36.000000)">
                    <circle id="Oval" cx="3" cy="3" r="3"></circle>
                    <circle id="Oval-Copy-9" cx="10" cy="9" r="3"></circle>
                    <circle id="Oval-Copy-10" cx="16" cy="15" r="3"></circle>
                    <circle id="Oval-Copy-11" cx="22" cy="21" r="3"></circle>
                    <circle id="Oval-Copy-12" cx="29" cy="27" r="3"></circle>
                    <circle id="Oval-Copy-13" cx="35" cy="33" r="3"></circle>
                    <circle id="Oval-Copy-14" cx="42" cy="39" r="3"></circle>
                    <circle id="Oval-Copy-15" cx="48" cy="45" r="3"></circle>
                    <circle id="Oval-Copy-16" cx="54" cy="51" r="3"></circle>
                    <circle id="Oval-Copy-17" cx="60" cy="57" r="3"></circle>
                    <circle id="Oval-Copy-18" cx="67" cy="63" r="3"></circle>
                    <circle id="Oval-Copy-19" cx="73" cy="69" r="3"></circle>
                    <circle id="Oval-Copy-20" cx="80" cy="75" r="3"></circle>
                    <circle id="Oval-Copy-21" cx="86" cy="81" r="3"></circle>
                </g>
                <g id="Group-2-Copy-5" transform="translate(27.000000, 29.000000)">
                    <circle id="Oval" cx="3" cy="3" r="3"></circle>
                    <circle id="Oval-Copy-9" cx="10" cy="9" r="3"></circle>
                    <circle id="Oval-Copy-10" cx="16" cy="15" r="3"></circle>
                    <circle id="Oval-Copy-11" cx="22" cy="21" r="3"></circle>
                    <circle id="Oval-Copy-12" cx="29" cy="27" r="3"></circle>
                    <circle id="Oval-Copy-13" cx="35" cy="33" r="3"></circle>
                    <circle id="Oval-Copy-14" cx="42" cy="39" r="3"></circle>
                    <circle id="Oval-Copy-15" cx="48" cy="45" r="3"></circle>
                    <circle id="Oval-Copy-16" cx="54" cy="51" r="3"></circle>
                    <circle id="Oval-Copy-17" cx="60" cy="57" r="3"></circle>
                    <circle id="Oval-Copy-18" cx="67" cy="63" r="3"></circle>
                    <circle id="Oval-Copy-19" cx="73" cy="69" r="3"></circle>
                    <circle id="Oval-Copy-20" cx="80" cy="75" r="3"></circle>
                    <circle id="Oval-Copy-21" cx="86" cy="81" r="3"></circle>
                </g>
                <g id="Group-2-Copy-6" transform="translate(33.000000, 21.000000)">
                    <circle id="Oval" cx="3" cy="3" r="3"></circle>
                    <circle id="Oval-Copy-9" cx="10" cy="9" r="3"></circle>
                    <circle id="Oval-Copy-10" cx="16" cy="15" r="3"></circle>
                    <circle id="Oval-Copy-11" cx="22" cy="21" r="3"></circle>
                    <circle id="Oval-Copy-12" cx="29" cy="27" r="3"></circle>
                    <circle id="Oval-Copy-13" cx="35" cy="33" r="3"></circle>
                    <circle id="Oval-Copy-14" cx="42" cy="39" r="3"></circle>
                    <circle id="Oval-Copy-15" cx="48" cy="45" r="3"></circle>
                    <circle id="Oval-Copy-16" cx="54" cy="51" r="3"></circle>
                    <circle id="Oval-Copy-17" cx="60" cy="57" r="3"></circle>
                    <circle id="Oval-Copy-18" cx="67" cy="63" r="3"></circle>
                    <circle id="Oval-Copy-19" cx="73" cy="69" r="3"></circle>
                    <circle id="Oval-Copy-20" cx="80" cy="75" r="3"></circle>
                    <circle id="Oval-Copy-21" cx="86" cy="81" r="3"></circle>
                </g>
                <g id="Group-2-Copy-7" transform="translate(40.000000, 15.000000)">
                    <circle id="Oval" cx="3" cy="3" r="3"></circle>
                    <circle id="Oval-Copy-9" cx="10" cy="9" r="3"></circle>
                    <circle id="Oval-Copy-10" cx="16" cy="15" r="3"></circle>
                    <circle id="Oval-Copy-11" cx="22" cy="21" r="3"></circle>
                    <circle id="Oval-Copy-12" cx="29" cy="27" r="3"></circle>
                    <circle id="Oval-Copy-13" cx="35" cy="33" r="3"></circle>
                    <circle id="Oval-Copy-14" cx="42" cy="39" r="3"></circle>
                    <circle id="Oval-Copy-15" cx="48" cy="45" r="3"></circle>
                    <circle id="Oval-Copy-16" cx="54" cy="51" r="3"></circle>
                    <circle id="Oval-Copy-17" cx="60" cy="57" r="3"></circle>
                    <circle id="Oval-Copy-18" cx="67" cy="63" r="3"></circle>
                    <circle id="Oval-Copy-19" cx="73" cy="69" r="3"></circle>
                    <circle id="Oval-Copy-20" cx="80" cy="75" r="3"></circle>
                    <circle id="Oval-Copy-21" cx="86" cy="81" r="3"></circle>
                </g>
                <g id="Group-2-Copy-8" transform="translate(46.000000, 8.000000)">
                    <circle id="Oval" cx="3" cy="3" r="3"></circle>
                    <circle id="Oval-Copy-9" cx="10" cy="9" r="3"></circle>
                    <circle id="Oval-Copy-10" cx="16" cy="15" r="3"></circle>
                    <circle id="Oval-Copy-11" cx="22" cy="21" r="3"></circle>
                    <circle id="Oval-Copy-12" cx="29" cy="27" r="3"></circle>
                    <circle id="Oval-Copy-13" cx="35" cy="33" r="3"></circle>
                    <circle id="Oval-Copy-14" cx="42" cy="39" r="3"></circle>
                    <circle id="Oval-Copy-15" cx="48" cy="45" r="3"></circle>
                    <circle id="Oval-Copy-16" cx="54" cy="51" r="3"></circle>
                    <circle id="Oval-Copy-17" cx="60" cy="57" r="3"></circle>
                    <circle id="Oval-Copy-18" cx="67" cy="63" r="3"></circle>
                    <circle id="Oval-Copy-19" cx="73" cy="69" r="3"></circle>
                    <circle id="Oval-Copy-20" cx="80" cy="75" r="3"></circle>
                    <circle id="Oval-Copy-21" cx="86" cy="81" r="3"></circle>
                </g>
                <g id="Group-2-Copy-9" transform="translate(53.000000, 0.000000)">
                    <circle id="Oval" cx="3" cy="3" r="3"></circle>
                    <circle id="Oval-Copy-9" cx="10" cy="9" r="3"></circle>
                    <circle id="Oval-Copy-10" cx="16" cy="15" r="3"></circle>
                    <circle id="Oval-Copy-11" cx="22" cy="21" r="3"></circle>
                    <circle id="Oval-Copy-12" cx="29" cy="27" r="3"></circle>
                    <circle id="Oval-Copy-13" cx="35" cy="33" r="3"></circle>
                    <circle id="Oval-Copy-14" cx="42" cy="39" r="3"></circle>
                    <circle id="Oval-Copy-15" cx="48" cy="45" r="3"></circle>
                    <circle id="Oval-Copy-16" cx="54" cy="51" r="3"></circle>
                    <circle id="Oval-Copy-17" cx="60" cy="57" r="3"></circle>
                    <circle id="Oval-Copy-18" cx="67" cy="63" r="3"></circle>
                    <circle id="Oval-Copy-19" cx="73" cy="69" r="3"></circle>
                    <circle id="Oval-Copy-20" cx="80" cy="75" r="3"></circle>
                    <circle id="Oval-Copy-21" cx="86" cy="81" r="3"></circle>
                </g>
            </g>
            <g id="Group-6-Copy" opacity="0.5" transform="translate(37.000000, 399.000000)" fill="#FFFFFF">
                <g id="Group-2-Copy" transform="translate(0.000000, 51.000000)">
                    <ellipse id="Oval-Copy-15" cx="41.5280899" cy="38.5714286" rx="2.59550562" ry="2.57142857"></ellipse>
                    <ellipse id="Oval-Copy-16" cx="46.7191011" cy="43.7142857" rx="2.59550562" ry="2.57142857"></ellipse>
                    <ellipse id="Oval-Copy-17" cx="51.9101124" cy="48.8571429" rx="2.59550562" ry="2.57142857"></ellipse>
                    <ellipse id="Oval-Copy-18" cx="57.9662921" cy="54" rx="2.59550562" ry="2.57142857"></ellipse>
                    <ellipse id="Oval-Copy-19" cx="63.1573034" cy="59.1428571" rx="2.59550562" ry="2.57142857"></ellipse>
                    <ellipse id="Oval-Copy-20" cx="69.2134831" cy="64.2857143" rx="2.59550562" ry="2.57142857"></ellipse>
                    <ellipse id="Oval-Copy-21" cx="74.4044944" cy="69.4285714" rx="2.59550562" ry="2.57142857"></ellipse>
                </g>
                <g id="Group-2-Copy-2" transform="translate(5.000000, 44.000000)">
                    <ellipse id="Oval-Copy-14" cx="36.3370787" cy="33.4285714" rx="2.59550562" ry="2.57142857"></ellipse>
                    <ellipse id="Oval-Copy-15" cx="41.5280899" cy="38.5714286" rx="2.59550562" ry="2.57142857"></ellipse>
                    <ellipse id="Oval-Copy-16" cx="46.7191011" cy="43.7142857" rx="2.59550562" ry="2.57142857"></ellipse>
                    <ellipse id="Oval-Copy-17" cx="51.9101124" cy="48.8571429" rx="2.59550562" ry="2.57142857"></ellipse>
                    <ellipse id="Oval-Copy-18" cx="57.9662921" cy="54" rx="2.59550562" ry="2.57142857"></ellipse>
                    <ellipse id="Oval-Copy-19" cx="63.1573034" cy="59.1428571" rx="2.59550562" ry="2.57142857"></ellipse>
                    <ellipse id="Oval-Copy-20" cx="69.2134831" cy="64.2857143" rx="2.59550562" ry="2.57142857"></ellipse>
                    <ellipse id="Oval-Copy-21" cx="74.4044944" cy="69.4285714" rx="2.59550562" ry="2.57142857"></ellipse>
                </g>
                <g id="Group-2-Copy-3" transform="translate(11.000000, 38.000000)">
                    <ellipse id="Oval-Copy-13" cx="30.2808989" cy="28.2857143" rx="2.59550562" ry="2.57142857"></ellipse>
                    <ellipse id="Oval-Copy-14" cx="36.3370787" cy="33.4285714" rx="2.59550562" ry="2.57142857"></ellipse>
                    <ellipse id="Oval-Copy-15" cx="41.5280899" cy="38.5714286" rx="2.59550562" ry="2.57142857"></ellipse>
                    <ellipse id="Oval-Copy-16" cx="46.7191011" cy="43.7142857" rx="2.59550562" ry="2.57142857"></ellipse>
                    <ellipse id="Oval-Copy-17" cx="51.9101124" cy="48.8571429" rx="2.59550562" ry="2.57142857"></ellipse>
                    <ellipse id="Oval-Copy-18" cx="57.9662921" cy="54" rx="2.59550562" ry="2.57142857"></ellipse>
                    <ellipse id="Oval-Copy-19" cx="63.1573034" cy="59.1428571" rx="2.59550562" ry="2.57142857"></ellipse>
                    <ellipse id="Oval-Copy-20" cx="69.2134831" cy="64.2857143" rx="2.59550562" ry="2.57142857"></ellipse>
                    <ellipse id="Oval-Copy-21" cx="74.4044944" cy="69.4285714" rx="2.59550562" ry="2.57142857"></ellipse>
                </g>
                <g id="Group-2-Copy-4" transform="translate(18.000000, 32.000000)">
                    <ellipse id="Oval-Copy-12" cx="25.0898876" cy="23.1428571" rx="2.59550562" ry="2.57142857"></ellipse>
                    <ellipse id="Oval-Copy-13" cx="30.2808989" cy="28.2857143" rx="2.59550562" ry="2.57142857"></ellipse>
                    <ellipse id="Oval-Copy-14" cx="36.3370787" cy="33.4285714" rx="2.59550562" ry="2.57142857"></ellipse>
                    <ellipse id="Oval-Copy-15" cx="41.5280899" cy="38.5714286" rx="2.59550562" ry="2.57142857"></ellipse>
                    <ellipse id="Oval-Copy-16" cx="46.7191011" cy="43.7142857" rx="2.59550562" ry="2.57142857"></ellipse>
                    <ellipse id="Oval-Copy-17" cx="51.9101124" cy="48.8571429" rx="2.59550562" ry="2.57142857"></ellipse>
                    <ellipse id="Oval-Copy-18" cx="57.9662921" cy="54" rx="2.59550562" ry="2.57142857"></ellipse>
                    <ellipse id="Oval-Copy-19" cx="63.1573034" cy="59.1428571" rx="2.59550562" ry="2.57142857"></ellipse>
                    <ellipse id="Oval-Copy-20" cx="69.2134831" cy="64.2857143" rx="2.59550562" ry="2.57142857"></ellipse>
                    <ellipse id="Oval-Copy-21" cx="74.4044944" cy="69.4285714" rx="2.59550562" ry="2.57142857"></ellipse>
                </g>
                <g id="Group-2-Copy-5" transform="translate(23.000000, 26.000000)">
                    <ellipse id="Oval-Copy-11" cx="19.0337079" cy="18" rx="2.59550562" ry="2.57142857"></ellipse>
                    <ellipse id="Oval-Copy-12" cx="25.0898876" cy="23.1428571" rx="2.59550562" ry="2.57142857"></ellipse>
                    <ellipse id="Oval-Copy-13" cx="30.2808989" cy="28.2857143" rx="2.59550562" ry="2.57142857"></ellipse>
                    <ellipse id="Oval-Copy-14" cx="36.3370787" cy="33.4285714" rx="2.59550562" ry="2.57142857"></ellipse>
                    <ellipse id="Oval-Copy-15" cx="41.5280899" cy="38.5714286" rx="2.59550562" ry="2.57142857"></ellipse>
                    <ellipse id="Oval-Copy-16" cx="46.7191011" cy="43.7142857" rx="2.59550562" ry="2.57142857"></ellipse>
                    <ellipse id="Oval-Copy-17" cx="51.9101124" cy="48.8571429" rx="2.59550562" ry="2.57142857"></ellipse>
                    <ellipse id="Oval-Copy-18" cx="57.9662921" cy="54" rx="2.59550562" ry="2.57142857"></ellipse>
                    <ellipse id="Oval-Copy-19" cx="63.1573034" cy="59.1428571" rx="2.59550562" ry="2.57142857"></ellipse>
                    <ellipse id="Oval-Copy-20" cx="69.2134831" cy="64.2857143" rx="2.59550562" ry="2.57142857"></ellipse>
                    <ellipse id="Oval-Copy-21" cx="74.4044944" cy="69.4285714" rx="2.59550562" ry="2.57142857"></ellipse>
                </g>
                <g id="Group-2-Copy-6" transform="translate(28.000000, 19.000000)">
                    <ellipse id="Oval-Copy-10" cx="13.8426966" cy="12.8571429" rx="2.59550562" ry="2.57142857"></ellipse>
                    <ellipse id="Oval-Copy-11" cx="19.0337079" cy="18" rx="2.59550562" ry="2.57142857"></ellipse>
                    <ellipse id="Oval-Copy-12" cx="25.0898876" cy="23.1428571" rx="2.59550562" ry="2.57142857"></ellipse>
                    <ellipse id="Oval-Copy-13" cx="30.2808989" cy="28.2857143" rx="2.59550562" ry="2.57142857"></ellipse>
                    <ellipse id="Oval-Copy-14" cx="36.3370787" cy="33.4285714" rx="2.59550562" ry="2.57142857"></ellipse>
                    <ellipse id="Oval-Copy-15" cx="41.5280899" cy="38.5714286" rx="2.59550562" ry="2.57142857"></ellipse>
                    <ellipse id="Oval-Copy-16" cx="46.7191011" cy="43.7142857" rx="2.59550562" ry="2.57142857"></ellipse>
                    <ellipse id="Oval-Copy-17" cx="51.9101124" cy="48.8571429" rx="2.59550562" ry="2.57142857"></ellipse>
                    <ellipse id="Oval-Copy-18" cx="57.9662921" cy="54" rx="2.59550562" ry="2.57142857"></ellipse>
                    <ellipse id="Oval-Copy-19" cx="63.1573034" cy="59.1428571" rx="2.59550562" ry="2.57142857"></ellipse>
                    <ellipse id="Oval-Copy-20" cx="69.2134831" cy="64.2857143" rx="2.59550562" ry="2.57142857"></ellipse>
                    <ellipse id="Oval-Copy-21" cx="74.4044944" cy="69.4285714" rx="2.59550562" ry="2.57142857"></ellipse>
                </g>
                <g id="Group-2-Copy-7" transform="translate(35.000000, 13.000000)">
                    <ellipse id="Oval" cx="2.59550562" cy="2.57142857" rx="2.59550562" ry="2.57142857"></ellipse>
                    <ellipse id="Oval-Copy-9" cx="8.65168539" cy="7.71428571" rx="2.59550562" ry="2.57142857"></ellipse>
                    <ellipse id="Oval-Copy-10" cx="13.8426966" cy="12.8571429" rx="2.59550562" ry="2.57142857"></ellipse>
                    <ellipse id="Oval-Copy-11" cx="19.0337079" cy="18" rx="2.59550562" ry="2.57142857"></ellipse>
                    <ellipse id="Oval-Copy-12" cx="25.0898876" cy="23.1428571" rx="2.59550562" ry="2.57142857"></ellipse>
                    <ellipse id="Oval-Copy-13" cx="30.2808989" cy="28.2857143" rx="2.59550562" ry="2.57142857"></ellipse>
                    <ellipse id="Oval-Copy-14" cx="36.3370787" cy="33.4285714" rx="2.59550562" ry="2.57142857"></ellipse>
                    <ellipse id="Oval-Copy-15" cx="41.5280899" cy="38.5714286" rx="2.59550562" ry="2.57142857"></ellipse>
                    <ellipse id="Oval-Copy-16" cx="46.7191011" cy="43.7142857" rx="2.59550562" ry="2.57142857"></ellipse>
                    <ellipse id="Oval-Copy-17" cx="51.9101124" cy="48.8571429" rx="2.59550562" ry="2.57142857"></ellipse>
                    <ellipse id="Oval-Copy-18" cx="57.9662921" cy="54" rx="2.59550562" ry="2.57142857"></ellipse>
                    <ellipse id="Oval-Copy-19" cx="63.1573034" cy="59.1428571" rx="2.59550562" ry="2.57142857"></ellipse>
                    <ellipse id="Oval-Copy-20" cx="69.2134831" cy="64.2857143" rx="2.59550562" ry="2.57142857"></ellipse>
                    <ellipse id="Oval-Copy-21" cx="74.4044944" cy="69.4285714" rx="2.59550562" ry="2.57142857"></ellipse>
                </g>
                <g id="Group-2-Copy-8" transform="translate(39.000000, 7.000000)">
                    <ellipse id="Oval" cx="2.59550562" cy="2.57142857" rx="2.59550562" ry="2.57142857"></ellipse>
                    <ellipse id="Oval-Copy-9" cx="8.65168539" cy="7.71428571" rx="2.59550562" ry="2.57142857"></ellipse>
                    <ellipse id="Oval-Copy-10" cx="13.8426966" cy="12.8571429" rx="2.59550562" ry="2.57142857"></ellipse>
                    <ellipse id="Oval-Copy-11" cx="19.0337079" cy="18" rx="2.59550562" ry="2.57142857"></ellipse>
                    <ellipse id="Oval-Copy-12" cx="25.0898876" cy="23.1428571" rx="2.59550562" ry="2.57142857"></ellipse>
                    <ellipse id="Oval-Copy-13" cx="30.2808989" cy="28.2857143" rx="2.59550562" ry="2.57142857"></ellipse>
                    <ellipse id="Oval-Copy-14" cx="36.3370787" cy="33.4285714" rx="2.59550562" ry="2.57142857"></ellipse>
                    <ellipse id="Oval-Copy-15" cx="41.5280899" cy="38.5714286" rx="2.59550562" ry="2.57142857"></ellipse>
                    <ellipse id="Oval-Copy-16" cx="46.7191011" cy="43.7142857" rx="2.59550562" ry="2.57142857"></ellipse>
                    <ellipse id="Oval-Copy-17" cx="51.9101124" cy="48.8571429" rx="2.59550562" ry="2.57142857"></ellipse>
                    <ellipse id="Oval-Copy-18" cx="57.9662921" cy="54" rx="2.59550562" ry="2.57142857"></ellipse>
                    <ellipse id="Oval-Copy-19" cx="63.1573034" cy="59.1428571" rx="2.59550562" ry="2.57142857"></ellipse>
                    <ellipse id="Oval-Copy-20" cx="69.2134831" cy="64.2857143" rx="2.59550562" ry="2.57142857"></ellipse>
                    <ellipse id="Oval-Copy-21" cx="74.4044944" cy="69.4285714" rx="2.59550562" ry="2.57142857"></ellipse>
                </g>
                <g id="Group-2-Copy-9" transform="translate(46.000000, 0.000000)">
                    <ellipse id="Oval" cx="2.59550562" cy="2.57142857" rx="2.59550562" ry="2.57142857"></ellipse>
                    <ellipse id="Oval-Copy-9" cx="8.65168539" cy="7.71428571" rx="2.59550562" ry="2.57142857"></ellipse>
                    <ellipse id="Oval-Copy-10" cx="13.8426966" cy="12.8571429" rx="2.59550562" ry="2.57142857"></ellipse>
                    <ellipse id="Oval-Copy-11" cx="19.0337079" cy="18" rx="2.59550562" ry="2.57142857"></ellipse>
                    <ellipse id="Oval-Copy-12" cx="25.0898876" cy="23.1428571" rx="2.59550562" ry="2.57142857"></ellipse>
                    <ellipse id="Oval-Copy-13" cx="30.2808989" cy="28.2857143" rx="2.59550562" ry="2.57142857"></ellipse>
                    <ellipse id="Oval-Copy-14" cx="36.3370787" cy="33.4285714" rx="2.59550562" ry="2.57142857"></ellipse>
                    <ellipse id="Oval-Copy-15" cx="41.5280899" cy="38.5714286" rx="2.59550562" ry="2.57142857"></ellipse>
                    <ellipse id="Oval-Copy-16" cx="46.7191011" cy="43.7142857" rx="2.59550562" ry="2.57142857"></ellipse>
                    <ellipse id="Oval-Copy-17" cx="51.9101124" cy="48.8571429" rx="2.59550562" ry="2.57142857"></ellipse>
                    <ellipse id="Oval-Copy-18" cx="57.9662921" cy="54" rx="2.59550562" ry="2.57142857"></ellipse>
                    <ellipse id="Oval-Copy-19" cx="63.1573034" cy="59.1428571" rx="2.59550562" ry="2.57142857"></ellipse>
                    <ellipse id="Oval-Copy-20" cx="69.2134831" cy="64.2857143" rx="2.59550562" ry="2.57142857"></ellipse>
                    <ellipse id="Oval-Copy-21" cx="74.4044944" cy="69.4285714" rx="2.59550562" ry="2.57142857"></ellipse>
                </g>
            </g>
            <path d="M702,503.83075 C703.944203,505.44956 715.634715,499.957637 717.838318,502 C721.851615,505.719641 716.035457,517.404316 720.066482,521.038431 C723.000144,523.683233 741.131348,505.33078 737.800293,534.127014 C737.027149,540.810673 756.128906,523.507004 756.128906,535.650787 C756.128906,538.605642 751.843652,547.006508 756.128906,548.660416 C761.381155,550.687538 771.211013,546.347521 772,547 C773.862273,548.540069 774.02894,554.706736 772.5,565.5" id="Line" stroke="#FFFFFF" stroke-width="3" stroke-linecap="square"></path>
            <path d="M481,300.83075 C482.944203,302.44956 494.634715,296.957637 496.838318,299 C500.851615,302.719641 495.035457,314.404316 499.066482,318.038431 C502.000144,320.683233 520.131348,302.33078 516.800293,331.127014 C516.027149,337.810673 535.128906,320.507004 535.128906,332.650787 C535.128906,335.605642 530.843652,344.006508 535.128906,345.660416 C540.381155,347.687538 550.211013,343.347521 551,344 C552.862273,345.540069 553.02894,351.706736 551.5,362.5" id="Line-Copy" stroke="#FFFFFF" stroke-width="3" stroke-linecap="square"></path>
            <path d="M158,307.83075 C159.944203,309.44956 171.634715,303.957637 173.838318,306 C177.851615,309.719641 172.035457,321.404316 176.066482,325.038431 C179.000144,327.683233 197.131348,309.33078 193.800293,338.127014 C193.027149,344.810673 212.128906,327.507004 212.128906,339.650787 C212.128906,342.605642 207.843652,351.006508 212.128906,352.660416 C217.381155,354.687538 227.211013,350.347521 228,351 C229.862273,352.540069 230.02894,358.706736 228.5,369.5" id="Line-Copy-2" stroke="#FFFFFF" stroke-width="3" stroke-linecap="square"></path>
            <path d="M216,651.83075 C217.944203,653.44956 229.634715,647.957637 231.838318,650 C235.851615,653.719641 230.035457,665.404316 234.066482,669.038431 C237.000144,671.683233 255.131348,653.33078 251.800293,682.127014 C251.027149,688.810673 270.128906,671.507004 270.128906,683.650787 C270.128906,686.605642 265.843652,695.006508 270.128906,696.660416 C275.381155,698.687538 285.211013,694.347521 286,695 C287.862273,696.540069 288.02894,702.706736 286.5,713.5" id="Line-Copy-3" stroke="#FFFFFF" stroke-width="3" stroke-linecap="square"></path>
            <rect id="Rectangle-Copy-5" fill="#FFFFFF" opacity="0.5" transform="translate(353.551494, 668.980938) rotate(45.000000) translate(-353.551494, -668.980938) " x="308.051494" y="665.980938" width="91" height="6" rx="3"></rect>
            <rect id="Rectangle-Copy-6" fill="#FFFFFF" opacity="0.5" transform="translate(545.497670, 395.927114) rotate(45.000000) translate(-545.497670, -395.927114) " x="407.99767" y="392.927114" width="275" height="6" rx="3"></rect>
            <rect id="Rectangle-Copy-4" stroke="#FFFFFF" stroke-width="3" transform="translate(349.982491, 371.320510) rotate(46.000000) translate(-349.982491, -371.320510) " x="327.482491" y="348.82051" width="45" height="45"></rect>
            <rect id="Rectangle-Copy" stroke="#FFFFFF" stroke-width="4" transform="translate(813.847329, 539.859670) rotate(46.000000) translate(-813.847329, -539.859670) " x="799.847329" y="525.85967" width="28" height="28"></rect>
            <path d="M741.818701,384.163773 L763.111484,410.662753 L736.072572,412.349736 L741.818701,384.163773 Z" id="Triangle" stroke="#FFFFFF" stroke-width="5" transform="translate(750.526580, 396.747826) rotate(-6.000000) translate(-750.526580, -396.747826) "></path>
            <circle id="Oval" stroke="#FFFFFF" stroke-width="5" cx="645.5" cy="638.5" r="10"></circle>
            <circle id="Oval-Copy-8" stroke="#FFFFFF" stroke-width="5" opacity="0.5" cx="259.5" cy="411.5" r="10"></circle>
            <g id="Group" opacity="0.5" transform="translate(588.000000, 256.000000)" stroke="#FFFFFF">
                <circle id="Oval" cx="64.5" cy="64.5" r="11"></circle>
                <circle id="Oval-Copy" stroke-width="2" cx="64" cy="64" r="18"></circle>
                <circle id="Oval-Copy-2" stroke-width="2" cx="65" cy="65" r="25"></circle>
                <circle id="Oval-Copy-3" stroke-width="2" cx="64" cy="65" r="31"></circle>
                <circle id="Oval-Copy-4" stroke-width="2" cx="63.5" cy="65.5" r="39.5"></circle>
                <circle id="Oval-Copy-5" stroke-width="2" cx="64.5" cy="65.5" r="46.5"></circle>
                <circle id="Oval-Copy-6" stroke-width="2" cx="64.5" cy="64.5" r="56.5"></circle>
                <circle id="Oval-Copy-7" stroke-width="2" cx="64.5" cy="64.5" r="63.5"></circle>
            </g>
            <g id="Group-Copy" opacity="0.5" transform="translate(683.000000, 601.000000)" stroke="#FFFFFF">
                <circle id="Oval" cx="64.5" cy="64.5" r="11"></circle>
                <circle id="Oval-Copy" stroke-width="2" cx="64" cy="64" r="18"></circle>
                <circle id="Oval-Copy-2" stroke-width="2" cx="65" cy="65" r="25"></circle>
                <circle id="Oval-Copy-3" stroke-width="2" cx="64" cy="65" r="31"></circle>
                <circle id="Oval-Copy-4" stroke-width="2" cx="63.5" cy="65.5" r="39.5"></circle>
                <circle id="Oval-Copy-5" stroke-width="2" cx="64.5" cy="65.5" r="46.5"></circle>
                <circle id="Oval-Copy-6" stroke-width="2" cx="64.5" cy="64.5" r="56.5"></circle>
                <circle id="Oval-Copy-7" stroke-width="2" cx="64.5" cy="64.5" r="63.5"></circle>
            </g>
            <g id="Group-Copy-2" opacity="0.5" transform="translate(53.000000, 570.000000)" stroke="#FFFFFF">
                <circle id="Oval" cx="64.5" cy="64.5" r="11"></circle>
                <circle id="Oval-Copy" stroke-width="2" cx="64" cy="64" r="18"></circle>
                <circle id="Oval-Copy-2" stroke-width="2" cx="65" cy="65" r="25"></circle>
                <circle id="Oval-Copy-3" stroke-width="2" cx="64" cy="65" r="31"></circle>
                <circle id="Oval-Copy-4" stroke-width="2" cx="63.5" cy="65.5" r="39.5"></circle>
                <circle id="Oval-Copy-5" stroke-width="2" cx="64.5" cy="65.5" r="46.5"></circle>
                <circle id="Oval-Copy-6" stroke-width="2" cx="64.5" cy="64.5" r="56.5"></circle>
                <circle id="Oval-Copy-7" stroke-width="2" cx="64.5" cy="64.5" r="63.5"></circle>
            </g>
            <g id="Group-Copy-2" transform="translate(165.988753, 529.341980) rotate(9.000000) translate(-165.988753, -529.341980) translate(152.340928, 515.841980)" fill="#FFFFFF">
                <polygon id="Rectangle" transform="translate(13.675072, 13.500000) rotate(45.000000) translate(-13.675072, -13.500000) " points="-2.09282668 10.1760157 29.3719691 10.5310251 29.442971 16.8239843 -2.0218248 16.4689749"></polygon>
                <polygon id="Rectangle-Copy-3" transform="translate(13.647824, 13.549613) rotate(-44.000000) translate(-13.647824, -13.549613) " points="-2.04289925 10.5792905 29.4095069 10.2244974 29.3385482 16.5199345 -2.11385788 16.8747276"></polygon>
            </g>
        </g>
    </g>
</svg>